<svg width="110" height="75" viewBox="0 0 110 75" fill="none" xmlns="http://www.w3.org/2000/svg">
<path d="M50.0638 64.3923L49.1103 63.6676L49.1091 63.6691L50.0638 64.3923ZM7.63301 64.3923L6.67481 65.111L6.68299 65.1216L7.63301 64.3923ZM7.63301 10.8222L6.67947 10.0975L6.67836 10.099L7.63301 10.8222ZM50.0638 10.8222L49.1056 11.5408L49.1138 11.5515L50.0638 10.8222ZM49.1091 63.6691C44.2921 70.0275 37.6049 73.2201 28.899 73.2201V75.6154C38.2862 75.6154 45.7088 72.1243 51.0185 65.1155L49.1091 63.6691ZM28.899 73.2201C20.1931 73.2201 13.4686 70.0271 8.58303 63.663L6.68299 65.1216C12.0592 72.1248 19.512 75.6154 28.899 75.6154V73.2201ZM8.59115 63.6737C3.72649 57.1875 1.23568 48.5195 1.23568 37.5566H-1.15967C-1.15967 48.8725 1.41286 58.0949 6.67487 65.1109L8.59115 63.6737ZM1.23568 37.5566C1.23568 26.593 3.72678 17.9618 8.58767 11.5454L6.67836 10.099C1.41256 17.0498 -1.15967 26.2416 -1.15967 37.5566H1.23568ZM8.58656 11.5469C13.4739 5.11617 20.1978 1.89319 28.899 1.89319V-0.502157C19.5073 -0.502157 12.0538 3.02599 6.67947 10.0975L8.58656 11.5469ZM28.899 1.89319C37.6001 1.89319 44.2868 5.11564 49.1057 11.5408L51.0219 10.1036C45.7141 3.02651 38.291 -0.502157 28.899 -0.502157V1.89319ZM49.1138 11.5515C54.0391 17.9673 56.5624 26.5962 56.5624 37.5566H58.9577C58.9577 26.2384 56.3502 17.0443 51.0138 10.0929L49.1138 11.5515ZM56.5624 37.5566C56.5624 48.5163 54.0394 57.182 49.1103 63.6676L51.0173 65.117C56.3499 58.1004 58.9577 48.8756 58.9577 37.5566H56.5624ZM15.043 37.5566C15.043 44.6587 16.1031 50.1845 18.3787 53.9712C20.7129 57.8552 24.2747 59.8178 28.899 59.8178V57.4224C25.0844 57.4224 22.3171 55.8744 20.4318 52.7373C18.488 49.5029 17.4384 44.4969 17.4384 37.5566H15.043ZM28.899 59.8178C33.5233 59.8178 37.0852 57.8552 39.4194 53.9712C41.695 50.1845 42.7551 44.6587 42.7551 37.5566H40.3597C40.3597 44.4969 39.31 49.5029 37.3662 52.7373C35.481 55.8744 32.7136 57.4224 28.899 57.4224V59.8178ZM42.7551 37.5566C42.7551 30.4546 41.695 24.9288 39.4194 21.1421C37.0852 17.258 33.5233 15.2955 28.899 15.2955V17.6908C32.7136 17.6908 35.481 19.2388 37.3662 22.3759C39.31 25.6104 40.3597 30.6163 40.3597 37.5566H42.7551ZM28.899 15.2955C24.2747 15.2955 20.7129 17.258 18.3787 21.1421C16.1031 24.9288 15.043 30.4546 15.043 37.5566H17.4384C17.4384 30.6163 18.488 25.6104 20.4318 22.3759C22.3171 19.2388 25.0844 17.6908 28.899 17.6908V15.2955ZM61.0362 73H59.8385V74.1977H61.0362V73ZM61.0362 61.2531L60.1736 60.4222L59.8385 60.7701V61.2531H61.0362ZM84.8339 36.544L83.9753 35.7089L83.9713 35.7131L84.8339 36.544ZM89.9985 18.6197L89.1312 19.4457L89.1413 19.4563L89.1516 19.4666L89.9985 18.6197ZM73.9984 24.1894L73.3934 25.2231L74.559 25.9052L75.0969 24.6664L73.9984 24.1894ZM60.3273 16.1893L59.2257 15.7193L58.8116 16.69L59.7224 17.223L60.3273 16.1893ZM70.049 4.64492L70.6722 5.66767L70.049 4.64492ZM101.138 6.87279L100.345 7.77009L100.351 7.77617L100.358 7.78213L101.138 6.87279ZM97.1884 45.5567L96.3416 44.7098L96.3379 44.7135L97.1884 45.5567ZM85.4415 57.4049L84.591 56.5617L82.5675 58.6026H85.4415V57.4049ZM109.239 57.4049H110.437V56.2072H109.239V57.4049ZM109.239 73V74.1977H110.437V73H109.239ZM62.2339 73V61.2531H59.8385V73H62.2339ZM61.8988 62.0839L85.6965 37.3748L83.9713 35.7131L60.1736 60.4222L61.8988 62.0839ZM85.6925 37.379C90.5157 32.4199 93.2215 27.9343 93.2215 23.9869H90.8262C90.8262 26.9255 88.7387 30.8114 83.9753 35.7089L85.6925 37.379ZM93.2215 23.9869C93.2215 21.4985 92.4577 19.3851 90.8454 17.7729L89.1516 19.4666C90.2398 20.5548 90.8262 22.0195 90.8262 23.9869H93.2215ZM90.8658 17.7938C89.2437 16.0905 87.0465 15.2955 84.4288 15.2955V17.6908C86.537 17.6908 88.0529 18.3135 89.1312 19.4457L90.8658 17.7938ZM84.4288 15.2955C81.8353 15.2955 79.5296 16.0044 77.5658 17.4535C75.6146 18.8932 74.0736 21.0091 72.8998 23.7124L75.0969 24.6664C76.151 22.2388 77.4623 20.5067 78.988 19.3809C80.501 18.2645 82.2966 17.6908 84.4288 17.6908V15.2955ZM74.6033 23.1557L60.9322 15.1556L59.7224 17.223L73.3934 25.2231L74.6033 23.1557ZM61.4289 16.6593C63.5004 11.8043 66.5835 8.15918 70.6722 5.66767L69.4257 3.62218C64.8729 6.39654 61.475 10.4477 59.2257 15.7193L61.4289 16.6593ZM70.6722 5.66767C74.8024 3.15082 79.312 1.89319 84.2263 1.89319V-0.502157C78.8788 -0.502157 73.9369 0.873148 69.4257 3.62218L70.6722 5.66767ZM84.2263 1.89319C90.5706 1.89319 95.92 3.85854 100.345 7.77009L101.931 5.97549C97.0391 1.65067 91.1142 -0.502157 84.2263 -0.502157V1.89319ZM100.358 7.78213C104.789 11.5794 107.029 16.6997 107.029 23.278H109.424C109.424 16.0841 106.939 10.2675 101.917 5.96345L100.358 7.78213ZM107.029 23.278C107.029 30.3473 103.565 37.4868 96.3416 44.7098L98.0353 46.4036C105.53 38.9091 109.424 31.1962 109.424 23.278H107.029ZM96.3379 44.7135L84.591 56.5617L86.292 58.2482L98.039 46.3999L96.3379 44.7135ZM85.4415 58.6026H109.239V56.2072H85.4415V58.6026ZM108.042 57.4049V73H110.437V57.4049H108.042ZM109.239 71.8023H61.0362V74.1977H109.239V71.8023Z" fill="url(#paint0_linear_1_1007)" fill-opacity="0.23"/>
<defs>
<linearGradient id="paint0_linear_1_1007" x1="55" y1="-24" x2="16.8289" y2="100.644" gradientUnits="userSpaceOnUse">
<stop/>
<stop offset="0.9105" stop-color="#25FFCB"/>
<stop offset="0.9999" stop-color="#3C4E49"/>
</linearGradient>
</defs>
</svg>
