<svg width="111" height="75" viewBox="0 0 111 75" fill="none" xmlns="http://www.w3.org/2000/svg">
<path d="M50.0638 64.3923L49.1103 63.6676L49.1091 63.6691L50.0638 64.3923ZM7.63301 64.3923L6.67481 65.111L6.68299 65.1216L7.63301 64.3923ZM7.63301 10.8222L6.67947 10.0975L6.67836 10.099L7.63301 10.8222ZM50.0638 10.8222L49.1056 11.5408L49.1138 11.5515L50.0638 10.8222ZM49.1091 63.6691C44.2921 70.0275 37.6049 73.2201 28.899 73.2201V75.6154C38.2862 75.6154 45.7088 72.1243 51.0185 65.1155L49.1091 63.6691ZM28.899 73.2201C20.1931 73.2201 13.4686 70.0271 8.58303 63.663L6.68299 65.1216C12.0592 72.1248 19.512 75.6154 28.899 75.6154V73.2201ZM8.59115 63.6737C3.72649 57.1875 1.23568 48.5195 1.23568 37.5566H-1.15967C-1.15967 48.8725 1.41286 58.0949 6.67487 65.1109L8.59115 63.6737ZM1.23568 37.5566C1.23568 26.593 3.72678 17.9618 8.58767 11.5454L6.67836 10.099C1.41256 17.0498 -1.15967 26.2416 -1.15967 37.5566H1.23568ZM8.58656 11.5469C13.4739 5.11617 20.1978 1.89319 28.899 1.89319V-0.502157C19.5073 -0.502157 12.0538 3.02599 6.67947 10.0975L8.58656 11.5469ZM28.899 1.89319C37.6001 1.89319 44.2868 5.11564 49.1057 11.5408L51.0219 10.1036C45.7141 3.02651 38.291 -0.502157 28.899 -0.502157V1.89319ZM49.1138 11.5515C54.0391 17.9673 56.5624 26.5962 56.5624 37.5566H58.9577C58.9577 26.2384 56.3502 17.0443 51.0138 10.0929L49.1138 11.5515ZM56.5624 37.5566C56.5624 48.5163 54.0394 57.182 49.1103 63.6676L51.0173 65.117C56.3499 58.1004 58.9577 48.8756 58.9577 37.5566H56.5624ZM15.043 37.5566C15.043 44.6587 16.1031 50.1845 18.3787 53.9712C20.7129 57.8552 24.2747 59.8178 28.899 59.8178V57.4224C25.0844 57.4224 22.3171 55.8744 20.4318 52.7373C18.488 49.5029 17.4384 44.4969 17.4384 37.5566H15.043ZM28.899 59.8178C33.5233 59.8178 37.0852 57.8552 39.4194 53.9712C41.695 50.1845 42.7551 44.6587 42.7551 37.5566H40.3597C40.3597 44.4969 39.31 49.5029 37.3662 52.7373C35.481 55.8744 32.7136 57.4224 28.899 57.4224V59.8178ZM42.7551 37.5566C42.7551 30.4546 41.695 24.9288 39.4194 21.1421C37.0852 17.258 33.5233 15.2955 28.899 15.2955V17.6908C32.7136 17.6908 35.481 19.2388 37.3662 22.3759C39.31 25.6104 40.3597 30.6163 40.3597 37.5566H42.7551ZM28.899 15.2955C24.2747 15.2955 20.7129 17.258 18.3787 21.1421C16.1031 24.9288 15.043 30.4546 15.043 37.5566H17.4384C17.4384 30.6163 18.488 25.6104 20.4318 22.3759C22.3171 19.2388 25.0844 17.6908 28.899 17.6908V15.2955ZM95.2905 30.873L94.3487 30.1331L93.3073 31.4585L94.9016 32.0058L95.2905 30.873ZM106.227 38.468L105.287 39.2096L105.294 39.2184L106.227 38.468ZM102.885 68.1392L102.116 67.2212L102.885 68.1392ZM69.4675 70.5696L68.863 71.6036L68.8699 71.6075L69.4675 70.5696ZM59.7458 59.2277L59.1452 58.1916L58.2344 58.7195L58.6412 59.6905L59.7458 59.2277ZM73.7207 51.1264L74.8506 50.7294L74.3712 49.3649L73.12 50.0902L73.7207 51.1264ZM91.7461 56.3923L92.5554 57.2751L91.7461 56.3923ZM91.7461 45.0504L92.5555 44.1675H92.5554L91.7461 45.0504ZM81.2144 42.8225L80.2196 43.4894L80.5754 44.0202H81.2144V42.8225ZM75.0371 33.6072L74.0968 32.8655L73.5569 33.5499L74.0423 34.2741L75.0371 33.6072ZM87.898 17.3033L88.8383 18.045L90.3682 16.1056H87.898V17.3033ZM61.9737 17.3033H60.776V18.5009H61.9737V17.3033ZM61.9737 2.11325V0.915577H60.776V2.11325H61.9737ZM107.544 2.11325H108.741V0.915577H107.544V2.11325ZM107.544 15.2779L108.486 16.0179L108.741 15.6922V15.2779H107.544ZM94.9016 32.0058C99.2231 33.4893 102.671 35.8924 105.287 39.2096L107.168 37.7265C104.247 34.0225 100.404 31.3623 95.6794 29.7402L94.9016 32.0058ZM105.294 39.2184C107.878 42.4334 109.182 46.248 109.182 50.7213H111.577C111.577 45.743 110.112 41.3888 107.161 37.7176L105.294 39.2184ZM109.182 50.7213C109.182 57.8485 106.801 63.2963 102.116 67.2212L103.655 69.0572C108.962 64.6107 111.577 58.4465 111.577 50.7213H109.182ZM102.116 67.2212C97.3598 71.2063 91.5312 73.2201 84.5562 73.2201V75.6154C92.0286 75.6154 98.4195 73.4434 103.655 69.0572L102.116 67.2212ZM84.5562 73.2201C79.1431 73.2201 74.3229 71.9832 70.065 69.5317L68.8699 71.6075C73.5235 74.2869 78.7624 75.6154 84.5562 75.6154V73.2201ZM70.0719 69.5357C65.9231 67.1102 62.85 63.5379 60.8505 58.765L58.6412 59.6905C60.8274 64.9092 64.2353 68.8981 68.863 71.6035L70.0719 69.5357ZM60.3465 60.2639L74.3213 52.1625L73.12 50.0902L59.1452 58.1916L60.3465 60.2639ZM72.5907 51.5234C73.5345 54.2095 75.0111 56.3114 77.0648 57.7317C79.1152 59.1498 81.6387 59.8178 84.5562 59.8178V57.4224C82.0053 57.4224 79.9887 56.8415 78.4273 55.7616C76.8691 54.684 75.6621 53.039 74.8506 50.7294L72.5907 51.5234ZM84.5562 59.8178C87.8972 59.8178 90.6334 59.037 92.5554 57.2751L90.9369 55.5094C89.6184 56.718 87.5612 57.4224 84.5562 57.4224V59.8178ZM92.5554 57.2751C94.4353 55.5519 95.3742 53.3356 95.3742 50.7213H92.9789C92.9789 52.6978 92.2975 54.2621 90.9369 55.5094L92.5554 57.2751ZM95.3742 50.7213C95.3742 48.107 94.4353 45.8907 92.5555 44.1675L90.9369 45.9332C92.2975 47.1805 92.9789 48.7448 92.9789 50.7213H95.3742ZM92.5554 44.1675C90.6334 42.4056 87.8972 41.6248 84.5562 41.6248V44.0202C87.5612 44.0202 89.6184 44.7246 90.9369 45.9332L92.5554 44.1675ZM84.5562 41.6248H81.2144V44.0202H84.5562V41.6248ZM82.2092 42.1556L76.032 32.9403L74.0423 34.2741L80.2196 43.4894L82.2092 42.1556ZM75.9775 34.349L88.8383 18.045L86.9577 16.5615L74.0968 32.8655L75.9775 34.349ZM87.898 16.1056H61.9737V18.5009H87.898V16.1056ZM63.1714 17.3033V2.11325H60.776V17.3033H63.1714ZM61.9737 3.31093H107.544V0.915577H61.9737V3.31093ZM106.346 2.11325V15.2779H108.741V2.11325H106.346ZM106.602 14.538L94.3487 30.1331L96.2322 31.613L108.486 16.0179L106.602 14.538Z" fill="url(#paint0_linear_1_2566)" fill-opacity="0.23"/>
<defs>
<linearGradient id="paint0_linear_1_2566" x1="55.5" y1="-24" x2="17.5998" y2="100.826" gradientUnits="userSpaceOnUse">
<stop/>
<stop offset="0.9105" stop-color="#25FFCB"/>
<stop offset="0.9999" stop-color="#3C4E49"/>
</linearGradient>
</defs>
</svg>
