<svg width="119" height="75" viewBox="0 0 119 75" fill="none" xmlns="http://www.w3.org/2000/svg">
<path d="M50.0638 64.3923L49.1103 63.6676L49.1091 63.6691L50.0638 64.3923ZM7.63301 64.3923L6.67481 65.111L6.68299 65.1216L7.63301 64.3923ZM7.63301 10.8222L6.67947 10.0975L6.67836 10.099L7.63301 10.8222ZM50.0638 10.8222L49.1056 11.5408L49.1138 11.5515L50.0638 10.8222ZM49.1091 63.6691C44.2921 70.0275 37.6049 73.2201 28.899 73.2201V75.6154C38.2862 75.6154 45.7088 72.1243 51.0185 65.1155L49.1091 63.6691ZM28.899 73.2201C20.1931 73.2201 13.4686 70.0271 8.58303 63.663L6.68299 65.1216C12.0592 72.1248 19.512 75.6154 28.899 75.6154V73.2201ZM8.59115 63.6737C3.72649 57.1875 1.23568 48.5195 1.23568 37.5566H-1.15967C-1.15967 48.8725 1.41286 58.0949 6.67487 65.1109L8.59115 63.6737ZM1.23568 37.5566C1.23568 26.593 3.72678 17.9618 8.58767 11.5454L6.67836 10.099C1.41256 17.0498 -1.15967 26.2416 -1.15967 37.5566H1.23568ZM8.58656 11.5469C13.4739 5.11617 20.1978 1.89319 28.899 1.89319V-0.502157C19.5073 -0.502157 12.0538 3.02599 6.67947 10.0975L8.58656 11.5469ZM28.899 1.89319C37.6001 1.89319 44.2868 5.11564 49.1057 11.5408L51.0219 10.1036C45.7141 3.02651 38.291 -0.502157 28.899 -0.502157V1.89319ZM49.1138 11.5515C54.0391 17.9673 56.5624 26.5962 56.5624 37.5566H58.9577C58.9577 26.2384 56.3502 17.0443 51.0138 10.0929L49.1138 11.5515ZM56.5624 37.5566C56.5624 48.5163 54.0394 57.182 49.1103 63.6676L51.0173 65.117C56.3499 58.1004 58.9577 48.8756 58.9577 37.5566H56.5624ZM15.043 37.5566C15.043 44.6587 16.1031 50.1845 18.3787 53.9712C20.7129 57.8552 24.2747 59.8178 28.899 59.8178V57.4224C25.0844 57.4224 22.3171 55.8744 20.4318 52.7373C18.488 49.5029 17.4384 44.4969 17.4384 37.5566H15.043ZM28.899 59.8178C33.5233 59.8178 37.0852 57.8552 39.4194 53.9712C41.695 50.1845 42.7551 44.6587 42.7551 37.5566H40.3597C40.3597 44.4969 39.31 49.5029 37.3662 52.7373C35.481 55.8744 32.7136 57.4224 28.899 57.4224V59.8178ZM42.7551 37.5566C42.7551 30.4546 41.695 24.9288 39.4194 21.1421C37.0852 17.258 33.5233 15.2955 28.899 15.2955V17.6908C32.7136 17.6908 35.481 19.2388 37.3662 22.3759C39.31 25.6104 40.3597 30.6163 40.3597 37.5566H42.7551ZM28.899 15.2955C24.2747 15.2955 20.7129 17.258 18.3787 21.1421C16.1031 24.9288 15.043 30.4546 15.043 37.5566H17.4384C17.4384 30.6163 18.488 25.6104 20.4318 22.3759C22.3171 19.2388 25.0844 17.6908 28.899 17.6908V15.2955ZM118.508 46.6706H119.706V45.473H118.508V46.6706ZM118.508 61.6581V62.8558H119.706V61.6581H118.508ZM111.42 61.6581V60.4604H110.222V61.6581H111.42ZM111.42 73V74.1977H112.617V73H111.42ZM95.0144 73H93.8167V74.1977H95.0144V73ZM95.0144 61.6581H96.2121V60.4604H95.0144V61.6581ZM62.8115 61.6581H61.6139V62.8558H62.8115V61.6581ZM62.8115 46.6706L61.7432 46.1292L61.6139 46.3845V46.6706H62.8115ZM85.394 2.11325V0.915577H84.6583L84.3257 1.57182L85.394 2.11325ZM102.812 2.11325L103.88 2.65469L104.762 0.915577H102.812V2.11325ZM80.2294 46.6706L79.1611 46.1292L78.2797 47.8683H80.2294V46.6706ZM95.0144 46.6706V47.8683H96.2121V46.6706H95.0144ZM95.0144 31.4806V30.2829H93.8167V31.4806H95.0144ZM111.42 31.4806H112.617V30.2829H111.42V31.4806ZM111.42 46.6706H110.222V47.8683H111.42V46.6706ZM117.311 46.6706V61.6581H119.706V46.6706H117.311ZM118.508 60.4604H111.42V62.8558H118.508V60.4604ZM110.222 61.6581V73H112.617V61.6581H110.222ZM111.42 71.8023H95.0144V74.1977H111.42V71.8023ZM96.2121 73V61.6581H93.8167V73H96.2121ZM95.0144 60.4604H62.8115V62.8558H95.0144V60.4604ZM64.0092 61.6581V46.6706H61.6139V61.6581H64.0092ZM63.8798 47.2121L86.4623 2.65469L84.3257 1.57182L61.7432 46.1292L63.8798 47.2121ZM85.394 3.31093H102.812V0.915577H85.394V3.31093ZM101.744 1.57182L79.1611 46.1292L81.2977 47.2121L103.88 2.65469L101.744 1.57182ZM80.2294 47.8683H95.0144V45.473H80.2294V47.8683ZM96.2121 46.6706V31.4806H93.8167V46.6706H96.2121ZM95.0144 32.6783H111.42V30.2829H95.0144V32.6783ZM110.222 31.4806V46.6706H112.617V31.4806H110.222ZM111.42 47.8683H118.508V45.473H111.42V47.8683Z" fill="url(#paint0_linear_1_1302)" fill-opacity="0.23"/>
<defs>
<linearGradient id="paint0_linear_1_1302" x1="58.5" y1="-24" x2="22.1566" y2="101.837" gradientUnits="userSpaceOnUse">
<stop/>
<stop offset="0.9105" stop-color="#25FFCB"/>
<stop offset="0.9999" stop-color="#3C4E49"/>
</linearGradient>
</defs>
</svg>
