<svg width="113" height="75" viewBox="0 0 113 75" fill="none" xmlns="http://www.w3.org/2000/svg">
<path d="M50.0638 64.3923L49.1103 63.6676L49.1091 63.6691L50.0638 64.3923ZM7.63301 64.3923L6.67481 65.111L6.68299 65.1216L7.63301 64.3923ZM7.63301 10.8222L6.67947 10.0975L6.67836 10.099L7.63301 10.8222ZM50.0638 10.8222L49.1056 11.5408L49.1138 11.5515L50.0638 10.8222ZM49.1091 63.6691C44.2921 70.0275 37.6049 73.2201 28.899 73.2201V75.6154C38.2862 75.6154 45.7088 72.1243 51.0185 65.1155L49.1091 63.6691ZM28.899 73.2201C20.1931 73.2201 13.4686 70.0271 8.58303 63.663L6.68299 65.1216C12.0592 72.1248 19.512 75.6154 28.899 75.6154V73.2201ZM8.59115 63.6737C3.72649 57.1875 1.23568 48.5195 1.23568 37.5566H-1.15967C-1.15967 48.8725 1.41286 58.0949 6.67487 65.1109L8.59115 63.6737ZM1.23568 37.5566C1.23568 26.593 3.72678 17.9618 8.58767 11.5454L6.67836 10.099C1.41256 17.0498 -1.15967 26.2416 -1.15967 37.5566H1.23568ZM8.58656 11.5469C13.4739 5.11617 20.1978 1.89319 28.899 1.89319V-0.502157C19.5073 -0.502157 12.0538 3.02599 6.67947 10.0975L8.58656 11.5469ZM28.899 1.89319C37.6001 1.89319 44.2868 5.11564 49.1057 11.5408L51.0219 10.1036C45.7141 3.02651 38.291 -0.502157 28.899 -0.502157V1.89319ZM49.1138 11.5515C54.0391 17.9673 56.5624 26.5962 56.5624 37.5566H58.9577C58.9577 26.2384 56.3502 17.0443 51.0138 10.0929L49.1138 11.5515ZM56.5624 37.5566C56.5624 48.5163 54.0394 57.182 49.1103 63.6676L51.0173 65.117C56.3499 58.1004 58.9577 48.8756 58.9577 37.5566H56.5624ZM15.043 37.5566C15.043 44.6587 16.1031 50.1845 18.3787 53.9712C20.7129 57.8552 24.2747 59.8178 28.899 59.8178V57.4224C25.0844 57.4224 22.3171 55.8744 20.4318 52.7373C18.488 49.5029 17.4384 44.4969 17.4384 37.5566H15.043ZM28.899 59.8178C33.5233 59.8178 37.0852 57.8552 39.4194 53.9712C41.695 50.1845 42.7551 44.6587 42.7551 37.5566H40.3597C40.3597 44.4969 39.31 49.5029 37.3662 52.7373C35.481 55.8744 32.7136 57.4224 28.899 57.4224V59.8178ZM42.7551 37.5566C42.7551 30.4546 41.695 24.9288 39.4194 21.1421C37.0852 17.258 33.5233 15.2955 28.899 15.2955V17.6908C32.7136 17.6908 35.481 19.2388 37.3662 22.3759C39.31 25.6104 40.3597 30.6163 40.3597 37.5566H42.7551ZM28.899 15.2955C24.2747 15.2955 20.7129 17.258 18.3787 21.1421C16.1031 24.9288 15.043 30.4546 15.043 37.5566H17.4384C17.4384 30.6163 18.488 25.6104 20.4318 22.3759C22.3171 19.2388 25.0844 17.6908 28.899 17.6908V15.2955ZM105.975 33.3034L105.168 34.1884L105.175 34.1946L105.182 34.2007L105.975 33.3034ZM105.469 68.1392L106.238 69.0572L105.469 68.1392ZM71.6455 70.6709L71.0478 71.7089L71.0598 71.7156L71.6455 70.6709ZM61.8226 59.2277L61.2219 58.1916L60.3156 58.717L60.7158 59.6852L61.8226 59.2277ZM75.7974 51.1264L76.9274 50.7294L76.448 49.3649L75.1967 50.0902L75.7974 51.1264ZM94.3292 56.3923L95.1385 57.2751L94.3292 56.3923ZM94.4305 45.0504L95.2584 44.1849L94.4305 45.0504ZM65.4682 42.8225L64.2736 42.7363L64.181 44.0202H65.4682V42.8225ZM68.4049 2.11325V0.915577H67.2906L67.2104 2.02708L68.4049 2.11325ZM109.418 2.11325H110.616V0.915577H109.418V2.11325ZM109.418 17.3033V18.5009H110.616V17.3033H109.418ZM83.595 17.3033V16.1056H82.4814L82.4005 17.2162L83.595 17.3033ZM82.8861 27.0249L81.6916 26.9378L81.5979 28.2226H82.8861V27.0249ZM88.6583 28.2226C95.3518 28.2226 100.825 30.2284 105.168 34.1884L106.782 32.4184C101.944 28.0071 95.8721 25.8272 88.6583 25.8272V28.2226ZM105.182 34.2007C109.53 38.0452 111.765 43.494 111.765 50.7213H114.16C114.16 42.9612 111.736 36.798 106.768 32.4061L105.182 34.2007ZM111.765 50.7213C111.765 57.8485 109.384 63.2963 104.699 67.2212L106.238 69.0572C111.545 64.6107 114.16 58.4465 114.16 50.7213H111.765ZM104.699 67.2212C99.9429 71.2063 94.1143 73.2201 87.1393 73.2201V75.6154C94.6117 75.6154 101.003 73.4434 106.238 69.0572L104.699 67.2212ZM87.1393 73.2201C81.4398 73.2201 76.4827 72.0096 72.2311 69.6262L71.0598 71.7156C75.7197 74.328 81.0918 75.6154 87.1393 75.6154V73.2201ZM72.2431 69.6329C68.0321 67.2084 64.9284 63.6063 62.9295 58.7702L60.7158 59.6852C62.9025 64.9758 66.3474 69.0025 71.0479 71.7088L72.2431 69.6329ZM62.4233 60.2639L76.3981 52.1625L75.1967 50.0902L61.2219 58.1916L62.4233 60.2639ZM74.6675 51.5234C75.6166 54.2248 77.1454 56.3295 79.2891 57.7459C81.4237 59.1563 84.0671 59.8178 87.1393 59.8178V57.4224C84.4055 57.4224 82.2557 56.835 80.6096 55.7474C78.9727 54.6659 77.7335 53.0238 76.9274 50.7294L74.6675 51.5234ZM87.1393 59.8178C90.4803 59.8178 93.2165 59.037 95.1385 57.2751L93.5199 55.5094C92.2015 56.718 90.1443 57.4224 87.1393 57.4224V59.8178ZM95.1385 57.2751C97.0184 55.5519 97.9573 53.3356 97.9573 50.7213H95.562C95.562 52.6978 94.8806 54.2621 93.5199 55.5094L95.1385 57.2751ZM97.9573 50.7213C97.9573 48.1239 97.0647 45.9127 95.2584 44.1849L93.6026 45.9159C94.9018 47.1585 95.562 48.7279 95.562 50.7213H97.9573ZM95.2584 44.1849C93.4092 42.4161 90.8051 41.6248 87.6456 41.6248V44.0202C90.4272 44.0202 92.3463 44.7141 93.6026 45.9159L95.2584 44.1849ZM87.6456 41.6248H65.4682V44.0202H87.6456V41.6248ZM66.6628 42.9087L69.5995 2.19943L67.2104 2.02708L64.2736 42.7363L66.6628 42.9087ZM68.4049 3.31093H109.418V0.915577H68.4049V3.31093ZM108.22 2.11325V17.3033H110.616V2.11325H108.22ZM109.418 16.1056H83.595V18.5009H109.418V16.1056ZM82.4005 17.2162L81.6916 26.9378L84.0806 27.112L84.7895 17.3904L82.4005 17.2162ZM82.8861 28.2226H88.6583V25.8272H82.8861V28.2226Z" fill="url(#paint0_linear_1_1622)" fill-opacity="0.23"/>
<defs>
<linearGradient id="paint0_linear_1_1622" x1="56.5" y1="-24" x2="19.1317" y2="101.178" gradientUnits="userSpaceOnUse">
<stop/>
<stop offset="0.9105" stop-color="#25FFCB"/>
<stop offset="0.9999" stop-color="#3C4E49"/>
</linearGradient>
</defs>
</svg>
