<svg width="116" height="75" viewBox="0 0 116 75" fill="none" xmlns="http://www.w3.org/2000/svg">
<path d="M50.0638 64.3923L49.1103 63.6676L49.1091 63.6691L50.0638 64.3923ZM7.63301 64.3923L6.67481 65.111L6.68299 65.1216L7.63301 64.3923ZM7.63301 10.8222L6.67947 10.0975L6.67836 10.099L7.63301 10.8222ZM50.0638 10.8222L49.1056 11.5408L49.1138 11.5515L50.0638 10.8222ZM49.1091 63.6691C44.2921 70.0275 37.6049 73.2201 28.899 73.2201V75.6154C38.2862 75.6154 45.7088 72.1243 51.0185 65.1155L49.1091 63.6691ZM28.899 73.2201C20.1931 73.2201 13.4686 70.0271 8.58303 63.663L6.68299 65.1216C12.0592 72.1248 19.512 75.6154 28.899 75.6154V73.2201ZM8.59115 63.6737C3.72649 57.1875 1.23568 48.5195 1.23568 37.5566H-1.15967C-1.15967 48.8725 1.41286 58.0949 6.67487 65.1109L8.59115 63.6737ZM1.23568 37.5566C1.23568 26.593 3.72678 17.9618 8.58767 11.5454L6.67836 10.099C1.41256 17.0498 -1.15967 26.2416 -1.15967 37.5566H1.23568ZM8.58656 11.5469C13.4739 5.11617 20.1978 1.89319 28.899 1.89319V-0.502157C19.5073 -0.502157 12.0538 3.02599 6.67947 10.0975L8.58656 11.5469ZM28.899 1.89319C37.6001 1.89319 44.2868 5.11564 49.1057 11.5408L51.0219 10.1036C45.7141 3.02651 38.291 -0.502157 28.899 -0.502157V1.89319ZM49.1138 11.5515C54.0391 17.9673 56.5624 26.5962 56.5624 37.5566H58.9577C58.9577 26.2384 56.3502 17.0443 51.0138 10.0929L49.1138 11.5515ZM56.5624 37.5566C56.5624 48.5163 54.0394 57.182 49.1103 63.6676L51.0173 65.117C56.3499 58.1004 58.9577 48.8756 58.9577 37.5566H56.5624ZM15.043 37.5566C15.043 44.6587 16.1031 50.1845 18.3787 53.9712C20.7129 57.8552 24.2747 59.8178 28.899 59.8178V57.4224C25.0844 57.4224 22.3171 55.8744 20.4318 52.7373C18.488 49.5029 17.4384 44.4969 17.4384 37.5566H15.043ZM28.899 59.8178C33.5233 59.8178 37.0852 57.8552 39.4194 53.9712C41.695 50.1845 42.7551 44.6587 42.7551 37.5566H40.3597C40.3597 44.4969 39.31 49.5029 37.3662 52.7373C35.481 55.8744 32.7136 57.4224 28.899 57.4224V59.8178ZM42.7551 37.5566C42.7551 30.4546 41.695 24.9288 39.4194 21.1421C37.0852 17.258 33.5233 15.2955 28.899 15.2955V17.6908C32.7136 17.6908 35.481 19.2388 37.3662 22.3759C39.31 25.6104 40.3597 30.6163 40.3597 37.5566H42.7551ZM28.899 15.2955C24.2747 15.2955 20.7129 17.258 18.3787 21.1421C16.1031 24.9288 15.043 30.4546 15.043 37.5566H17.4384C17.4384 30.6163 18.488 25.6104 20.4318 22.3759C22.3171 19.2388 25.0844 17.6908 28.899 17.6908V15.2955ZM91.8751 24.4932L90.8883 23.8145L89.7099 25.5279L91.7832 25.6874L91.8751 24.4932ZM108.888 32.1895L108.016 33.0104L108.022 33.0171L108.888 32.1895ZM108.078 67.4303L107.255 66.5599L107.249 66.5656L108.078 67.4303ZM70.1027 67.4303L70.9314 66.5656L70.1027 67.4303ZM66.9635 35.025L67.9575 35.6931L67.9638 35.6836L66.9635 35.025ZM88.6346 2.11325V0.915577H87.9892L87.6343 1.45459L88.6346 2.11325ZM107.268 2.11325L108.254 2.79196L109.545 0.915577H107.268V2.11325ZM81.951 56.5948L81.1515 57.4865L81.951 56.5948ZM96.3308 56.5948L97.1303 57.4865L97.1387 57.479L97.147 57.4714L96.3308 56.5948ZM96.3308 42.3162L95.5147 43.1927L95.523 43.2004L95.5313 43.2079L96.3308 42.3162ZM91.7832 25.6874C98.5444 26.2075 103.924 28.6628 108.016 33.0103L109.76 31.3686C105.21 26.5346 99.2481 23.8592 91.967 23.2991L91.7832 25.6874ZM108.022 33.0171C112.178 37.3652 114.273 42.7985 114.273 49.4048H116.668C116.668 42.2389 114.374 36.1953 109.754 31.3619L108.022 33.0171ZM114.273 49.4048C114.273 56.4654 111.922 62.1485 107.255 66.5599L108.9 68.3007C114.09 63.3956 116.668 57.0617 116.668 49.4048H114.273ZM107.249 66.5656C102.646 70.9774 96.6468 73.2201 89.1409 73.2201V75.6154C97.1626 75.6154 103.788 73.1998 108.906 68.295L107.249 66.5656ZM89.1409 73.2201C81.5643 73.2201 75.533 70.9755 70.9314 66.5656L69.2741 68.295C74.3941 73.2017 81.0549 75.6154 89.1409 75.6154V73.2201ZM70.9314 66.5656C66.3296 62.1555 64.0092 56.4707 64.0092 49.4048H61.6139C61.6139 57.0564 64.1543 63.3886 69.2741 68.295L70.9314 66.5656ZM64.0092 49.4048C64.0092 44.1491 65.3357 39.5937 67.9575 35.6931L65.9695 34.3568C63.0553 38.6926 61.6139 43.7237 61.6139 49.4048H64.0092ZM67.9638 35.6836L89.6349 2.77191L87.6343 1.45459L65.9632 34.3663L67.9638 35.6836ZM88.6346 3.31093H107.268V0.915577H88.6346V3.31093ZM106.281 1.43455L90.8883 23.8145L92.8619 25.1719L108.254 2.79196L106.281 1.43455ZM81.1515 57.4865C83.347 59.455 86.0355 60.4254 89.1409 60.4254V58.03C86.5754 58.03 84.4706 57.2452 82.7505 55.703L81.1515 57.4865ZM89.1409 60.4254C92.2463 60.4254 94.9348 59.455 97.1303 57.4865L95.5313 55.703C93.8112 57.2452 91.7064 58.03 89.1409 58.03V60.4254ZM97.147 57.4714C99.3764 55.3957 100.465 52.6671 100.465 49.4048H98.0699C98.0699 52.0835 97.2009 54.1483 95.5147 55.7182L97.147 57.4714ZM100.465 49.4048C100.465 46.143 99.3759 43.4377 97.1303 41.4244L95.5313 43.2079C97.2015 44.7053 98.0699 46.7257 98.0699 49.4048H100.465ZM97.147 41.4396C94.9533 39.3972 92.2593 38.3843 89.1409 38.3843V40.7796C91.6935 40.7796 93.7927 41.5895 95.5147 43.1927L97.147 41.4396ZM89.1409 38.3843C86.0355 38.3843 83.347 39.3547 81.1515 41.3231L82.7505 43.1067C84.4706 41.5645 86.5754 40.7796 89.1409 40.7796V38.3843ZM81.1515 41.3231C78.8999 43.3418 77.8166 46.0848 77.8166 49.4048H80.2119C80.2119 46.6489 81.0864 44.5986 82.7505 43.1067L81.1515 41.3231ZM77.8166 49.4048C77.8166 52.7249 78.8999 55.4679 81.1515 57.4865L82.7505 55.703C81.0864 54.2111 80.2119 52.1608 80.2119 49.4048H77.8166Z" fill="url(#paint0_linear_1_1974)" fill-opacity="0.23"/>
<defs>
<linearGradient id="paint0_linear_1_1974" x1="57.5" y1="-24" x2="20.6505" y2="101.515" gradientUnits="userSpaceOnUse">
<stop/>
<stop offset="0.9105" stop-color="#25FFCB"/>
<stop offset="0.9999" stop-color="#3C4E49"/>
</linearGradient>
</defs>
</svg>
