<svg width="34" height="34" viewBox="0 0 34 34" fill="none" xmlns="http://www.w3.org/2000/svg">
<path d="M16.9997 19.3328L21.833 24.1661C22.1386 24.4717 22.5275 24.6244 22.9997 24.6244C23.4719 24.6244 23.8608 24.4717 24.1663 24.1661C24.4719 23.8605 24.6247 23.4717 24.6247 22.9994C24.6247 22.5272 24.4719 22.1383 24.1663 21.8328L19.333 16.9994L24.1663 12.1661C24.4719 11.8605 24.6247 11.4717 24.6247 10.9994C24.6247 10.5272 24.4719 10.1383 24.1663 9.83276C23.8608 9.52721 23.4719 9.37443 22.9997 9.37443C22.5275 9.37443 22.1386 9.52721 21.833 9.83276L16.9997 14.6661L12.1663 9.83276C11.8608 9.52721 11.4719 9.37443 10.9997 9.37443C10.5275 9.37443 10.1386 9.52721 9.83301 9.83276C9.52745 10.1383 9.37467 10.5272 9.37467 10.9994C9.37467 11.4717 9.52745 11.8605 9.83301 12.1661L14.6663 16.9994L9.83301 21.8328C9.52745 22.1383 9.37467 22.5272 9.37467 22.9994C9.37467 23.4717 9.52745 23.8605 9.83301 24.1661C10.1386 24.4717 10.5275 24.6244 10.9997 24.6244C11.4719 24.6244 11.8608 24.4717 12.1663 24.1661L16.9997 19.3328ZM16.9997 33.6661C14.6941 33.6661 12.5275 33.2286 10.4997 32.3536C8.4719 31.4786 6.70801 30.2911 5.20801 28.7911C3.70801 27.2911 2.52051 25.5272 1.64551 23.4994C0.770508 21.4717 0.333008 19.305 0.333008 16.9994C0.333008 14.6939 0.770508 12.5272 1.64551 10.4994C2.52051 8.47165 3.70801 6.70776 5.20801 5.20776C6.70801 3.70776 8.4719 2.52026 10.4997 1.64526C12.5275 0.770264 14.6941 0.332764 16.9997 0.332764C19.3052 0.332764 21.4719 0.770264 23.4997 1.64526C25.5275 2.52026 27.2913 3.70776 28.7913 5.20776C30.2913 6.70776 31.4788 8.47165 32.3538 10.4994C33.2288 12.5272 33.6663 14.6939 33.6663 16.9994C33.6663 19.305 33.2288 21.4717 32.3538 23.4994C31.4788 25.5272 30.2913 27.2911 28.7913 28.7911C27.2913 30.2911 25.5275 31.4786 23.4997 32.3536C21.4719 33.2286 19.3052 33.6661 16.9997 33.6661Z" fill="#0EC79B"/>
</svg>
