<svg width="312" height="312" viewBox="0 0 312 312" fill="none" xmlns="http://www.w3.org/2000/svg">
<path d="M10.4938 132.804C11.2687 132.337 12.1026 131.975 12.9734 131.729L13.4819 129.281L17.622 129.204L18.234 131.639C19.1113 131.854 19.9558 132.185 20.7451 132.624L22.8376 131.274L25.8167 134.154L24.5207 136.292C24.9881 137.065 25.3498 137.898 25.5962 138.767L28.0443 139.28L28.1208 143.42L25.6862 144.014C25.4721 144.893 25.1406 145.739 24.7007 146.53L26.0507 148.622L23.1841 151.579L21.0466 150.283C20.2723 150.748 19.4402 151.11 18.5715 151.358L18.0585 153.806L13.9184 153.878L13.3244 151.448C12.4453 151.232 11.5991 150.899 10.8088 150.458L8.71175 151.817L5.73267 148.942L7.0287 146.804C6.56308 146.028 6.20147 145.195 5.95317 144.325L3.50511 143.816L3.43311 139.676L5.86317 139.077C6.08009 138.201 6.41144 137.356 6.8487 136.566L5.49866 134.474L8.37424 131.495L10.5118 132.791L10.4938 132.804ZM12.7034 138.317C12.0957 138.95 11.6891 139.748 11.5348 140.612C11.3804 141.475 11.4853 142.365 11.8361 143.169C12.1869 143.973 12.768 144.656 13.5061 145.13C14.2441 145.604 15.1061 145.849 15.9832 145.834C16.8604 145.819 17.7134 145.545 18.4348 145.045C19.1562 144.546 19.7135 143.844 20.0366 143.029C20.3597 142.213 20.4339 141.32 20.2501 140.462C20.0662 139.605 19.6325 138.82 19.0035 138.209C18.5837 137.801 18.0872 137.479 17.5427 137.264C16.9983 137.048 16.4165 136.942 15.831 136.952C15.2454 136.962 14.6677 137.088 14.1309 137.322C13.5941 137.556 13.109 137.894 12.7034 138.317Z" fill="#EBEBEB"/>
<path d="M16.5915 72.8745C17.3663 72.407 18.2002 72.0453 19.071 71.799L19.584 69.3464L23.7241 69.2744L24.3182 71.7135C25.195 71.932 26.0392 72.2648 26.8292 72.7035L28.9218 71.331L31.9009 74.211L30.6048 76.3486C31.0722 77.1219 31.4339 77.9543 31.6804 78.8237L34.1329 79.3367L34.2049 83.4768L31.7704 84.0708C31.5555 84.9424 31.224 85.781 30.7848 86.5639L32.1349 88.6609L29.2548 91.64L27.1172 90.3395C26.3449 90.8087 25.5122 91.1706 24.6422 91.415L24.1292 93.8676L19.989 93.9396L19.4175 91.514C18.539 91.2963 17.6932 90.9634 16.902 90.524L14.8094 91.874L11.8303 88.9984L13.1309 86.8564C12.662 86.0832 12.2988 85.2508 12.0508 84.3813L9.60276 83.8728L9.53076 79.7327L11.9608 79.1342C12.18 78.2705 12.5129 77.4397 12.9509 76.6636L11.6008 74.5711L14.4539 71.5785L16.5915 72.8745ZM18.801 78.3917C18.1939 79.0249 17.7878 79.8237 17.6341 80.6874C17.4804 81.5511 17.5859 82.441 17.9373 83.2448C18.2887 84.0487 18.8703 84.7304 19.6086 85.2041C20.347 85.6778 21.2092 85.9223 22.0863 85.9066C22.9634 85.8909 23.8163 85.6159 24.5373 85.1161C25.2583 84.6163 25.8152 83.9143 26.1376 83.0984C26.4601 82.2825 26.5338 81.3895 26.3493 80.5318C26.1649 79.6741 25.7306 78.8903 25.1012 78.2792C24.6813 77.8706 24.1847 77.5493 23.64 77.3337C23.0954 77.1181 22.5134 77.0124 21.9277 77.0229C21.3419 77.0333 20.7641 77.1597 20.2275 77.3946C19.6908 77.6295 19.206 77.9684 18.801 78.3917Z" fill="#EBEBEB"/>
<path d="M106.95 96.1176C107.883 95.5523 108.888 95.1149 109.938 94.8171L110.554 91.856L115.554 91.7705L116.274 94.7046C117.334 94.9649 118.354 95.366 119.307 95.8971L121.836 94.2411L125.436 97.7152L123.87 100.298C124.434 101.233 124.871 102.237 125.171 103.286L128.127 103.903L128.217 108.902L125.279 109.622C125.02 110.683 124.619 111.703 124.086 112.656L125.742 115.185L122.273 118.785L119.689 117.219C118.754 117.782 117.747 118.22 116.697 118.519L116.08 121.476L111.081 121.566L110.361 118.627C109.301 118.367 108.281 117.966 107.328 117.435L104.803 119.091L101.203 115.617L102.769 113.034C102.203 112.101 101.765 111.096 101.468 110.045L98.5074 109.429L98.4219 104.429L101.356 103.709C101.62 102.651 102.021 101.631 102.548 100.676L100.892 98.1517L104.367 94.5516L106.95 96.1221V96.1176ZM109.614 102.764C108.877 103.527 108.383 104.492 108.194 105.536C108.005 106.58 108.13 107.656 108.553 108.629C108.976 109.602 109.678 110.427 110.57 111.001C111.462 111.575 112.504 111.872 113.565 111.854C114.625 111.835 115.657 111.503 116.529 110.899C117.4 110.294 118.073 109.445 118.463 108.458C118.852 107.472 118.94 106.391 118.715 105.355C118.49 104.318 117.964 103.371 117.201 102.634C116.177 101.646 114.803 101.104 113.38 101.129C111.958 101.153 110.603 101.742 109.614 102.764Z" fill="#EBEBEB"/>
<path d="M38.8624 63.6134C39.2535 63.3743 39.6761 63.191 40.118 63.0689L40.3745 61.8133L42.467 61.7773L42.7685 63.0059C43.2118 63.1156 43.6385 63.2836 44.0376 63.5054L45.0951 62.8124L46.5846 64.2794L45.9276 65.3639C46.1649 65.7544 46.3481 66.1752 46.4721 66.615L47.7097 66.8715L47.7457 68.964L46.5171 69.2655C46.409 69.7093 46.2409 70.1362 46.0176 70.5346L46.7106 71.5966L45.2571 73.0997L44.1771 72.4426C43.7872 72.681 43.3662 72.8643 42.926 72.9871L42.6695 74.2292L40.5725 74.2652L40.2845 73.0366C39.8413 72.9269 39.4145 72.7589 39.0154 72.5371L37.9579 73.2302L36.4504 71.7766L37.1344 70.6921C36.8929 70.3089 36.7023 69.8959 36.5674 69.4636L35.3343 69.1845L35.2983 67.092L36.5269 66.7905C36.6351 66.3468 36.8031 65.9198 37.0264 65.5214L36.3334 64.4594L37.7869 62.9564L38.8669 63.6134H38.8624ZM39.9785 66.399C39.6685 66.7187 39.4605 67.1232 39.3805 67.5613C39.3006 67.9993 39.3525 68.4513 39.5296 68.8598C39.7067 69.2684 40.001 69.6152 40.3753 69.8564C40.7496 70.0976 41.1871 70.2223 41.6323 70.2148C42.0776 70.2072 42.5105 70.0677 42.8764 69.8139C43.2423 69.5601 43.5247 69.2035 43.6878 68.7892C43.8509 68.3748 43.8874 67.9214 43.7926 67.4863C43.6979 67.0512 43.4762 66.654 43.1556 66.345C42.7267 65.9316 42.1514 65.7052 41.5558 65.7153C40.9603 65.7254 40.393 65.9713 39.9785 66.399Z" fill="#EBEBEB"/>
<path d="M285.829 222.334H269.471C274.259 206.052 275.348 175.533 274.547 155.313H280.564C280.249 175.461 281.703 205.818 285.829 222.334Z" fill="#EBEBEB"/>
<path d="M308.316 242.134C306.924 240.584 305.18 239.392 303.231 238.655C301.282 237.919 299.185 237.662 297.116 237.904C297.507 234.304 297.867 230.474 296.445 227.176C295.023 223.877 291.121 221.519 288.151 223.269C289.249 218.279 287.323 212.676 283.462 209.643C281.546 208.16 279.223 207.299 276.804 207.173C274.385 207.048 271.985 207.665 269.926 208.941C265.808 211.565 263.387 216.942 264.035 222.023C261.932 221.889 259.83 222.312 257.941 223.248C256.052 224.184 254.443 225.601 253.275 227.356C252.076 229.208 251.332 231.317 251.104 233.512C250.875 235.706 251.169 237.924 251.961 239.983C245.837 239.654 239.996 247.669 240.117 254.235L311.836 254.149C312.155 252.011 312.006 249.829 311.399 247.754C310.791 245.679 309.739 243.762 308.316 242.134Z" fill="#EBEBEB"/>
<path d="M272.216 125.31L286.023 130.071C289.069 133.198 287.022 137.613 284.448 139.309C285.387 139.762 286.158 140.502 286.65 141.421C287.142 142.341 287.329 143.393 287.183 144.426C287.038 145.458 286.568 146.418 285.842 147.166C285.116 147.915 284.17 148.413 283.143 148.589C283.486 149.103 283.717 149.685 283.82 150.295C283.923 150.904 283.897 151.529 283.743 152.128C283.588 152.727 283.309 153.287 282.924 153.771C282.539 154.255 282.056 154.652 281.507 154.937C280.958 155.222 280.354 155.388 279.737 155.424C279.119 155.46 278.501 155.365 277.923 155.146C277.344 154.927 276.818 154.589 276.379 154.153C275.94 153.717 275.598 153.193 275.375 152.616C274.795 151.091 275.069 149.291 274.25 147.882C273.476 146.564 271.951 145.929 270.704 145.038C267.617 142.833 266.204 138.738 266.654 134.971C267.104 131.205 269.341 127.798 272.216 125.31Z" fill="#EBEBEB"/>
<path d="M280.983 128.438C281.513 129.801 281.767 131.255 281.73 132.717C281.723 132.925 281.651 133.125 281.524 133.289C281.397 133.454 281.222 133.574 281.023 133.633C280.824 133.692 280.611 133.688 280.415 133.619C280.219 133.551 280.049 133.423 279.93 133.253C279.988 135.04 279.93 136.829 279.754 138.608C279.732 138.858 279.632 139.095 279.469 139.287C279.307 139.479 279.089 139.616 278.845 139.679C278.602 139.742 278.345 139.728 278.11 139.639C277.875 139.551 277.672 139.392 277.531 139.184C274.97 135.45 273.851 130.914 274.381 126.417L280.983 128.438Z" fill="#E0E0E0"/>
<path d="M267.289 111.792L267.212 111.85C265.065 113.575 263.333 115.76 262.144 118.244C260.954 120.728 260.338 123.447 260.34 126.201V129.698L267.284 124.869L267.289 111.792Z" fill="#E0E0E0"/>
<path d="M287.125 111.766L287.201 111.824C289.319 113.524 291.028 115.678 292.202 118.127C293.375 120.576 293.984 123.257 293.983 125.973V129.424L287.125 124.667V111.766Z" fill="#E0E0E0"/>
<path d="M277.194 77.5371C278.764 77.5371 281.653 81.5872 284.335 88.3779C285.925 92.3714 286.865 96.5933 287.121 100.884V130.072H267.298V103.584C267.284 101 267.516 98.4199 267.991 95.8796C268.479 93.3236 269.169 90.8106 270.057 88.3644C272.572 81.5692 275.641 77.5641 277.194 77.5371Z" fill="#F5F5F5"/>
<path d="M267.496 125.337C267.496 125.369 271.893 125.414 277.315 125.445C282.738 125.477 287.135 125.472 287.135 125.445C287.135 125.418 282.738 125.369 277.315 125.342C271.893 125.315 267.496 125.31 267.496 125.337Z" fill="#E0E0E0"/>
<path d="M267.581 126.225C267.581 126.252 271.978 126.301 277.4 126.328C282.823 126.355 287.22 126.36 287.22 126.328C287.22 126.297 282.827 126.252 277.4 126.22C271.973 126.189 267.581 126.198 267.581 126.225Z" fill="#E0E0E0"/>
<path d="M267.568 127.155C267.568 127.186 271.964 127.231 277.387 127.263C282.81 127.294 287.206 127.29 287.206 127.263C287.206 127.236 282.81 127.186 277.387 127.159C271.964 127.132 267.568 127.128 267.568 127.155Z" fill="#E0E0E0"/>
<path d="M267.541 128.092C267.541 128.119 271.938 128.168 277.356 128.195C282.774 128.222 287.18 128.227 287.18 128.195C287.18 128.164 282.783 128.123 277.36 128.092C271.938 128.06 267.541 128.06 267.541 128.092Z" fill="#E0E0E0"/>
<path d="M267.541 129.023C267.541 129.054 271.938 129.099 277.36 129.131C282.783 129.162 287.18 129.158 287.18 129.131C287.18 129.104 282.787 129.054 277.36 129.023C271.933 128.991 267.541 128.996 267.541 129.023Z" fill="#E0E0E0"/>
<path d="M277.167 111.81C277.164 111.855 277.164 111.9 277.167 111.945C277.15 112.076 277.141 112.208 277.14 112.341C277.14 112.683 277.14 113.182 277.14 113.794C277.14 115.023 277.14 116.719 277.14 118.591C277.14 120.463 277.189 122.164 277.216 123.388C277.216 123.996 277.243 124.491 277.252 124.846C277.252 125.008 277.252 125.139 277.252 125.238C277.247 125.284 277.247 125.331 277.252 125.377C277.256 125.331 277.256 125.284 277.252 125.238C277.252 125.139 277.252 125.008 277.252 124.842C277.252 124.486 277.252 123.996 277.252 123.388C277.252 122.151 277.225 120.459 277.212 118.591C277.198 116.724 277.176 115.032 277.162 113.794C277.162 113.191 277.162 112.696 277.162 112.341C277.162 112.17 277.162 112.035 277.162 111.945C277.169 111.9 277.171 111.855 277.167 111.81Z" fill="#E0E0E0"/>
<path d="M267.289 111.792C267.289 111.819 271.69 111.846 277.121 111.846C282.553 111.846 286.959 111.823 286.959 111.796C286.959 111.769 282.553 111.742 277.121 111.742C271.69 111.742 267.289 111.765 267.289 111.792Z" fill="#E0E0E0"/>
<path d="M275.583 121.437C275.583 121.437 275.551 121.392 275.461 121.347C275.333 121.291 275.19 121.282 275.056 121.32C274.951 121.341 274.853 121.391 274.774 121.464C274.695 121.537 274.637 121.63 274.606 121.734C274.565 121.859 274.564 121.993 274.603 122.119C274.641 122.245 274.718 122.356 274.822 122.436C274.925 122.517 275.052 122.564 275.183 122.57C275.314 122.576 275.445 122.542 275.556 122.472C275.648 122.418 275.724 122.342 275.776 122.249C275.828 122.156 275.855 122.051 275.853 121.945C275.852 121.805 275.807 121.669 275.722 121.558C275.664 121.482 275.614 121.459 275.61 121.464C275.605 121.468 275.641 121.504 275.691 121.581C275.754 121.691 275.783 121.818 275.776 121.945C275.775 122.037 275.75 122.126 275.703 122.205C275.657 122.284 275.59 122.35 275.511 122.395C275.415 122.454 275.304 122.481 275.192 122.475C275.081 122.469 274.974 122.428 274.885 122.359C274.797 122.29 274.732 122.196 274.699 122.089C274.666 121.982 274.667 121.867 274.701 121.761C274.725 121.673 274.771 121.594 274.835 121.53C274.899 121.466 274.978 121.42 275.065 121.396C275.187 121.357 275.317 121.357 275.439 121.396C275.533 121.414 275.578 121.441 275.583 121.437Z" fill="#E0E0E0"/>
<path d="M275.475 115.815C275.475 115.815 275.443 115.77 275.353 115.73C275.225 115.675 275.083 115.664 274.948 115.698C274.843 115.72 274.745 115.77 274.666 115.843C274.587 115.916 274.529 116.009 274.498 116.112C274.46 116.238 274.46 116.372 274.498 116.497C274.535 116.623 274.609 116.734 274.709 116.819C274.815 116.894 274.941 116.938 275.071 116.944C275.201 116.951 275.33 116.92 275.443 116.855C275.515 116.809 275.578 116.748 275.626 116.677C275.674 116.606 275.706 116.525 275.722 116.441C275.738 116.356 275.736 116.27 275.716 116.186C275.697 116.102 275.661 116.024 275.61 115.955C275.551 115.878 275.502 115.851 275.497 115.856C275.493 115.86 275.533 115.901 275.578 115.977C275.641 116.086 275.671 116.211 275.664 116.337C275.664 116.429 275.639 116.519 275.592 116.599C275.546 116.678 275.479 116.743 275.398 116.787C275.303 116.845 275.192 116.872 275.081 116.866C274.97 116.86 274.864 116.82 274.776 116.751C274.688 116.683 274.623 116.59 274.589 116.484C274.556 116.377 274.555 116.264 274.588 116.157C274.612 116.069 274.658 115.989 274.722 115.925C274.786 115.86 274.865 115.813 274.952 115.788C275.075 115.754 275.204 115.754 275.326 115.788C275.425 115.77 275.47 115.815 275.475 115.815Z" fill="#E0E0E0"/>
<path d="M276.662 141.996C276.892 142.147 277.054 142.381 277.114 142.649C277.173 142.917 277.124 143.198 276.978 143.431C276.833 143.664 276.601 143.83 276.334 143.894C276.067 143.958 275.786 143.915 275.55 143.774C275.315 143.632 275.144 143.404 275.075 143.139C275.006 142.873 275.044 142.59 275.18 142.352C275.317 142.114 275.542 141.939 275.807 141.865C276.071 141.791 276.354 141.824 276.595 141.956" fill="#E0E0E0"/>
<path d="M272.703 94.4031C272.117 95.2855 271.806 96.3217 271.809 97.3807C271.812 98.4398 272.129 99.4741 272.72 100.353C273.311 101.232 274.149 101.916 275.129 102.318C276.109 102.721 277.185 102.824 278.224 102.614C279.262 102.405 280.214 101.892 280.961 101.141C281.708 100.39 282.215 99.4348 282.419 98.3955C282.623 97.3563 282.514 96.2799 282.106 95.3026C281.698 94.3252 281.01 93.4907 280.128 92.9046C279.542 92.5153 278.885 92.2453 278.195 92.1099C277.505 91.9745 276.794 91.9764 276.105 92.1156C275.415 92.2548 274.76 92.5284 274.176 92.9209C273.592 93.3134 273.092 93.8171 272.703 94.4031Z" fill="white"/>
<path d="M272.702 94.4027C272.984 94.0645 273.284 93.743 273.602 93.4397C274.498 92.6415 275.636 92.1662 276.834 92.0896C277.711 92.0373 278.588 92.2059 279.384 92.5802C280.179 92.9544 280.868 93.5222 281.388 94.2317C282.005 95.0663 282.359 96.0659 282.405 97.1028C282.457 98.216 282.152 99.3168 281.535 100.245C280.919 101.173 280.022 101.881 278.976 102.264C278.482 102.45 277.963 102.556 277.437 102.579C276.932 102.612 276.425 102.567 275.934 102.444C275.019 102.22 274.181 101.753 273.508 101.094C272.915 100.528 272.465 99.8296 272.194 99.0558C271.794 97.9274 271.786 96.6972 272.171 95.5637C272.325 95.1531 272.505 94.7532 272.711 94.3667C272.638 94.455 272.574 94.5499 272.518 94.6502C272.439 94.7642 272.37 94.8846 272.311 95.0102C272.222 95.1781 272.147 95.3526 272.086 95.5322C271.731 96.5059 271.663 97.5612 271.891 98.5722C272.12 99.5832 272.634 100.507 273.373 101.234C274.07 101.916 274.937 102.399 275.884 102.633C276.928 102.89 278.025 102.829 279.034 102.458C280.136 102.066 281.082 101.328 281.73 100.355C282.379 99.3822 282.696 98.2256 282.634 97.0578C282.579 95.9787 282.209 94.9395 281.568 94.0697C280.987 93.2903 280.211 92.6785 279.318 92.2966C278.362 91.8981 277.311 91.7829 276.291 91.9648C275.272 92.1467 274.326 92.6181 273.566 93.3227C273.425 93.4501 273.294 93.5885 273.175 93.7367C273.081 93.839 272.995 93.9489 272.918 94.0652C272.831 94.1671 272.758 94.2807 272.702 94.4027Z" fill="#E0E0E0"/>
<path d="M277.194 77.5371C278.764 77.5371 281.653 81.5872 284.336 88.3779H270.057C272.572 81.5692 275.641 77.5641 277.194 77.5371Z" fill="#E0E0E0"/>
<path d="M277.194 77.5367L276.915 77.5682C276.652 77.6458 276.405 77.7659 276.181 77.9237C275.349 78.5699 274.629 79.3501 274.053 80.2323C272.478 82.4824 270.651 86.0825 269.17 90.8076C268.38 93.4117 267.811 96.0777 267.469 98.7773C267.292 100.291 267.199 101.812 267.19 103.336C267.19 104.906 267.19 106.527 267.19 108.192C267.19 114.852 267.19 122.236 267.19 130.08V130.215H287.26V130.103C287.26 122.254 287.26 114.87 287.233 108.21C287.233 106.545 287.233 104.924 287.233 103.354C287.233 102.566 287.233 101.792 287.233 101.032C287.233 100.271 287.139 99.5198 287.053 98.7818C286.723 96.0802 286.137 93.4162 285.303 90.8256C284.597 88.7138 283.755 86.65 282.783 84.6469C282.065 83.1254 281.233 81.6602 280.294 80.2638C279.726 79.3772 279.02 78.5872 278.202 77.9237C278.044 77.8337 277.918 77.7392 277.792 77.6852C277.687 77.6375 277.579 77.597 277.468 77.5637L277.194 77.5322C277.194 77.5322 277.284 77.5322 277.464 77.5862C277.571 77.6215 277.677 77.6636 277.779 77.7122C277.916 77.7861 278.048 77.8688 278.175 77.9597C278.978 78.6321 279.67 79.4263 280.227 80.3133C281.143 81.7034 281.955 83.1594 282.657 84.6694C283.615 86.6743 284.444 88.738 285.141 90.8481C285.96 93.4299 286.534 96.0832 286.855 98.7728C286.941 99.5018 287.013 100.249 287.026 101.023V103.34C287.026 104.909 287.026 106.528 287.026 108.196C287.026 114.861 287.026 122.241 287.026 130.089L287.143 129.972H267.298L267.41 130.089C267.41 122.245 267.41 114.861 267.388 108.201C267.388 106.536 267.388 104.915 267.388 103.345C267.392 101.828 267.481 100.312 267.653 98.8043C267.985 96.1147 268.542 93.4578 269.319 90.8616C270.772 86.114 272.577 82.5139 274.12 80.2638C274.687 79.3824 275.39 78.597 276.204 77.9372C276.422 77.7793 276.663 77.6563 276.919 77.5727L277.194 77.5367Z" fill="#E0E0E0"/>
<path d="M274.237 100.101C274.535 99.8967 274.807 99.6564 275.047 99.3858C275.519 98.9357 276.149 98.2427 276.847 97.4912L278.575 95.5517C278.831 95.2986 279.061 95.0213 279.263 94.7236C278.967 94.9287 278.697 95.169 278.458 95.4392C277.981 95.8892 277.351 96.5777 276.658 97.3337L274.93 99.2733C274.673 99.5264 274.441 99.8037 274.237 100.101Z" fill="#E0E0E0"/>
<path d="M275.812 100.11C276.437 99.6263 277.015 99.0838 277.536 98.4895C278.112 97.9432 278.632 97.3401 279.088 96.6895C278.463 97.1731 277.886 97.7156 277.365 98.3095C276.788 98.8564 276.268 99.4594 275.812 100.11Z" fill="#E0E0E0"/>
<path d="M306.476 254.328C306.476 254.395 237.863 254.449 153.247 254.449C68.6313 254.449 0 254.418 0 254.328C0 254.238 68.5998 254.211 153.247 254.211C237.894 254.211 306.476 254.265 306.476 254.328Z" fill="#263238"/>
<path d="M288.998 150.182H272.532C270.079 150.182 268.09 152.17 268.09 154.623V171.089C268.09 173.542 270.079 175.531 272.532 175.531H288.998C291.451 175.531 293.44 173.542 293.44 171.089V154.623C293.44 152.17 291.451 150.182 288.998 150.182Z" fill="#263238"/>
<path d="M285.281 150.182H268.815C266.362 150.182 264.373 152.17 264.373 154.623V171.089C264.373 173.542 266.362 175.531 268.815 175.531H285.281C287.734 175.531 289.722 173.542 289.722 171.089V154.623C289.722 152.17 287.734 150.182 285.281 150.182Z" fill="#455A64"/>
<path d="M269.292 162.706L271.704 160.294L276.352 164.43L284.119 156.631L286.36 159.043L276.01 169.078L269.292 162.706Z" fill="white"/>
<path d="M277.243 226.873C277.857 227.167 278.405 227.582 278.856 228.092C279.307 228.602 279.65 229.198 279.866 229.843C280.287 231.14 280.405 232.516 280.213 233.866C279.916 236.476 278.435 239.113 276.838 241.201C274.637 239.28 274.138 235.936 273.98 234.222C273.746 231.522 274.961 226.473 277.243 226.873Z" fill="#0EC79B"/>
<path d="M279.39 245.508C279.241 244.761 279.292 243.989 279.536 243.268C279.781 242.548 280.212 241.905 280.785 241.404C281.367 240.914 282.041 240.546 282.767 240.32C283.494 240.093 284.257 240.013 285.015 240.085C285.37 240.077 285.722 240.148 286.046 240.292C286.37 240.436 286.659 240.649 286.891 240.918C287.062 241.199 287.155 241.521 287.16 241.85C287.165 242.179 287.081 242.504 286.918 242.79C286.583 243.352 286.107 243.818 285.537 244.14C283.629 245.332 281.568 246.142 279.412 245.49" fill="#0EC79B"/>
<path d="M276.572 253.518C276.583 253.338 276.608 253.159 276.649 252.983C276.721 252.605 276.811 252.119 276.914 251.534C277.161 249.918 277.667 248.353 278.413 246.899C279.187 245.447 280.335 244.229 281.738 243.371C282.163 243.117 282.616 242.915 283.088 242.768C283.255 242.714 283.39 242.691 283.475 242.669C283.522 242.661 283.569 242.661 283.615 242.669C282.989 242.885 282.386 243.164 281.815 243.501C280.461 244.381 279.351 245.588 278.588 247.011C277.855 248.449 277.339 249.989 277.058 251.579C276.923 252.186 276.815 252.677 276.734 253.014C276.695 253.187 276.641 253.355 276.572 253.518Z" fill="#263238"/>
<path d="M276.653 230.798C276.675 230.874 276.684 230.953 276.68 231.032C276.68 231.203 276.707 231.428 276.721 231.702C276.752 232.287 276.788 233.133 276.82 234.177C276.887 236.27 276.941 239.164 276.928 242.354C276.914 245.545 276.838 248.443 276.752 250.531C276.707 251.579 276.667 252.425 276.631 253.006C276.631 253.285 276.595 253.505 276.586 253.681C276.586 253.76 276.575 253.839 276.554 253.915C276.548 253.837 276.548 253.759 276.554 253.681C276.554 253.505 276.554 253.28 276.554 253.006C276.554 252.398 276.59 251.557 276.617 250.526C276.667 248.438 276.725 245.549 276.739 242.354C276.752 239.159 276.739 236.274 276.685 234.182C276.685 233.156 276.658 232.314 276.649 231.707C276.649 231.428 276.649 231.207 276.649 231.032C276.644 230.954 276.645 230.876 276.653 230.798Z" fill="#263238"/>
<path d="M275.587 247.097C275.322 245.516 274.684 244.02 273.725 242.734C272.766 241.448 271.515 240.409 270.074 239.704C269.341 239.353 268.382 239.119 267.779 239.668C267.176 240.217 267.329 241.198 267.604 241.958C268.25 243.534 269.348 244.884 270.76 245.837C272.172 246.79 273.834 247.304 275.537 247.313" fill="#0EC79B"/>
<path d="M270.43 242.178C270.586 242.231 270.737 242.298 270.88 242.38C271.061 242.464 271.237 242.559 271.407 242.664C271.637 242.792 271.861 242.931 272.077 243.082C272.344 243.261 272.601 243.455 272.847 243.663C273.132 243.893 273.404 244.139 273.661 244.401C274.252 245.006 274.773 245.676 275.214 246.399C275.643 247.128 275.987 247.904 276.24 248.712C276.345 249.064 276.431 249.421 276.496 249.783C276.561 250.098 276.605 250.416 276.627 250.737C276.667 251.029 276.654 251.295 276.667 251.529C276.68 251.727 276.68 251.925 276.667 252.123C276.663 252.294 276.644 252.464 276.609 252.632C276.564 252.632 276.64 251.903 276.514 250.75C276.474 250.462 276.438 250.147 276.361 249.814C276.289 249.459 276.197 249.107 276.087 248.761C275.831 247.976 275.49 247.222 275.07 246.511C274.637 245.801 274.128 245.141 273.553 244.54C273.303 244.277 273.038 244.028 272.761 243.793C272.525 243.585 272.277 243.389 272.019 243.208C271.074 242.515 270.412 242.214 270.43 242.178Z" fill="#263238"/>
<path d="M76.6014 141.542H29.5571V254.36H76.6014V141.542Z" fill="#E0E0E0"/>
<path d="M53.0788 141.542H15.8853V254.36H53.0788V141.542Z" fill="#F5F5F5"/>
<path d="M53.1331 254.275C53.0701 254.275 53.0161 229.011 53.0161 197.848C53.0161 166.684 53.0701 141.416 53.1331 141.416C53.1961 141.416 53.2501 166.68 53.2501 197.848C53.2501 229.015 53.2006 254.275 53.1331 254.275Z" fill="#263238"/>
<path d="M71.1335 154.503H59.8652V155.664H71.1335V154.503Z" fill="#263238"/>
<path d="M71.1335 157.823H59.8652V158.984H71.1335V157.823Z" fill="#263238"/>
<path d="M71.1335 161.149H59.8652V162.31H71.1335V161.149Z" fill="#263238"/>
<path d="M49.4833 146.34H19.7285V250.779H49.4833V146.34Z" fill="#E0E0E0"/>
<path d="M46.5179 150.187H21.8662V153.922H46.5179V150.187Z" fill="#EBEBEB"/>
<path d="M25.6013 150.187H21.8662V153.922H25.6013V150.187Z" fill="#0EC79B"/>
<path d="M47.2828 150.187H39.1646V153.922H47.2828V150.187Z" fill="#F5F5F5"/>
<path d="M46.5179 156.834H21.8662V160.569H46.5179V156.834Z" fill="#EBEBEB"/>
<path d="M25.6013 156.834H21.8662V160.569H25.6013V156.834Z" fill="white"/>
<path d="M47.2828 156.834H39.1646V160.569H47.2828V156.834Z" fill="#F5F5F5"/>
<path d="M46.5179 163.485H21.8662V167.22H46.5179V163.485Z" fill="#EBEBEB"/>
<path d="M25.6013 163.485H21.8662V167.22H25.6013V163.485Z" fill="#0EC79B"/>
<path d="M47.2828 163.485H39.1646V167.22H47.2828V163.485Z" fill="#F5F5F5"/>
<path d="M46.5179 170.136H21.8662V173.871H46.5179V170.136Z" fill="#EBEBEB"/>
<path d="M25.6013 170.136H21.8662V173.871H25.6013V170.136Z" fill="white"/>
<path d="M47.2828 170.136H39.1646V173.871H47.2828V170.136Z" fill="#F5F5F5"/>
<path d="M46.5179 176.782H21.8662V180.517H46.5179V176.782Z" fill="#EBEBEB"/>
<path d="M25.6013 176.782H21.8662V180.517H25.6013V176.782Z" fill="#0EC79B"/>
<path d="M47.2828 176.782H39.1646V180.517H47.2828V176.782Z" fill="#F5F5F5"/>
<path d="M46.5179 183.435H21.8662V187.17H46.5179V183.435Z" fill="#EBEBEB"/>
<path d="M25.6013 183.435H21.8662V187.17H25.6013V183.435Z" fill="#0EC79B"/>
<path d="M47.2828 183.435H39.1646V187.17H47.2828V183.435Z" fill="#F5F5F5"/>
<path d="M46.5179 190.085H21.8662V193.82H46.5179V190.085Z" fill="#EBEBEB"/>
<path d="M25.6013 190.085H21.8662V193.82H25.6013V190.085Z" fill="white"/>
<path d="M47.2828 190.085H39.1646V193.82H47.2828V190.085Z" fill="#F5F5F5"/>
<path d="M46.5179 196.731H21.8662V200.467H46.5179V196.731Z" fill="#EBEBEB"/>
<path d="M25.6013 196.731H21.8662V200.467H25.6013V196.731Z" fill="white"/>
<path d="M47.2828 196.731H39.1646V200.467H47.2828V196.731Z" fill="#F5F5F5"/>
<path d="M46.5179 203.383H21.8662V207.118H46.5179V203.383Z" fill="#EBEBEB"/>
<path d="M25.6013 203.383H21.8662V207.118H25.6013V203.383Z" fill="white"/>
<path d="M47.2828 203.383H39.1646V207.118H47.2828V203.383Z" fill="#F5F5F5"/>
<path d="M46.5179 210.034H21.8662V213.769H46.5179V210.034Z" fill="#EBEBEB"/>
<path d="M25.6013 210.034H21.8662V213.769H25.6013V210.034Z" fill="#0EC79B"/>
<path d="M47.2828 210.034H39.1646V213.769H47.2828V210.034Z" fill="#F5F5F5"/>
<path d="M46.5179 216.686H21.8662V220.421H46.5179V216.686Z" fill="#EBEBEB"/>
<path d="M25.6013 216.686H21.8662V220.421H25.6013V216.686Z" fill="white"/>
<path d="M47.2828 216.686H39.1646V220.421H47.2828V216.686Z" fill="#F5F5F5"/>
<path d="M46.5179 223.332H21.8662V227.067H46.5179V223.332Z" fill="#EBEBEB"/>
<path d="M25.6013 223.332H21.8662V227.067H25.6013V223.332Z" fill="#0EC79B"/>
<path d="M47.2828 223.332H39.1646V227.067H47.2828V223.332Z" fill="#F5F5F5"/>
<path d="M46.5179 229.983H21.8662V233.718H46.5179V229.983Z" fill="#EBEBEB"/>
<path d="M25.6013 229.983H21.8662V233.718H25.6013V229.983Z" fill="white"/>
<path d="M47.2828 229.983H39.1646V233.718H47.2828V229.983Z" fill="#F5F5F5"/>
<path d="M46.5179 236.635H21.8662V240.37H46.5179V236.635Z" fill="#EBEBEB"/>
<path d="M25.6013 236.635H21.8662V240.37H25.6013V236.635Z" fill="#0EC79B"/>
<path d="M47.2828 236.635H39.1646V240.37H47.2828V236.635Z" fill="#F5F5F5"/>
<path d="M46.5179 243.28H21.8662V247.015H46.5179V243.28Z" fill="#EBEBEB"/>
<path d="M25.6013 243.28H21.8662V247.015H25.6013V243.28Z" fill="white"/>
<path d="M47.2828 243.28H39.1646V247.015H47.2828V243.28Z" fill="#F5F5F5"/>
<path d="M76.601 254.361C76.601 253.357 76.556 207.514 76.493 141.543L76.601 141.651H15.8943L16.0113 141.534C16.0113 184.843 15.9888 224.444 15.9843 254.352L15.8943 254.262L76.61 254.352L15.8943 254.437H15.8043V254.347C15.8043 224.439 15.8043 184.838 15.7773 141.529V141.412H15.9033H76.61H76.718V141.52C76.718 174.533 76.682 202.749 76.6685 222.716C76.6235 242.633 76.601 253.861 76.601 254.361Z" fill="#263238"/>
<path d="M236.005 109.744H74.0722C72.7319 109.744 71.4465 110.277 70.4987 111.224C69.551 112.172 69.0186 113.457 69.0186 114.798V229.177C69.0186 230.518 69.551 231.803 70.4987 232.751C71.4465 233.699 72.7319 234.231 74.0722 234.231H136.223L133.208 254.212H178.268L175.739 234.231H236.005C237.345 234.231 238.63 233.699 239.578 232.751C240.526 231.803 241.058 230.518 241.058 229.177V114.798C241.058 114.134 240.927 113.477 240.674 112.864C240.42 112.251 240.047 111.694 239.578 111.224C239.109 110.755 238.552 110.383 237.939 110.129C237.325 109.875 236.668 109.744 236.005 109.744Z" fill="#455A64"/>
<path d="M157.198 222.203C159.403 225.353 155.956 228.8 152.806 226.595C152.701 226.521 152.61 226.43 152.536 226.325C150.34 223.175 153.783 219.732 156.928 221.933C157.033 222.006 157.125 222.097 157.198 222.203Z" fill="#263238"/>
<path d="M77.9105 114.109H232.188C233.346 114.109 234.456 114.569 235.275 115.388C236.093 116.207 236.553 117.317 236.553 118.474V213.306H73.5454V118.474C73.5454 117.317 74.0053 116.207 74.8239 115.388C75.6425 114.569 76.7528 114.109 77.9105 114.109Z" fill="#263238"/>
<path d="M192.461 234.231C192.461 234.289 178.884 234.334 162.144 234.334C145.404 234.334 131.827 234.289 131.827 234.231C131.827 234.172 145.399 234.132 162.144 234.132C178.889 234.132 192.461 234.168 192.461 234.231Z" fill="#263238"/>
<path d="M101.797 121.944H89.917V124.451H101.797V121.944Z" fill="#455A64"/>
<path d="M95.8572 133.177H89.917V135.683H95.8572V133.177Z" fill="#0EC79B"/>
<path d="M102.756 138.824H94.3901V141.331H102.756V138.824Z" fill="#455A64"/>
<path d="M108.957 138.824H104.083V141.331H108.957V138.824Z" fill="#455A64"/>
<path d="M152.662 138.824H142.636V141.331H152.662V138.824Z" fill="#455A64"/>
<path d="M181.958 144.328H165.024V146.835H181.958V144.328Z" fill="#455A64"/>
<path d="M208.081 138.824H199.949V141.331H208.081V138.824Z" fill="#455A64"/>
<path d="M226.928 138.824H210.574V141.331H226.928V138.824Z" fill="#455A64"/>
<path d="M102.756 144.328H94.3901V146.835H102.756V144.328Z" fill="#455A64"/>
<path d="M97.6123 149.817H89.2466V152.324H97.6123V149.817Z" fill="#0EC79B"/>
<path d="M97.6167 155.312H93.7061V157.819H97.6167V155.312Z" fill="#455A64"/>
<path d="M111.958 166.878H108.052V169.385H111.958V166.878Z" fill="#455A64"/>
<path d="M169.452 187.777H161.815V190.284H169.452V187.777Z" fill="#455A64"/>
<path d="M212.113 187.777H193.406V190.284H212.113V187.777Z" fill="#455A64"/>
<path d="M140.701 182.29H133.064V184.797H140.701V182.29Z" fill="#E0E0E0"/>
<path d="M113.034 177.584H105.397V180.091H113.034V177.584Z" fill="#455A64"/>
<path d="M160.231 187.777H148.189V190.284H160.231V187.777Z" fill="#455A64"/>
<path d="M100.047 160.901H93.7061V163.408H100.047V160.901Z" fill="#455A64"/>
<path d="M105.469 166.973H93.7061V169.479H105.469V166.973Z" fill="#455A64"/>
<path d="M110.919 171.617H93.7061V174.124H110.919V171.617Z" fill="#455A64"/>
<path d="M142.105 171.617H124.892V174.124H142.105V171.617Z" fill="#455A64"/>
<path d="M129.415 182.29H105.245V184.797H129.415V182.29Z" fill="#455A64"/>
<path d="M146.124 187.777H105.245V190.284H146.124V187.777Z" fill="#455A64"/>
<path d="M133.757 193.266H92.8774V195.772H133.757V193.266Z" fill="#455A64"/>
<path d="M123.065 171.617H112.737V174.124H123.065V171.617Z" fill="#455A64"/>
<path d="M109.812 155.312H99.1553V157.819H109.812V155.312Z" fill="#455A64"/>
<path d="M112.161 160.906H101.504V163.413H112.161V160.906Z" fill="#455A64"/>
<path d="M153.445 160.906H125.229V163.413H153.445V160.906Z" fill="#455A64"/>
<path d="M186.795 160.906H154.21V163.413H186.795V160.906Z" fill="#455A64"/>
<path d="M122.732 160.906H113.912V163.413H122.732V160.906Z" fill="#455A64"/>
<path d="M125.238 155.312H111.27V157.819H125.238V155.312Z" fill="#455A64"/>
<path d="M134.558 155.312H126.782V157.819H134.558V155.312Z" fill="#E0E0E0"/>
<path d="M112.805 144.328H104.083V146.835H112.805V144.328Z" fill="#455A64"/>
<path d="M161.793 144.328H118.731V146.835H161.793V144.328Z" fill="#455A64"/>
<path d="M210.129 160.906H189.77V163.413H210.129V160.906Z" fill="#455A64"/>
<path d="M191.8 187.777H171.437V190.284H191.8V187.777Z" fill="#455A64"/>
<path d="M196.781 138.824H154.363V141.331H196.781V138.824Z" fill="#455A64"/>
<path d="M139.999 138.824H110.482V141.331H139.999V138.824Z" fill="#455A64"/>
<path d="M109.79 127.263H89.917V129.769H109.79V127.263Z" fill="#455A64"/>
<path d="M138.986 127.263H111.774V129.769H138.986V127.263Z" fill="#455A64"/>
<path d="M112.404 121.944H103.656V124.451H112.404V121.944Z" fill="#E0E0E0"/>
<path d="M85.579 121.944H83.1489V124.451H85.579V121.944Z" fill="#455A64"/>
<path d="M85.579 127.434H83.1489V129.94H85.579V127.434Z" fill="#455A64"/>
<path d="M85.579 132.921H83.1489V135.427H85.579V132.921Z" fill="#455A64"/>
<path d="M85.579 138.405H83.1489V140.912H85.579V138.405Z" fill="#455A64"/>
<path d="M85.579 143.892H83.1489V146.398H85.579V143.892Z" fill="#455A64"/>
<path d="M85.579 149.376H83.1489V151.883H85.579V149.376Z" fill="#455A64"/>
<path d="M85.579 154.862H83.1489V157.369H85.579V154.862Z" fill="#455A64"/>
<path d="M85.579 160.349H83.1489V162.855H85.579V160.349Z" fill="#455A64"/>
<path d="M85.579 165.833H83.1489V168.34H85.579V165.833Z" fill="#455A64"/>
<path d="M111 205.115H107.094V207.622H111V205.115Z" fill="#E0E0E0"/>
<path d="M104.717 205.115H92.9541V207.622H104.717V205.115Z" fill="#0EC79B"/>
<path d="M85.579 204.836H83.1489V207.343H85.579V204.836Z" fill="#455A64"/>
<path d="M85.579 171.319H83.1489V173.826H85.579V171.319Z" fill="#455A64"/>
<path d="M85.579 176.805H83.1489V179.311H85.579V176.805Z" fill="#455A64"/>
<path d="M85.579 182.29H83.1489V184.797H85.579V182.29Z" fill="#455A64"/>
<path d="M85.579 187.777H83.1489V190.284H85.579V187.777Z" fill="#455A64"/>
<path d="M85.579 193.266H83.1489V195.772H85.579V193.266Z" fill="#455A64"/>
<path d="M104.794 199.035H92.8774V201.542H104.794V199.035Z" fill="#455A64"/>
<path d="M134.054 199.035H107.094V201.542H134.054V199.035Z" fill="#455A64"/>
<path d="M85.579 199.035H83.1489V201.542H85.579V199.035Z" fill="#455A64"/>
<path d="M151.055 127.245H142.307V129.752H151.055V127.245Z" fill="#E0E0E0"/>
<g opacity="0.3">
<path d="M161.464 171.144H155.488V219.691H226.694L224.84 172.323L161.464 171.144Z" fill="black"/>
</g>
<path d="M231.324 163.966H160.074V215.105H231.324V163.966Z" fill="#E0E0E0"/>
<path d="M231.54 215.331H159.849V163.741H231.54V215.331ZM160.29 214.881H231.09V164.191H160.299L160.29 214.881Z" fill="#263238"/>
<path d="M185.121 169.429H173.601V171.859H185.121V169.429Z" fill="#455A64"/>
<path d="M179.361 180.319H173.601V182.749H179.361V180.319Z" fill="#0EC79B"/>
<path d="M186.048 185.797H177.935V188.227H186.048V185.797Z" fill="#455A64"/>
<path d="M192.065 185.797H187.34V188.227H192.065V185.797Z" fill="#455A64"/>
<path d="M186.048 191.138H177.935V193.568H186.048V191.138Z" fill="#455A64"/>
<path d="M181.067 196.461H172.953V198.891H181.067V196.461Z" fill="#0EC79B"/>
<path d="M181.063 201.785H177.273V204.215H181.063V201.785Z" fill="#455A64"/>
<path d="M183.425 207.207H177.273V209.637H183.425V207.207Z" fill="#455A64"/>
<path d="M192.893 201.785H182.561V204.215H192.893V201.785Z" fill="#455A64"/>
<path d="M195.17 207.212H184.838V209.642H195.17V207.212Z" fill="#455A64"/>
<path d="M220.069 207.212H207.847V209.642H220.069V207.212Z" fill="#455A64"/>
<path d="M205.421 207.212H196.871V209.642H205.421V207.212Z" fill="#455A64"/>
<path d="M207.856 201.785H194.311V204.215H207.856V201.785Z" fill="#455A64"/>
<path d="M216.892 201.785H209.35V204.215H216.892V201.785Z" fill="white"/>
<path d="M195.796 191.138H187.34V193.568H195.796V191.138Z" fill="#455A64"/>
<path d="M222.167 185.797H193.542V188.227H222.167V185.797Z" fill="#455A64"/>
<path d="M192.875 174.587H173.601V177.017H192.875V174.587Z" fill="#455A64"/>
<path d="M221.185 174.587H194.796V177.017H221.185V174.587Z" fill="#455A64"/>
<path d="M195.404 169.429H186.921V171.859H195.404V169.429Z" fill="white"/>
<path d="M169.389 169.429H167.036V171.859H169.389V169.429Z" fill="#455A64"/>
<path d="M169.389 174.748H167.036V177.178H169.389V174.748Z" fill="#455A64"/>
<path d="M169.389 180.072H167.036V182.502H169.389V180.072Z" fill="#455A64"/>
<path d="M169.389 185.391H167.036V187.821H169.389V185.391Z" fill="#455A64"/>
<path d="M169.389 190.71H167.036V193.14H169.389V190.71Z" fill="#455A64"/>
<path d="M169.389 196.029H167.036V198.459H169.389V196.029Z" fill="#455A64"/>
<path d="M169.389 201.353H167.036V203.783H169.389V201.353Z" fill="#455A64"/>
<path d="M169.389 206.672H167.036V209.102H169.389V206.672Z" fill="#455A64"/>
<g opacity="0.3">
<path d="M121.674 233.956C122.574 229.456 119.649 215.996 119.649 215.996L97.7697 218.777L96.8696 233.857L121.674 233.956Z" fill="black"/>
</g>
<path d="M93.8367 215.996C93.8367 215.996 94.7998 233.893 90.7856 240.049L118.034 240.72C118.034 240.72 120.149 230.266 119.667 215.996H93.8367Z" fill="#0EC79B"/>
<path d="M119.577 219.462C119.577 219.525 113.903 219.579 106.91 219.579C99.9163 219.579 94.2417 219.525 94.2417 219.462C94.2417 219.399 99.9118 219.345 106.91 219.345C113.907 219.345 119.577 219.399 119.577 219.462Z" fill="#263238"/>
<path d="M116.549 225.587C116.549 225.65 112.013 225.704 106.424 225.704C100.834 225.704 96.2983 225.65 96.2983 225.587C96.2983 225.524 100.83 225.47 106.424 225.47C112.017 225.47 116.549 225.524 116.549 225.587Z" fill="#263238"/>
<path d="M116.787 228.929C116.787 228.992 112.256 229.047 106.662 229.047C101.068 229.047 96.5366 228.992 96.5366 228.929C96.5366 228.866 101.068 228.812 106.657 228.812C112.247 228.812 116.787 228.866 116.787 228.929Z" fill="#263238"/>
<path d="M116.135 232.274C116.135 232.337 111.599 232.391 106.01 232.391C100.42 232.391 95.8843 232.337 95.8843 232.274C95.8843 232.211 100.416 232.157 106.01 232.157C111.603 232.157 116.135 232.211 116.135 232.274Z" fill="#263238"/>
<g opacity="0.3">
<path d="M89.3366 216.329C89.3366 216.329 90.5021 229.577 90.5021 234.289H87.145L89.3366 216.329Z" fill="black"/>
</g>
<path d="M81.2859 216.33C81.2859 216.33 82.249 234.232 78.2349 240.383H87.2081C87.2081 240.383 89.7867 230.6 89.3367 216.33H81.2859Z" fill="#E0E0E0"/>
<path d="M206.722 138.496L221.811 121.153L206.618 110.118L218.539 103.103C218.539 103.103 237.237 114.465 236.989 121.288C236.769 127.498 213.197 143.208 213.197 143.208L206.722 138.496Z" fill="#FFBF9D"/>
<path d="M194.887 177.916C193.094 180.857 190.632 183.333 187.702 185.143C184.771 186.952 181.454 188.044 178.022 188.328C174.589 188.613 171.138 188.083 167.95 186.781C164.761 185.479 161.925 183.442 159.672 180.837C157.42 178.231 155.815 175.13 154.988 171.787C154.161 168.443 154.136 164.952 154.914 161.596C155.692 158.241 157.252 155.117 159.466 152.479C161.681 149.841 164.487 147.763 167.656 146.415C171.918 144.603 176.644 144.19 181.155 145.236C185.666 146.283 189.729 148.734 192.757 152.237C195.785 155.741 197.623 160.115 198.006 164.73C198.389 169.345 197.296 173.962 194.887 177.916ZM158.8 155.92C156.269 160.07 155.305 164.989 156.079 169.788C156.854 174.587 159.318 178.952 163.027 182.095C166.735 185.238 171.445 186.953 176.306 186.931C181.167 186.909 185.861 185.151 189.541 181.974C193.221 178.797 195.645 174.41 196.376 169.604C197.107 164.798 196.097 159.889 193.529 155.761C190.96 151.634 187.002 148.56 182.367 147.093C177.732 145.626 172.726 145.863 168.25 147.761C164.328 149.42 161.023 152.265 158.8 155.897V155.92Z" fill="#0EC79B"/>
<g opacity="0.3">
<path d="M194.887 177.917C193.095 180.858 190.633 183.334 187.702 185.144C184.772 186.953 181.455 188.045 178.022 188.329C174.59 188.614 171.139 188.084 167.95 186.782C164.761 185.48 161.925 183.443 159.673 180.838C157.421 178.232 155.816 175.131 154.989 171.788C154.162 168.444 154.136 164.953 154.915 161.597C155.693 158.242 157.253 155.118 159.467 152.48C161.681 149.842 164.487 147.764 167.657 146.416C171.918 144.604 176.645 144.191 181.156 145.237C185.667 146.284 189.729 148.735 192.757 152.238C195.786 155.742 197.624 160.116 198.006 164.731C198.389 169.346 197.297 173.963 194.887 177.917ZM158.801 155.921C156.27 160.071 155.305 164.99 156.08 169.789C156.855 174.588 159.319 178.953 163.027 182.096C166.736 185.239 171.445 186.954 176.307 186.932C181.168 186.91 185.862 185.152 189.541 181.975C193.221 178.798 195.645 174.411 196.376 169.605C197.107 164.799 196.098 159.89 193.529 155.762C190.961 151.635 187.002 148.561 182.368 147.094C177.733 145.627 172.726 145.864 168.251 147.762C164.328 149.42 161.024 152.266 158.801 155.898V155.921Z" fill="black"/>
</g>
<path d="M194 176.936C192.208 179.877 189.746 182.353 186.816 184.162C183.885 185.972 180.568 187.063 177.136 187.348C173.703 187.632 170.252 187.102 167.063 185.8C163.875 184.499 161.039 182.462 158.786 179.856C156.534 177.25 154.929 174.15 154.102 170.806C153.275 167.463 153.25 163.971 154.028 160.616C154.806 157.261 156.366 154.137 158.58 151.499C160.795 148.861 163.601 146.783 166.77 145.435C171.031 143.622 175.758 143.21 180.269 144.256C184.78 145.302 188.842 147.754 191.871 151.257C194.899 154.76 196.737 159.134 197.12 163.749C197.503 168.364 196.41 172.981 194 176.936ZM157.914 154.939C155.386 159.09 154.423 164.007 155.2 168.805C155.976 173.602 158.441 177.965 162.149 181.106C165.858 184.247 170.567 185.96 175.427 185.936C180.287 185.913 184.979 184.154 188.656 180.977C192.334 177.8 194.757 173.414 195.486 168.609C196.216 163.804 195.206 158.896 192.637 154.77C190.069 150.644 186.111 147.572 181.477 146.106C176.843 144.64 171.838 144.878 167.364 146.776C163.438 148.441 160.132 151.296 157.914 154.939Z" fill="#0EC79B"/>
<path d="M225.807 136.732L226.662 138.082C227.432 139.27 226.491 141.187 224.808 141.965L196.264 159.444L193.6 155.547L221.424 136.066C223.224 134.689 224.817 135.202 225.807 136.732Z" fill="#0EC79B"/>
<path d="M176.225 147.383C176.105 147.395 175.984 147.395 175.865 147.383C175.631 147.383 175.284 147.352 174.839 147.383C173.581 147.436 172.335 147.64 171.126 147.991C170.29 148.235 169.473 148.535 168.678 148.891C167.77 149.301 166.892 149.773 166.05 150.304C165.118 150.886 164.235 151.542 163.408 152.266C162.515 153.039 161.694 153.891 160.956 154.813C160.224 155.738 159.584 156.731 159.043 157.779C158.556 158.765 158.153 159.79 157.837 160.843C157.313 162.634 157.063 164.494 157.095 166.36C157.111 167.618 157.262 168.87 157.545 170.095C157.626 170.545 157.747 170.86 157.797 171.094C157.836 171.207 157.863 171.323 157.878 171.441C157.828 171.333 157.786 171.222 157.752 171.108C157.689 170.878 157.554 170.554 157.455 170.118C157.134 168.891 156.954 167.632 156.919 166.365C156.863 164.48 157.1 162.597 157.621 160.785C157.933 159.715 158.338 158.674 158.832 157.675C159.375 156.61 160.024 155.601 160.767 154.664C161.514 153.732 162.346 152.871 163.251 152.09C164.093 151.355 164.997 150.693 165.951 150.11C166.803 149.577 167.694 149.108 168.615 148.706C169.421 148.363 170.25 148.074 171.095 147.842C172.315 147.508 173.573 147.331 174.839 147.316C175.184 147.31 175.53 147.322 175.874 147.352C175.991 147.353 176.109 147.363 176.225 147.383Z" fill="white"/>
<path d="M193.289 170.766C193.235 170.766 193.64 169.767 193.924 168.088C193.955 167.877 193.991 167.638 194.023 167.431C194.054 167.224 194.063 166.959 194.09 166.711C194.144 166.216 194.135 165.681 194.144 165.118C194.103 162.677 193.537 160.274 192.484 158.071C192.227 157.572 191.998 157.09 191.728 156.672C191.597 156.46 191.48 156.249 191.35 156.055C191.219 155.862 191.089 155.686 190.967 155.511C189.964 154.138 189.167 153.436 189.203 153.396C189.399 153.547 189.584 153.713 189.757 153.891C189.973 154.085 190.175 154.296 190.36 154.521C190.624 154.805 190.87 155.106 191.098 155.421C191.228 155.592 191.359 155.772 191.498 155.961C191.638 156.15 191.755 156.361 191.894 156.577C192.181 157.031 192.444 157.5 192.682 157.981C193.213 159.096 193.629 160.261 193.924 161.46C194.201 162.662 194.352 163.889 194.374 165.123C194.374 165.69 194.374 166.23 194.297 166.734C194.27 166.981 194.257 167.229 194.216 167.458C194.176 167.688 194.135 167.908 194.099 168.12C194.032 168.501 193.945 168.878 193.838 169.249C193.771 169.533 193.684 169.811 193.577 170.082C193.501 170.318 193.405 170.547 193.289 170.766Z" fill="white"/>
<path d="M179.789 155.277C179.834 155.327 176.891 158.081 173.214 161.433C169.537 164.786 166.527 167.468 166.464 167.418C166.401 167.369 169.362 164.615 173.039 161.267C176.715 157.919 179.726 155.228 179.789 155.277Z" fill="white"/>
<path d="M185.387 158.827C185.322 158.899 185.252 158.965 185.175 159.025L184.545 159.565L182.214 161.532C180.243 163.188 177.525 165.483 174.564 168.052C171.603 170.622 168.925 172.976 167.004 174.686L164.718 176.711L164.092 177.255C164.023 177.323 163.946 177.382 163.863 177.431C163.923 177.355 163.989 177.284 164.061 177.219L164.659 176.643C165.181 176.144 165.942 175.437 166.909 174.564C168.808 172.823 171.455 170.446 174.429 167.872C177.404 165.298 180.14 163.03 182.142 161.406C183.141 160.591 183.942 159.939 184.523 159.498L185.18 158.989C185.242 158.927 185.312 158.873 185.387 158.827Z" fill="white"/>
<g opacity="0.3">
<path d="M158.039 175.788L188.059 149.886C188.059 149.886 191.025 152.136 192.285 154.188L161.563 180.617C160.09 179.248 158.893 177.609 158.039 175.788Z" fill="white"/>
</g>
<g opacity="0.3">
<path d="M164.854 183.047L194.104 157.567C194.104 157.567 194.248 157.328 194.649 159.16L166.289 183.843C165.756 183.69 165.265 183.418 164.854 183.047Z" fill="white"/>
</g>
<path d="M206.722 138.495C206.722 138.495 197.92 148.193 197.722 148.557C197.524 148.922 195.153 154.52 195.738 155.654C196.323 156.788 200.733 160.771 200.733 160.771C200.733 160.771 202.308 160.091 200.818 157.427L199.329 154.768L200.13 152.067C200.13 152.067 201.318 155.474 202.006 156.221C202.695 156.968 205.422 158.246 206.106 157.571C206.514 157.181 206.789 156.673 206.893 156.118C206.893 156.118 208.761 157.603 210.079 155.24C210.079 155.24 211.74 154.984 212.451 153.823C213.162 152.662 213.09 150.465 213.09 150.465C213.021 150.322 212.921 150.196 212.797 150.097C212.673 149.998 212.528 149.928 212.373 149.893C212.218 149.858 212.057 149.859 211.902 149.895C211.747 149.931 211.603 150.001 211.479 150.101C210.774 150.637 210.229 151.356 209.904 152.18L209.134 151.154C209.335 149.769 209.73 148.419 210.309 147.144C210.844 146.118 214.301 143.882 214.71 142.1C215.057 140.592 212.042 139.593 210.493 139.679C210.261 139.692 210.032 139.739 209.814 139.818L206.722 138.495Z" fill="#FFBF9D"/>
<path d="M205.957 150.88C205.943 150.968 205.943 151.057 205.957 151.145C205.977 151.382 206.018 151.617 206.078 151.847C206.277 152.618 206.671 153.324 207.223 153.898C207.775 154.471 208.466 154.892 209.229 155.119C209.458 155.188 209.693 155.236 209.931 155.263C210.017 155.277 210.105 155.277 210.192 155.263C210.192 155.236 209.818 155.209 209.256 155.02C208.52 154.774 207.854 154.356 207.312 153.8C206.779 153.238 206.386 152.558 206.164 151.816C205.993 151.253 205.979 150.88 205.957 150.88Z" fill="#FF9A6C"/>
<path d="M202.996 150.587C202.986 150.68 202.986 150.773 202.996 150.866C203.001 150.976 203.013 151.086 203.032 151.194C203.047 151.346 203.071 151.496 203.104 151.644C203.187 152.014 203.3 152.377 203.442 152.729C203.797 153.592 204.327 154.372 204.999 155.02C205.275 155.286 205.577 155.526 205.899 155.735C206.029 155.83 206.16 155.897 206.268 155.965C206.376 156.032 206.479 156.077 206.56 156.113C206.643 156.159 206.73 156.196 206.821 156.221C206.821 156.199 206.47 156.032 205.953 155.659C205.648 155.441 205.362 155.199 205.098 154.934C204.775 154.61 204.483 154.258 204.225 153.881C203.943 153.485 203.693 153.066 203.478 152.63C203.358 152.303 203.267 151.965 203.208 151.622C203.046 150.983 203.023 150.582 202.996 150.587Z" fill="#FF9A6C"/>
<path d="M199.625 149.885C199.625 149.885 199.549 150.015 199.517 150.249C199.485 150.554 199.522 150.861 199.625 151.149C199.716 151.448 199.888 151.715 200.12 151.923C200.291 152.085 200.422 152.153 200.431 152.139C200.137 151.842 199.905 151.491 199.747 151.104C199.629 150.709 199.588 150.295 199.625 149.885Z" fill="#FF9A6C"/>
<path d="M229.983 120.121C229.983 120.157 229.501 119.833 228.664 119.531C227.578 119.137 226.408 119.027 225.267 119.212C224.129 119.418 223.079 119.957 222.247 120.76C221.599 121.367 221.28 121.826 221.244 121.804C221.291 121.679 221.36 121.564 221.446 121.462C221.652 121.17 221.883 120.896 222.135 120.643C222.963 119.765 224.051 119.176 225.24 118.964C226.42 118.772 227.63 118.91 228.736 119.365C229.07 119.498 229.389 119.664 229.69 119.86C229.884 120.017 229.992 120.107 229.983 120.121Z" fill="#FF9A6C"/>
<path d="M184.347 80.0206C184.347 77.073 184.347 74.1074 183.834 71.2003C183.321 68.2933 182.309 65.4267 180.482 63.1001C180.203 62.7491 178.074 60.4855 177.665 60.6611C177.372 60.7916 178.956 63.0326 178.889 63.3611C178.241 66.3402 178.817 69.4858 179.987 72.3029C181.149 75.0309 182.611 77.6209 184.347 80.0251" fill="#263238"/>
<path d="M181.139 69.225C179.091 62.1148 173.25 57.3806 166.199 59.6262L165.56 59.8692C162.457 61.0606 159.916 63.3761 158.443 66.3554C156.969 69.3346 156.671 72.7592 157.608 75.9481C159.408 82.0998 161.496 88.8725 162.76 92.0586C165.389 98.6558 172.413 97.1437 172.413 97.1437L176.796 107.224L190.747 100.073L181.139 69.225Z" fill="#FFBF9D"/>
<path d="M172.445 97.1939C175.501 96.0141 178.156 93.9841 180.095 91.3438C180.095 91.3438 180.293 97.5404 173.448 99.4845L172.445 97.1939Z" fill="#FF9A6C"/>
<path d="M162.333 81.9242C162.427 82.1697 162.613 82.3688 162.852 82.4789C163.091 82.589 163.363 82.6015 163.611 82.5137C163.735 82.4772 163.85 82.4164 163.95 82.3347C164.05 82.2531 164.133 82.1523 164.193 82.0382C164.253 81.9241 164.29 81.7992 164.302 81.6706C164.313 81.542 164.299 81.4125 164.259 81.2896C164.161 81.0473 163.974 80.852 163.736 80.7447C163.498 80.6374 163.227 80.6262 162.981 80.7136C162.859 80.7502 162.745 80.8105 162.646 80.8913C162.547 80.972 162.465 81.0715 162.405 81.184C162.345 81.2965 162.307 81.4199 162.295 81.5469C162.283 81.6739 162.296 81.8021 162.333 81.9242Z" fill="#263238"/>
<path d="M160.097 78.1537C160.263 78.2347 160.776 77.4292 161.798 77.0377C162.819 76.6462 163.76 76.8757 163.818 76.7092C163.854 76.6327 163.647 76.4527 163.233 76.3402C162.675 76.2046 162.088 76.2455 161.555 76.4572C161.024 76.6569 160.572 77.0212 160.263 77.4967C160.038 77.8567 160.02 78.1222 160.097 78.1537Z" fill="#263238"/>
<path d="M171.041 78.8691C171.132 79.1172 171.317 79.3196 171.556 79.4332C171.795 79.5467 172.068 79.5623 172.319 79.4766C172.443 79.4402 172.559 79.3792 172.659 79.2973C172.759 79.2153 172.842 79.114 172.903 78.9995C172.963 78.8849 173 78.7593 173.011 78.6303C173.022 78.5012 173.007 78.3712 172.967 78.2481C172.875 78 172.69 77.7975 172.451 77.684C172.213 77.5705 171.939 77.5549 171.689 77.6406C171.565 77.6775 171.449 77.7388 171.349 77.8209C171.249 77.903 171.167 78.0042 171.106 78.1186C171.046 78.233 171.009 78.3584 170.998 78.4872C170.987 78.6161 171.001 78.7459 171.041 78.8691Z" fill="#263238"/>
<path d="M170.231 74.737C170.397 74.818 170.91 74.0079 171.932 73.6209C172.953 73.2339 173.89 73.4589 173.953 73.2879C173.989 73.2159 173.782 73.0359 173.368 72.9234C172.81 72.7885 172.224 72.8278 171.689 73.0359C171.158 73.2388 170.704 73.6042 170.393 74.0799C170.177 74.44 170.154 74.7055 170.231 74.737Z" fill="#263238"/>
<path d="M169.583 83.9676C169.583 83.9046 168.89 84.0396 167.814 84.3006C167.544 84.3771 167.279 84.4176 167.166 84.2556C167.039 83.9964 166.996 83.7035 167.045 83.4186C167.045 82.6986 167.045 81.9381 167.045 81.1461C167.045 77.915 166.914 75.2959 166.784 75.2959C166.653 75.2959 166.559 77.9195 166.572 81.1461C166.572 81.9426 166.572 82.6986 166.599 83.4231C166.559 83.799 166.649 84.1773 166.856 84.4941C166.929 84.571 167.019 84.6303 167.119 84.6677C167.219 84.7051 167.326 84.7196 167.432 84.7102C167.585 84.6921 167.736 84.6558 167.882 84.6021C168.957 84.2646 169.601 84.0261 169.583 83.9676Z" fill="#263238"/>
<path d="M172.85 83.5223C172.679 83.5763 173.102 84.6788 172.458 85.8263C171.814 86.9739 170.59 87.3069 170.658 87.4644C170.658 87.5409 171.004 87.5769 171.504 87.4014C172.149 87.1636 172.692 86.7086 173.039 86.1143C173.367 85.5353 173.459 84.8516 173.295 84.2063C173.151 83.7113 172.922 83.4863 172.85 83.5223Z" fill="#263238"/>
<path d="M168.701 70.585C168.908 70.8235 169.875 70.3014 171.126 69.9864C172.377 69.6714 173.466 69.6264 173.529 69.3204C173.556 69.1719 173.286 68.9784 172.796 68.8704C172.149 68.7369 171.48 68.7569 170.843 68.9289C170.204 69.0864 169.613 69.3951 169.119 69.8289C168.746 70.1664 168.611 70.4725 168.701 70.585Z" fill="#263238"/>
<path d="M159.219 74.6068C159.489 74.7688 160.097 74.2603 160.938 73.9273C161.78 73.5943 162.554 73.4773 162.626 73.1758C162.653 73.0318 162.45 72.8428 162.054 72.7258C161.535 72.6286 160.998 72.6859 160.511 72.8907C160.024 73.0954 159.608 73.4387 159.314 73.8778C159.089 74.2513 159.089 74.5258 159.219 74.6068Z" fill="#263238"/>
<path d="M182.489 74.3417C182.583 74.2472 186.539 71.2456 188.118 75.8312C189.698 80.4169 184.793 81.0739 184.739 80.9434C184.685 80.8129 182.489 74.3417 182.489 74.3417Z" fill="#FFBF9D"/>
<path d="M185.536 78.7203C185.536 78.7203 185.635 78.7473 185.792 78.7608C186.011 78.7773 186.227 78.7079 186.395 78.5673C186.814 78.2208 186.958 77.3118 186.692 76.4747C186.57 76.0799 186.365 75.7161 186.089 75.4082C185.996 75.2805 185.873 75.1773 185.731 75.1076C185.589 75.0378 185.433 75.0035 185.275 75.0077C185.176 75.0186 185.083 75.0621 185.011 75.1313C184.94 75.2006 184.893 75.2916 184.879 75.3902C184.879 75.5387 184.924 75.6197 184.901 75.6377C184.879 75.6557 184.775 75.5927 184.748 75.3902C184.732 75.2673 184.761 75.1426 184.829 75.0392C184.922 74.9003 185.066 74.8033 185.23 74.7692C185.431 74.7411 185.636 74.7652 185.825 74.8393C186.014 74.9134 186.181 75.0349 186.31 75.1922C186.645 75.5202 186.893 75.9271 187.03 76.3757C187.322 77.3073 187.151 78.3378 186.553 78.7608C186.442 78.8389 186.316 78.8912 186.183 78.9138C186.05 78.9364 185.913 78.9287 185.783 78.8913C185.581 78.8283 185.522 78.7338 185.536 78.7203Z" fill="#FF9A6C"/>
<path d="M158.031 67.3215C157.131 67.164 158.566 63.9959 160.114 62.5514C162.454 60.3598 166.414 58.1638 169.213 58.0243C172.575 57.8577 175.64 58.5238 178.124 60.7963C180.571 63.1373 182.35 66.0888 183.276 69.3466C183.645 70.3111 183.75 71.3568 183.578 72.3751C183.276 73.6082 182.264 74.6657 182.79 76.0517C182.894 76.2998 182.947 76.5659 182.947 76.8348C182.947 77.1036 182.894 77.3698 182.79 77.6178C182.25 78.7968 180.936 78.3018 180.18 77.6178C178.56 76.1597 177.719 74.0447 176.936 72.0106C176.378 70.5661 175.811 69.0856 175.748 67.5375C175.716 66.696 175.833 65.85 175.748 65.0084C175.733 64.5859 175.627 64.1715 175.436 63.794C175.246 63.4164 174.976 63.0846 174.645 62.8214C174.485 62.722 174.317 62.6376 174.141 62.5694C173.311 62.2263 172.404 62.1105 171.515 62.2339C170.625 62.3573 169.784 62.7154 169.078 63.2714C166.797 65.0714 162.837 67.9245 161.383 67.4385C159.295 66.732 158.616 66.0435 158.616 66.0435L158.031 67.3215Z" fill="#263238"/>
<path d="M151.091 110.001C151.091 110.001 150.434 108.147 152.662 105.653C154.89 103.16 172.543 98.2643 172.543 98.2643C172.543 98.2643 178.961 105.532 184.514 100.568C188.564 96.9683 188.699 93.3682 188.699 93.3682H204.674L206.668 109.78L200.3 109.816L151.091 110.001Z" fill="#0EC79B"/>
<path d="M201.771 93.3634C201.771 93.3634 205.939 92.5219 209.746 94.2634C216.14 97.166 227.251 106.414 227.251 106.414L213.751 117.507L204.391 109.829L201.771 93.3634Z" fill="#0EC79B"/>
<path d="M207.577 112.481C207.515 112.459 207.456 112.428 207.401 112.391C207.293 112.324 207.131 112.225 206.951 112.085C206.39 111.697 205.859 111.266 205.363 110.798C204.619 110.107 203.947 109.341 203.36 108.512C202.614 107.502 202.105 106.336 201.871 105.101C201.421 102.482 201.812 99.9979 202.658 98.4679C202.983 97.8575 203.43 97.3212 203.972 96.8928C204.123 96.7829 204.281 96.6836 204.445 96.5958C204.553 96.5328 204.616 96.5013 204.62 96.5103C204.625 96.5193 204.404 96.6723 204.026 96.9603C203.522 97.4048 203.107 97.9408 202.802 98.5399C202.019 100.047 201.641 102.486 202.1 105.052C202.329 106.253 202.819 107.39 203.536 108.382C204.106 109.206 204.756 109.974 205.475 110.672C205.96 111.15 206.471 111.601 207.005 112.022C207.204 112.165 207.395 112.318 207.577 112.481Z" fill="#263238"/>
<path d="M204.378 109.789C204.378 109.852 193.379 109.951 179.811 110.005C166.244 110.059 155.241 110.05 155.241 109.983C155.241 109.915 166.239 109.825 179.811 109.771C193.384 109.717 204.378 109.722 204.378 109.789Z" fill="#263238"/>
<path d="M145.335 107.544C145.367 107.611 145.394 107.679 145.421 107.746C145.532 108.066 145.598 108.399 145.619 108.736C145.618 108.896 145.625 109.055 145.641 109.213C145.678 109.31 145.721 109.403 145.772 109.492C145.97 110.13 146.03 110.801 145.948 111.464C145.863 112.186 145.989 112.918 146.312 113.57C146.69 114.191 147.568 114.555 148.166 114.141C148.137 114.37 148.193 114.602 148.323 114.793C148.453 114.983 148.649 115.12 148.873 115.176C149.099 115.225 149.335 115.215 149.556 115.146C149.778 115.077 149.978 114.953 150.137 114.785C150.454 114.446 150.672 114.028 150.767 113.574C150.776 113.845 150.89 114.102 151.085 114.291C151.28 114.48 151.54 114.586 151.811 114.587C152.082 114.574 152.345 114.493 152.577 114.351C152.808 114.21 153 114.012 153.134 113.777C153.394 113.301 153.548 112.774 153.584 112.233C153.655 111.537 153.765 110.846 153.913 110.163C153.913 110.163 154.592 110.275 154.903 110.302H154.993C155.265 109.963 155.484 109.584 155.641 109.177C156.091 108.277 156.406 107.719 156.734 106.927C156.986 106.324 157.144 105.717 156.77 105.325C155.87 104.376 154.106 106.306 154.106 106.306C153.854 105.631 151.807 105.523 151.406 106.419C151.244 105.924 151.307 105.64 150.907 105.307C150.711 105.137 150.477 105.016 150.226 104.952C149.974 104.889 149.711 104.886 149.458 104.943C149.202 105.004 148.974 105.15 148.811 105.356C148.647 105.563 148.558 105.818 148.558 106.081C148.339 105.744 148.023 105.481 147.652 105.326C147.281 105.171 146.872 105.132 146.479 105.213C146.007 105.328 145.596 105.613 145.322 106.014C145.187 106.211 145.088 106.43 145.029 106.662C144.997 106.748 144.981 106.84 144.98 106.932C144.987 106.973 145.001 107.012 145.02 107.049C145.137 107.211 145.254 107.364 145.335 107.544Z" fill="#FFBF9D"/>
<path d="M143.171 106.234C142.949 106.209 142.724 106.233 142.512 106.304C142.3 106.375 142.106 106.49 141.943 106.644C141.616 107.147 141.481 107.75 141.56 108.345C142.177 108.462 142.496 108.489 143.117 108.606C143.248 108.628 143.356 108.606 143.464 108.673C143.747 108.876 143.702 109.573 143.815 109.888C143.936 110.167 144.159 110.389 144.439 110.508C144.718 110.628 145.033 110.636 145.318 110.532C145.598 110.411 145.837 110.213 146.009 109.962C146.18 109.71 146.276 109.414 146.286 109.11C146.29 108.496 146.065 107.902 145.656 107.445C145.347 107.082 144.968 106.788 144.54 106.58C144.113 106.371 143.647 106.254 143.171 106.234Z" fill="#FFBF9D"/>
<path d="M148.585 105.914C148.702 105.914 148.702 107.773 148.585 110.05C148.468 112.327 148.279 114.168 148.167 114.163C148.054 114.159 148.05 112.305 148.167 110.027C148.284 107.75 148.473 105.887 148.585 105.914Z" fill="#FF9A6C"/>
<path d="M151.438 106.283C151.551 106.283 151.699 107.966 151.519 110.036C151.339 112.106 150.907 113.744 150.799 113.722C150.691 113.699 150.93 112.043 151.101 110C151.272 107.957 151.308 106.288 151.438 106.283Z" fill="#FF9A6C"/>
<path d="M154.21 106.667C154.327 106.667 154.377 108.067 154.156 109.768C153.936 111.469 153.679 112.814 153.571 112.805C153.463 112.796 153.526 111.401 153.742 109.714C153.958 108.026 154.093 106.663 154.21 106.667Z" fill="#FF9A6C"/>
<path d="M144.063 106.522C144.063 106.473 144.36 106.405 144.787 106.603C145.326 106.879 145.735 107.356 145.926 107.931C146.126 108.476 146.222 109.055 146.209 109.636C146.16 110.149 145.786 110.298 145.759 110.23C145.732 110.163 145.93 110.005 145.894 109.627C145.819 109.1 145.692 108.582 145.516 108.079C145.348 107.59 145.034 107.165 144.616 106.86C144.319 106.635 144.058 106.585 144.063 106.522Z" fill="#FF9A6C"/>
<path d="M212.262 249.109C214.359 247.747 216.019 245.81 217.044 243.529C218.069 241.248 218.414 238.72 218.04 236.248L223.148 232.9L223.872 232.45L264.315 205.944C266.265 207.184 268.51 207.883 270.82 207.968C273.129 208.052 275.419 207.52 277.455 206.427C279.491 205.333 281.198 203.716 282.402 201.744C283.606 199.771 284.263 197.513 284.305 195.202L281.942 194.793L279.368 198.393L273.45 197.147L270.147 192.084L271.394 186.162L276.312 182.953L272.982 182.08C269.454 181.041 267.497 181.887 264.176 184.056C262.086 185.419 260.433 187.354 259.412 189.63C258.392 191.906 258.047 194.428 258.42 196.895L217.302 223.846L216.029 224.674L212.132 227.225C210.024 225.89 207.577 225.189 205.082 225.206C202.587 225.223 200.149 225.956 198.06 227.32C194.752 229.475 190.293 233.962 189.811 237.594L192.16 237.981L197.079 234.772L203.001 236.019L206.304 241.081L205.057 247.003L199.761 248.497L200.134 250.212C202.092 251.033 204.221 251.362 206.335 251.17C208.45 250.977 210.485 250.27 212.262 249.109Z" fill="#E0E0E0"/>
<g opacity="0.3">
<path d="M212.263 249.109C214.36 247.747 216.02 245.81 217.044 243.529C218.069 241.248 218.415 238.72 218.041 236.248L223.148 232.9L223.873 232.45L264.316 205.944C266.266 207.184 268.511 207.883 270.82 207.968C273.13 208.052 275.42 207.52 277.456 206.427C279.491 205.333 281.199 203.716 282.403 201.744C283.607 199.771 284.263 197.513 284.305 195.202L281.943 194.793L279.368 198.393L273.451 197.147L270.148 192.084L271.394 186.162L276.313 182.953L272.983 182.08C269.455 181.041 267.497 181.887 264.176 184.056C262.087 185.419 260.433 187.354 259.413 189.63C258.392 191.906 258.048 194.428 258.42 196.895L217.303 223.846L216.029 224.674L212.132 227.225C210.024 225.89 207.577 225.189 205.082 225.206C202.587 225.223 200.15 225.956 198.06 227.32C194.753 229.475 190.293 233.962 189.812 237.594L192.161 237.981L197.079 234.772L203.001 236.019L206.304 241.081L205.058 247.003L199.761 248.497L200.135 250.212C202.093 251.033 204.222 251.362 206.336 251.17C208.45 250.977 210.485 250.27 212.263 249.109Z" fill="black"/>
</g>
<path d="M209.913 248.722C212.007 247.358 213.663 245.42 214.684 243.139C215.705 240.858 216.047 238.331 215.669 235.861L220.781 232.508L221.501 232.058L261.944 205.548C263.895 206.793 266.142 207.494 268.455 207.58C270.767 207.667 273.061 207.134 275.099 206.038C277.137 204.942 278.845 203.322 280.048 201.345C281.251 199.369 281.905 197.107 281.942 194.793L276.992 198.006L271.074 196.759L267.771 191.692L269.018 185.775L273.941 182.562C271.81 181.667 269.48 181.357 267.189 181.662C264.899 181.967 262.731 182.876 260.908 184.297C259.086 185.717 257.674 187.598 256.819 189.745C255.965 191.892 255.697 194.227 256.044 196.512L214.926 223.468L213.671 224.269L209.774 226.825C207.823 225.589 205.579 224.894 203.271 224.812C200.963 224.73 198.675 225.264 196.641 226.359C194.608 227.454 192.903 229.071 191.701 231.043C190.499 233.015 189.844 235.271 189.802 237.58L194.725 234.367L200.643 235.613L203.946 240.681L202.7 246.598L197.79 249.825C199.747 250.645 201.875 250.974 203.989 250.781C206.102 250.589 208.136 249.882 209.913 248.722Z" fill="#E0E0E0"/>
<path d="M209.913 248.723C209.913 248.723 209.679 248.876 209.216 249.173C208.506 249.57 207.764 249.908 206.997 250.181C203.984 251.211 200.697 251.102 197.758 249.875L197.677 249.843L197.754 249.794L202.672 246.576L202.645 246.607C203.028 244.785 203.442 242.8 203.883 240.69V240.739C202.852 239.155 201.741 237.454 200.575 235.677L200.62 235.704L194.698 234.466H194.757L189.834 237.684L189.708 237.765V237.616C189.74 235.406 190.334 233.24 191.432 231.322C192.531 229.403 194.099 227.796 195.99 226.649C198.02 225.398 200.355 224.73 202.74 224.719C205.24 224.714 207.69 225.419 209.805 226.753H209.702L256.003 196.413L255.954 196.521C255.593 194.079 255.922 191.586 256.903 189.321C257.847 187.16 259.354 185.294 261.268 183.918C263.182 182.541 265.432 181.706 267.78 181.5C269.901 181.315 272.035 181.647 273.999 182.467L274.193 182.553L274.017 182.665L269.094 185.878L269.144 185.806C268.727 187.795 268.311 189.768 267.897 191.724V191.643L271.2 196.706L271.133 196.661L277.05 197.907H276.969L281.893 194.699L282.064 194.591V194.789C282.018 197.195 281.31 199.542 280.019 201.572C278.727 203.603 276.902 205.238 274.742 206.3C272.69 207.327 270.403 207.792 268.113 207.65C265.902 207.503 263.761 206.809 261.885 205.629H261.988L215.687 235.915V235.866C215.997 238 215.784 240.177 215.066 242.211C214.541 243.689 213.754 245.061 212.744 246.261C212.126 246.983 211.434 247.638 210.678 248.214C210.152 248.578 209.882 248.759 209.882 248.759L210.66 248.191C211.408 247.609 212.094 246.952 212.708 246.229C213.895 244.807 214.766 243.149 215.262 241.364C215.759 239.58 215.87 237.71 215.588 235.879V235.848H215.615L261.862 205.485L261.916 205.454L261.97 205.485C263.818 206.647 265.926 207.33 268.104 207.47C270.359 207.615 272.613 207.158 274.634 206.147C276.752 205.098 278.541 203.487 279.805 201.49C281.069 199.493 281.76 197.188 281.803 194.825L281.965 194.915L277.041 198.128L277.005 198.15H276.96L271.043 196.908H270.998V196.872L267.69 191.805L267.668 191.769V191.724C268.079 189.765 268.494 187.792 268.914 185.806V185.761L268.95 185.734L273.873 182.526V182.719C271.94 181.906 269.838 181.577 267.749 181.76C265.66 181.942 263.647 182.632 261.885 183.768C259.774 185.142 258.112 187.106 257.106 189.415C256.14 191.645 255.818 194.1 256.174 196.503V196.571L256.116 196.611L209.828 226.919L209.774 226.951L209.72 226.919C207.632 225.6 205.21 224.903 202.74 224.912C200.444 224.925 198.193 225.548 196.216 226.715C194.24 227.883 192.609 229.555 191.49 231.559C190.465 233.408 189.909 235.48 189.87 237.594L189.744 237.526L194.694 234.318H194.725L200.643 235.569H200.67V235.596L203.968 240.663V240.685V240.712C203.518 242.818 203.1 244.803 202.713 246.63V246.652L197.763 249.857V249.776C200.681 251.001 203.945 251.124 206.947 250.122C207.715 249.857 208.458 249.527 209.171 249.137L209.913 248.723Z" fill="#263238"/>
<path d="M260.121 203.74C260.121 203.74 260.008 203.681 259.828 203.551C259.574 203.357 259.332 203.148 259.104 202.925C257.586 201.445 256.553 199.538 256.143 197.458C256.078 197.146 256.036 196.83 256.017 196.513C255.999 196.398 255.999 196.281 256.017 196.166C256.053 196.166 256.111 196.652 256.296 197.426C256.54 198.431 256.912 199.4 257.403 200.311C257.895 201.219 258.499 202.061 259.203 202.817C259.761 203.393 260.143 203.708 260.121 203.74Z" fill="#263238"/>
<path d="M74.4094 82.5137H42.112C39.659 82.5137 37.6704 84.5023 37.6704 86.9553V119.253C37.6704 121.706 39.659 123.694 42.112 123.694H74.4094C76.8624 123.694 78.851 121.706 78.851 119.253V86.9553C78.851 84.5023 76.8624 82.5137 74.4094 82.5137Z" fill="#0EC79B"/>
<path d="M52.4622 93.9265C53.3118 93.4103 54.2278 93.0122 55.1848 92.743L55.7428 90.0429L60.2969 89.9619L60.9539 92.635C61.9197 92.8723 62.8491 93.2386 63.717 93.724L66.0166 92.212L69.2972 95.3621L67.8706 97.7156C68.3828 98.5668 68.7793 99.4824 69.0497 100.438L71.7497 101.001L71.8307 105.555L69.1577 106.212C68.9196 107.177 68.5533 108.107 68.0686 108.975L69.5807 111.274L66.4306 114.551L64.077 113.124C63.227 113.639 62.3112 114.038 61.3544 114.308L60.7919 117.008L56.2378 117.089L55.5853 114.429C54.6204 114.189 53.6914 113.823 52.8222 113.34L50.5227 114.848L47.2466 111.698L48.6731 109.348C48.1577 108.497 47.7596 107.58 47.4896 106.621L44.7895 106.063L44.7085 101.509L47.3816 100.852C47.6209 99.8871 47.9871 98.958 48.4706 98.0891L46.9631 95.7896L50.1131 92.509L52.4667 93.94L52.4622 93.9265ZM54.8878 99.9927C54.216 100.688 53.7656 101.567 53.5934 102.518C53.4212 103.469 53.5351 104.45 53.9205 105.337C54.3059 106.224 54.9457 106.976 55.7588 107.499C56.5718 108.022 57.5218 108.292 58.4884 108.275C59.455 108.258 60.3948 107.955 61.189 107.403C61.9832 106.852 62.5961 106.078 62.9501 105.178C63.3041 104.279 63.3834 103.294 63.1778 102.349C62.9723 101.405 62.4912 100.542 61.7955 99.8712C60.8631 98.9717 59.6117 98.4793 58.3165 98.5021C57.0212 98.5249 55.7879 99.061 54.8878 99.9927Z" fill="white"/>
<g opacity="0.3">
<path d="M69.5983 82.5137L37.6699 108.016V112.979L75.7409 82.5137H69.5983Z" fill="white"/>
</g>
<g opacity="0.3">
<path d="M37.7113 118.766L78.8514 86.8516V95.8113L42.0089 123.712C41.4405 123.711 40.8778 123.599 40.3532 123.38C39.8286 123.161 39.3524 122.84 38.9522 122.437C38.5519 122.033 38.2354 121.554 38.0209 121.028C37.8064 120.501 37.6981 119.938 37.7023 119.369L37.7113 118.766Z" fill="white"/>
</g>
</svg>
