<svg width="48" height="34" viewBox="0 0 48 34" fill="none" xmlns="http://www.w3.org/2000/svg">
<path d="M47.3334 31.0117C47.3334 32.295 46.2927 33.3333 45.0117 33.3333H26.3217C25.706 33.3333 25.1155 33.0887 24.6801 32.6533C24.2447 32.2179 24.0001 31.6274 24.0001 31.0117C24.0001 30.3959 24.2447 29.8054 24.6801 29.37C25.1155 28.9346 25.706 28.69 26.3217 28.69H45.0117C46.2951 28.69 47.3334 29.7283 47.3334 31.0117ZM47.3334 17C47.3334 18.2833 46.2927 19.3217 45.0117 19.3217H2.98841C2.37267 19.3217 1.78215 19.0771 1.34675 18.6417C0.911352 18.2063 0.666748 17.6157 0.666748 17C0.666748 16.3843 0.911352 15.7937 1.34675 15.3583C1.78215 14.9229 2.37267 14.6783 2.98841 14.6783H45.0117C46.2951 14.6783 47.3334 15.719 47.3334 17ZM45.0117 5.31C45.6275 5.31 46.218 5.0654 46.6534 4.63C47.0888 4.1946 47.3334 3.60408 47.3334 2.98833C47.3334 2.37259 47.0888 1.78206 46.6534 1.34667C46.218 0.91127 45.6275 0.666667 45.0117 0.666667H16.9884C16.6835 0.666667 16.3816 0.726719 16.1 0.843393C15.8183 0.960068 15.5623 1.13108 15.3467 1.34667C15.1312 1.56225 14.9601 1.81819 14.8435 2.09987C14.7268 2.38155 14.6667 2.68345 14.6667 2.98833C14.6667 3.29322 14.7268 3.59512 14.8435 3.8768C14.9601 4.15847 15.1312 4.41441 15.3467 4.63C15.5623 4.84559 15.8183 5.0166 16.1 5.13327C16.3816 5.24995 16.6835 5.31 16.9884 5.31H45.0117Z" fill="#0EC79B"/>
</svg>
