<svg width="29" height="28" viewBox="0 0 29 28" fill="none" xmlns="http://www.w3.org/2000/svg">
<circle cx="14.5" cy="14" r="14" fill="white"/>
<path d="M7.95535 22.2061L6.5 6H22.5L21.0447 22.1974L14.4868 24" fill="#E44D26"/>
<path d="M14.5 22.6219V7.3302H21.0402L19.7922 21.1562" fill="#F16529"/>
<path d="M9.47241 9.31213H14.5V11.2985H11.6687L11.8539 13.333H14.5V15.3151H10.0193L9.47241 9.31213ZM10.1075 16.3126H12.1185L12.2596 17.9009L14.5 18.4959V20.5698L10.3897 19.4322" fill="#EBEBEB"/>
<path d="M19.5098 9.31213H14.4911V11.2985H19.3246L19.5098 9.31213ZM19.1438 13.333H14.4911V15.3194H16.9608L16.727 17.9009L14.4911 18.4959V20.561L18.5925 19.4322" fill="white"/>
</svg>
