<svg width="56" height="56" viewBox="0 0 56 56" fill="none" xmlns="http://www.w3.org/2000/svg">
<path d="M51.3334 42.0116C51.3334 43.295 50.2927 44.3333 49.0117 44.3333H30.3217C29.706 44.3333 29.1155 44.0887 28.6801 43.6533C28.2447 43.2179 28.0001 42.6274 28.0001 42.0116C28.0001 41.3959 28.2447 40.8054 28.6801 40.37C29.1155 39.9346 29.706 39.69 30.3217 39.69H49.0117C50.2951 39.69 51.3334 40.7283 51.3334 42.0116ZM51.3334 28C51.3334 29.2833 50.2927 30.3216 49.0117 30.3216H6.98841C6.37267 30.3216 5.78215 30.077 5.34675 29.6416C4.91135 29.2062 4.66675 28.6157 4.66675 28C4.66675 27.3842 4.91135 26.7937 5.34675 26.3583C5.78215 25.9229 6.37267 25.6783 6.98841 25.6783H49.0117C50.2951 25.6783 51.3334 26.719 51.3334 28ZM49.0117 16.31C49.6275 16.31 50.218 16.0654 50.6534 15.63C51.0888 15.1946 51.3334 14.604 51.3334 13.9883C51.3334 13.3725 51.0888 12.782 50.6534 12.3466C50.218 11.9112 49.6275 11.6666 49.0117 11.6666H20.9884C20.6835 11.6666 20.3816 11.7267 20.1 11.8434C19.8183 11.96 19.5623 12.131 19.3467 12.3466C19.1312 12.5622 18.9601 12.8182 18.8435 13.0998C18.7268 13.3815 18.6667 13.6834 18.6667 13.9883C18.6667 14.2932 18.7268 14.5951 18.8435 14.8768C18.9601 15.1584 19.1312 15.4144 19.3467 15.63C19.5623 15.8455 19.8183 16.0166 20.1 16.1332C20.3816 16.2499 20.6835 16.31 20.9884 16.31H49.0117Z" fill="#0EC79B"/>
</svg>
