<svg width="12" height="20" viewBox="0 0 12 20" fill="none" xmlns="http://www.w3.org/2000/svg">
<path d="M10.8501 19.1C11.1001 18.85 11.2251 18.5542 11.2251 18.2125C11.2251 17.8708 11.1001 17.575 10.8501 17.325L3.5251 10L10.8751 2.65C11.1084 2.41667 11.2251 2.125 11.2251 1.775C11.2251 1.425 11.1001 1.125 10.8501 0.875C10.6001 0.625 10.3043 0.5 9.9626 0.5C9.62093 0.5 9.3251 0.625 9.0751 0.875L0.675097 9.3C0.575097 9.4 0.504265 9.50833 0.462598 9.625C0.420931 9.74167 0.400098 9.86667 0.400098 10C0.400098 10.1333 0.420931 10.2583 0.462598 10.375C0.504265 10.4917 0.575097 10.6 0.675097 10.7L9.1001 19.125C9.33343 19.3583 9.62093 19.475 9.9626 19.475C10.3043 19.475 10.6001 19.35 10.8501 19.1Z" fill="white"/>
</svg>
