<svg width="312" height="312" viewBox="0 0 312 312" fill="none" xmlns="http://www.w3.org/2000/svg">
<path d="M190.333 224.014H271.249C271.616 224.014 271.967 224.159 272.226 224.419C272.485 224.678 272.631 225.029 272.631 225.395V225.946C272.631 226.312 272.485 226.664 272.226 226.923C271.967 227.182 271.616 227.328 271.249 227.328H190.333V223.986V224.014Z" fill="#0EC79B"/>
<path d="M189.237 225.946C189.237 226.017 182.45 226.067 174.077 226.067C165.705 226.067 158.918 226.017 158.918 225.946C158.918 225.874 165.705 225.83 174.077 225.83C182.45 225.83 189.237 225.891 189.237 225.946Z" fill="#263238"/>
<path d="M162.364 207.214H200.345V227.361H162.364C160.153 227.361 158.034 226.483 156.471 224.92C154.908 223.357 154.03 221.237 154.03 219.027V215.548C154.03 214.454 154.245 213.37 154.664 212.359C155.083 211.348 155.697 210.429 156.471 209.655C157.245 208.881 158.163 208.268 159.174 207.849C160.186 207.43 161.269 207.214 162.364 207.214Z" fill="#0EC79B"/>
<path d="M190.96 207.214H271.233C271.599 207.214 271.951 207.36 272.21 207.619C272.469 207.878 272.614 208.23 272.614 208.596V209.146C272.614 209.513 272.469 209.864 272.21 210.123C271.951 210.383 271.599 210.528 271.233 210.528H190.96C190.798 210.528 190.643 210.466 190.526 210.354C190.409 210.242 190.34 210.09 190.333 209.928V207.842C190.333 207.675 190.399 207.516 190.516 207.398C190.634 207.28 190.794 207.214 190.96 207.214Z" fill="#0EC79B"/>
<path d="M270.159 224.013H199.514C197.729 224.013 196.018 223.304 194.755 222.043C193.493 220.782 192.783 219.071 192.782 217.286C192.783 215.502 193.493 213.791 194.755 212.529C196.018 211.268 197.729 210.56 199.514 210.56H270.159C269.223 212.678 268.739 214.97 268.739 217.286C268.739 219.603 269.223 221.894 270.159 224.013Z" fill="#F5F5F5"/>
<g opacity="0.3">
<path d="M192.782 227.36H161.664C160.662 227.36 159.67 227.163 158.744 226.779C157.818 226.395 156.976 225.833 156.268 225.124C155.559 224.415 154.997 223.573 154.614 222.647C154.231 221.721 154.034 220.728 154.035 219.726V214.772C154.034 213.777 154.23 212.792 154.61 211.873C154.99 210.954 155.547 210.119 156.25 209.416C156.953 208.713 157.788 208.155 158.706 207.774C159.625 207.393 160.609 207.197 161.604 207.197H193.53C186.259 211.634 186.804 222.214 192.782 227.36Z" fill="black"/>
</g>
<path d="M261.561 217.916C261.561 217.982 247.057 218.037 229.178 218.037C211.299 218.037 196.789 217.982 196.789 217.916C196.789 217.849 211.288 217.794 229.178 217.794C247.068 217.794 261.561 217.849 261.561 217.916Z" fill="#263238"/>
<path d="M268.244 220.903C268.244 220.969 253.739 221.024 235.855 221.024C217.971 221.024 203.472 220.969 203.472 220.903C203.472 220.837 217.965 220.782 235.855 220.782C253.745 220.782 268.244 220.837 268.244 220.903Z" fill="#263238"/>
<path d="M266.278 213.67C266.278 213.736 251.774 213.792 233.89 213.792C216.005 213.792 201.506 213.736 201.506 213.67C201.506 213.604 216 213.549 233.89 213.549C251.779 213.549 266.278 213.604 266.278 213.67Z" fill="#263238"/>
<path d="M189.237 208.887C189.237 208.953 182.45 209.008 174.077 209.008C165.705 209.008 158.918 208.953 158.918 208.887C158.918 208.821 165.705 208.766 174.077 208.766C182.45 208.766 189.237 208.827 189.237 208.887Z" fill="#263238"/>
<path d="M147.815 241.501H192.595C193.698 241.501 194.757 241.939 195.537 242.72C196.318 243.5 196.756 244.559 196.756 245.662V263.277C196.756 264.381 196.318 265.439 195.537 266.22C194.757 267 193.698 267.438 192.595 267.438H147.815C144.971 267.438 142.243 266.309 140.231 264.298C138.219 262.287 137.088 259.56 137.087 256.716V252.235C137.086 250.826 137.363 249.43 137.902 248.128C138.441 246.825 139.231 245.642 140.227 244.645C141.224 243.648 142.406 242.858 143.708 242.318C145.01 241.779 146.406 241.501 147.815 241.501Z" fill="#0EC79B"/>
<path d="M184.861 241.501H288.016C288.489 241.501 288.943 241.689 289.277 242.023C289.612 242.358 289.799 242.811 289.799 243.284V244.028C289.799 244.262 289.753 244.494 289.664 244.71C289.574 244.926 289.443 245.123 289.277 245.289C289.111 245.454 288.915 245.586 288.698 245.675C288.482 245.765 288.25 245.811 288.016 245.811H184.861C184.588 245.811 184.326 245.703 184.133 245.51C183.94 245.317 183.832 245.055 183.832 244.782V242.53C183.832 242.257 183.94 241.996 184.133 241.802C184.326 241.609 184.588 241.501 184.861 241.501Z" fill="#0EC79B"/>
<path d="M184.861 263.134H288.016C288.489 263.134 288.943 263.322 289.277 263.657C289.612 263.991 289.799 264.445 289.799 264.918V265.661C289.799 266.134 289.612 266.587 289.277 266.922C288.943 267.256 288.489 267.444 288.016 267.444H184.861C184.588 267.444 184.326 267.336 184.133 267.143C183.94 266.95 183.832 266.688 183.832 266.415V264.164C183.832 264.028 183.858 263.895 183.91 263.77C183.962 263.645 184.037 263.531 184.133 263.436C184.229 263.34 184.342 263.264 184.467 263.213C184.592 263.161 184.726 263.134 184.861 263.134Z" fill="#0EC79B"/>
<path d="M286.64 263.134H195.655C193.357 263.134 191.154 262.222 189.529 260.597C187.904 258.972 186.991 256.768 186.991 254.47C186.991 252.172 187.904 249.969 189.529 248.344C191.154 246.719 193.357 245.806 195.655 245.806H286.64C285.431 248.535 284.807 251.486 284.807 254.47C284.807 257.455 285.431 260.406 286.64 263.134Z" fill="#F5F5F5"/>
<g opacity="0.3">
<path d="M186.991 267.445H149.918C146.515 267.445 143.251 266.093 140.845 263.687C138.439 261.28 137.087 258.017 137.087 254.614C137.086 252.892 137.425 251.187 138.083 249.597C138.741 248.006 139.707 246.56 140.924 245.343C142.141 244.125 143.586 243.159 145.176 242.5C146.767 241.841 148.472 241.502 150.193 241.502H187.976C178.586 247.194 179.285 260.817 186.991 267.445Z" fill="black"/>
</g>
<path d="M275.587 255.274C275.587 255.346 256.91 255.395 233.879 255.395C210.848 255.395 192.171 255.346 192.171 255.274C192.171 255.203 210.837 255.159 233.879 255.159C256.921 255.159 275.587 255.208 275.587 255.274Z" fill="#263238"/>
<path d="M284.168 259.127C284.168 259.193 265.491 259.248 242.46 259.248C219.429 259.248 200.752 259.193 200.752 259.127C200.752 259.061 219.424 259.006 242.46 259.006C265.497 259.006 284.168 259.061 284.168 259.127Z" fill="#263238"/>
<path d="M281.636 251.702C281.636 251.768 262.965 251.823 239.934 251.823C216.903 251.823 198.22 251.768 198.22 251.702C198.22 251.636 216.892 251.581 239.934 251.581C262.976 251.581 281.636 251.636 281.636 251.702Z" fill="#263238"/>
<path d="M182.422 265.621C182.422 265.693 173.681 265.743 162.903 265.743C152.125 265.743 143.378 265.693 143.378 265.621C143.378 265.55 152.114 265.506 162.903 265.506C173.692 265.506 182.422 265.555 182.422 265.621Z" fill="#263238"/>
<path d="M182.422 243.654C182.422 243.72 173.681 243.775 162.903 243.775C152.125 243.775 143.378 243.72 143.378 243.654C143.378 243.588 152.114 243.533 162.903 243.533C173.692 243.533 182.422 243.588 182.422 243.654Z" fill="#263238"/>
<path d="M169.916 226.743H211.965C212.041 226.743 212.114 226.773 212.168 226.827C212.221 226.881 212.251 226.954 212.251 227.03V241.303C212.251 241.379 212.221 241.452 212.168 241.505C212.114 241.559 212.041 241.589 211.965 241.589H169.916C168.287 241.589 166.724 240.942 165.572 239.79C164.42 238.638 163.773 237.075 163.773 235.446V232.881C163.773 231.252 164.42 229.689 165.572 228.537C166.724 227.385 168.287 226.738 169.916 226.738V226.743Z" fill="#455A64"/>
<path d="M202.41 226.744H286.398C286.782 226.744 287.15 226.896 287.422 227.168C287.693 227.439 287.846 227.807 287.846 228.191V228.797C287.846 229.181 287.693 229.549 287.422 229.821C287.15 230.092 286.782 230.245 286.398 230.245H202.41C202.323 230.245 202.237 230.227 202.157 230.194C202.077 230.161 202.004 230.112 201.942 230.051C201.881 229.99 201.832 229.917 201.799 229.837C201.766 229.757 201.749 229.671 201.749 229.584V227.382C201.755 227.211 201.827 227.048 201.95 226.929C202.073 226.81 202.238 226.744 202.41 226.744Z" fill="#455A64"/>
<path d="M202.41 238.093H286.398C286.782 238.093 287.15 238.246 287.422 238.517C287.693 238.789 287.846 239.157 287.846 239.541V240.146C287.846 240.53 287.693 240.899 287.422 241.17C287.15 241.442 286.782 241.594 286.398 241.594H202.41C202.323 241.594 202.237 241.577 202.157 241.544C202.077 241.511 202.004 241.462 201.942 241.401C201.881 241.339 201.832 241.267 201.799 241.186C201.766 241.106 201.749 241.02 201.749 240.934V238.732C201.755 238.56 201.827 238.398 201.95 238.279C202.073 238.16 202.238 238.093 202.41 238.093Z" fill="#455A64"/>
<path d="M285.28 238.093H208.217C207.701 238.09 207.192 237.986 206.716 237.786C206.241 237.586 205.81 237.295 205.448 236.928C205.086 236.562 204.799 236.127 204.604 235.65C204.41 235.173 204.311 234.662 204.314 234.147C204.314 233.105 204.727 232.106 205.463 231.369C206.199 230.633 207.197 230.218 208.239 230.216H285.302C283.302 232.836 283.295 235.462 285.28 238.093Z" fill="#F5F5F5"/>
<g opacity="0.3">
<path d="M204.314 241.595H171.138C169.185 241.595 167.311 240.819 165.93 239.438C164.549 238.057 163.773 236.183 163.773 234.23C163.773 232.244 164.562 230.34 165.966 228.936C167.37 227.532 169.274 226.744 171.259 226.744H205.118C197.488 229.997 198.061 237.802 204.314 241.595Z" fill="black"/>
</g>
<path d="M276.297 233.548C276.297 233.619 261.126 233.669 242.411 233.669C223.695 233.669 208.525 233.619 208.525 233.548C208.525 233.476 223.695 233.432 242.411 233.432C261.126 233.432 276.297 233.482 276.297 233.548Z" fill="#263238"/>
<path d="M283.271 235.667C283.271 235.733 268.1 235.783 249.385 235.783C230.67 235.783 215.499 235.733 215.499 235.667C215.499 235.601 230.67 235.546 249.385 235.546C268.1 235.546 283.271 235.595 283.271 235.667Z" fill="#263238"/>
<path d="M200.604 240.12C200.604 240.186 193.503 240.241 184.745 240.241C175.988 240.241 168.881 240.186 168.881 240.12C168.881 240.054 175.982 239.999 184.745 239.999C193.509 239.999 200.604 240.054 200.604 240.12Z" fill="#263238"/>
<path d="M200.604 228.489C200.604 228.561 193.503 228.61 184.745 228.61C175.988 228.61 168.881 228.561 168.881 228.489C168.881 228.418 175.982 228.374 184.745 228.374C193.509 228.374 200.604 228.423 200.604 228.489Z" fill="#263238"/>
<path d="M286.832 226.744C286.832 226.81 260.779 226.859 228.649 226.859C196.519 226.859 170.461 226.81 170.461 226.744C170.461 226.678 196.508 226.623 228.649 226.623C260.79 226.623 286.832 226.678 286.832 226.744Z" fill="#263238"/>
<path d="M240.11 213.45V221.519L242.906 219.725L246.027 221.519V213.45H240.11Z" fill="#0EC79B"/>
<path d="M78.5627 54.8311H50.6382C50.3181 54.8315 50.0013 54.7668 49.707 54.641C49.4127 54.5151 49.147 54.3308 48.9262 54.0991C48.7053 53.8674 48.5339 53.5933 48.4222 53.2933C48.3106 52.9933 48.2611 52.6738 48.2768 52.3541L48.8272 40.5248C48.8569 39.9182 49.1185 39.3463 49.5581 38.9272C49.9976 38.5082 50.5814 38.2741 51.1887 38.2734H79.1077C79.428 38.2731 79.7451 38.3378 80.0397 38.4635C80.3343 38.5893 80.6002 38.7736 80.8215 39.0052C81.0428 39.2367 81.2148 39.5108 81.3271 39.8108C81.4393 40.1108 81.4895 40.4305 81.4746 40.7505L80.9242 52.5797C80.8945 53.1863 80.6329 53.7582 80.1933 54.1773C79.7538 54.5963 79.17 54.8304 78.5627 54.8311Z" fill="#FAFAFA"/>
<path d="M78.5626 54.8313C78.879 54.8126 79.1899 54.74 79.4819 54.6166C79.8957 54.4304 80.2472 54.1289 80.4942 53.7482C80.7412 53.3675 80.8732 52.9237 80.8745 52.4698C80.9791 50.0699 81.1277 46.624 81.3094 42.369C81.3094 41.3176 81.6562 40.1011 80.8745 39.2149C80.5149 38.7689 79.9956 38.4806 79.4268 38.4112C78.8764 38.3672 78.2103 38.4112 77.5938 38.4112H69.5737H51.2105C50.8283 38.4115 50.4524 38.5098 50.119 38.6967C49.7855 38.8837 49.5056 39.1531 49.306 39.4791C49.1076 39.8132 48.9959 40.1917 48.9812 40.58C48.9812 40.9819 48.9427 41.3782 48.9262 41.7745C48.8491 43.3598 48.772 44.9231 48.7005 46.4534C48.6289 47.9836 48.5519 49.4974 48.4803 50.9726C48.4803 51.3414 48.4418 51.7102 48.4252 52.0735C48.3818 52.4217 48.4061 52.775 48.4968 53.1139C48.5921 53.4382 48.7595 53.7369 48.9863 53.9875C49.2131 54.2382 49.4936 54.4344 49.8069 54.5616C50.1188 54.683 50.4522 54.7392 50.7867 54.7267H57.7555H64.7352L74.8526 54.7707H77.6048H78.3204H78.5681C78.4857 54.778 78.4028 54.778 78.3204 54.7707H77.6048H74.8526L64.7352 54.8148H57.7555H50.7867C50.411 54.8335 50.0356 54.7715 49.6858 54.6331C49.334 54.4927 49.0188 54.274 48.7641 53.9936C48.5095 53.7132 48.3221 53.3785 48.2161 53.0148C48.1206 52.6561 48.0926 52.2828 48.1335 51.9139L48.183 50.813C48.2528 49.3451 48.3243 47.8387 48.3977 46.2937C48.4693 44.758 48.5464 43.1947 48.6179 41.6094C48.6179 41.2186 48.6565 40.8167 48.6785 40.4204C48.6954 39.9933 48.8184 39.5771 49.0363 39.2094C49.2621 38.8413 49.5785 38.5372 49.9553 38.3261C50.3321 38.1151 50.7567 38.0041 51.1885 38.0039H69.5517H77.5718C78.2048 38.0039 78.7993 38.0039 79.4323 38.0314C80.0435 38.1157 80.6013 38.4246 80.9972 38.8978C81.3931 39.371 81.5985 39.9746 81.5736 40.591C81.5479 41.1488 81.5204 41.6993 81.491 42.2424C81.2708 46.4974 81.0892 49.9488 80.9406 52.3432C80.9315 52.8885 80.7374 53.4145 80.3901 53.835C80.1433 54.1444 79.8211 54.3852 79.4544 54.534C79.231 54.625 78.9954 54.6825 78.7553 54.7047C78.6941 54.7513 78.6297 54.7936 78.5626 54.8313Z" fill="#263238"/>
<path d="M165.424 54.9303L166.619 47.4551L171.71 44.4937L175.894 48.9799L174.633 56.6422L165.424 54.9303Z" fill="#0EC79B"/>
<path d="M188.967 62.8247L182.785 198.468L83.1257 195.638L77.1973 185.279L87.9146 59.2137L180.666 53.0762L188.967 62.8247Z" fill="#E0E0E0"/>
<g opacity="0.3">
<path d="M182.786 198.466L174.485 188.718L180.666 53.0747L188.967 62.8232L182.786 198.466Z" fill="black"/>
</g>
<path d="M180.667 53.0757L174.485 188.719L77.1978 185.278L84.5573 51.7051L180.667 53.0757Z" fill="#FAFAFA"/>
<path d="M180.645 53.075L84.5352 51.8199L84.6508 51.7098C82.6031 89.0361 80.0655 135.274 77.3188 185.289L77.1812 185.134L78.7885 185.189L174.468 188.586L174.331 188.712C178.079 108.605 180.611 54.2309 180.645 53.075C180.589 54.2309 178.167 108.61 174.59 188.723V188.85H174.457L78.8105 185.476L77.2032 185.421H77.0601V185.278C79.8123 135.263 82.3829 89.0306 84.4471 51.7043V51.5942H84.5572L180.645 53.075Z" fill="#263238"/>
<path d="M95.7576 84.4062L129.728 85.4025C130.442 85.4235 131.038 84.8615 131.059 84.1474L131.096 82.8764C131.117 82.1623 130.555 81.5664 129.841 81.5455L95.8707 80.5491C95.1566 80.5282 94.5607 81.0901 94.5397 81.8042L94.5025 83.0752C94.4815 83.7893 95.0434 84.3852 95.7576 84.4062Z" fill="#E0E0E0"/>
<path d="M95.4309 91.8666L129.401 92.863C130.115 92.8839 130.711 92.322 130.732 91.6079L130.77 90.3369C130.79 89.6228 130.229 89.0269 129.514 89.0059L95.544 88.0096C94.8299 87.9886 94.234 88.5506 94.2131 89.2647L94.1758 90.5357C94.1549 91.2498 94.7168 91.8457 95.4309 91.8666Z" fill="#E0E0E0"/>
<path d="M95.0989 99.3217L129.069 100.318C129.783 100.339 130.379 99.7771 130.4 99.0629L130.438 97.7919C130.458 97.0778 129.897 96.482 129.182 96.461L95.212 95.4647C94.4979 95.4437 93.902 96.0056 93.8811 96.7197L93.8438 97.9907C93.8228 98.7049 94.3848 99.3007 95.0989 99.3217Z" fill="#E0E0E0"/>
<path d="M94.7776 106.777L128.748 107.774C129.462 107.795 130.058 107.233 130.079 106.519L130.116 105.248C130.137 104.533 129.575 103.938 128.861 103.917L94.8907 102.92C94.1766 102.899 93.5807 103.461 93.5598 104.175L93.5225 105.446C93.5015 106.16 94.0635 106.756 94.7776 106.777Z" fill="#E0E0E0"/>
<path d="M94.4514 114.231L128.422 115.228C129.136 115.249 129.732 114.687 129.753 113.973L129.79 112.702C129.811 111.987 129.249 111.392 128.535 111.371L94.5645 110.374C93.8504 110.353 93.2546 110.915 93.2336 111.629L93.1963 112.9C93.1754 113.615 93.7373 114.21 94.4514 114.231Z" fill="#E0E0E0"/>
<path d="M94.1194 121.693L128.09 122.689C128.804 122.71 129.4 122.148 129.421 121.434L129.458 120.163C129.479 119.449 128.917 118.853 128.203 118.832L94.2325 117.836C93.5184 117.815 92.9225 118.377 92.9016 119.091L92.8643 120.362C92.8433 121.076 93.4052 121.672 94.1194 121.693Z" fill="#E0E0E0"/>
<path d="M93.7986 129.147L127.769 130.144C128.483 130.165 129.079 129.603 129.1 128.889L129.137 127.618C129.158 126.904 128.596 126.308 127.882 126.287L93.9117 125.29C93.1976 125.269 92.6017 125.831 92.5808 126.545L92.5435 127.816C92.5225 128.531 93.0845 129.126 93.7986 129.147Z" fill="#E0E0E0"/>
<path d="M134.419 122.807L168.389 123.803C169.103 123.824 169.699 123.262 169.72 122.548L169.757 121.277C169.778 120.563 169.216 119.967 168.502 119.946L134.532 118.95C133.818 118.929 133.222 119.491 133.201 120.205L133.164 121.476C133.143 122.19 133.705 122.786 134.419 122.807Z" fill="#E0E0E0"/>
<path d="M134.087 130.262L168.057 131.258C168.771 131.279 169.367 130.717 169.388 130.003L169.425 128.732C169.446 128.018 168.884 127.422 168.17 127.401L134.2 126.405C133.486 126.384 132.89 126.946 132.869 127.66L132.832 128.931C132.811 129.645 133.373 130.241 134.087 130.262Z" fill="#E0E0E0"/>
<path d="M133.695 138.127L167.665 139.123C168.38 139.144 168.975 138.582 168.996 137.868L169.034 136.597C169.055 135.883 168.493 135.287 167.779 135.266L133.808 134.27C133.094 134.249 132.498 134.811 132.477 135.525L132.44 136.796C132.419 137.51 132.981 138.106 133.695 138.127Z" fill="#E0E0E0"/>
<path d="M133.298 145.986L167.268 146.982C167.982 147.003 168.578 146.441 168.599 145.727L168.636 144.456C168.657 143.742 168.095 143.146 167.381 143.125L133.411 142.129C132.697 142.108 132.101 142.67 132.08 143.384L132.043 144.655C132.022 145.369 132.583 145.965 133.298 145.986Z" fill="#E0E0E0"/>
<path d="M132.906 153.85L166.876 154.846C167.591 154.867 168.186 154.305 168.207 153.591L168.245 152.32C168.266 151.606 167.704 151.01 166.99 150.989L133.019 149.992C132.305 149.972 131.709 150.533 131.688 151.248L131.651 152.519C131.63 153.233 132.192 153.829 132.906 153.85Z" fill="#E0E0E0"/>
<path d="M132.509 161.714L166.479 162.71C167.194 162.731 167.789 162.169 167.81 161.455L167.848 160.184C167.869 159.47 167.307 158.874 166.593 158.853L132.622 157.857C131.908 157.836 131.312 158.398 131.291 159.112L131.254 160.383C131.233 161.097 131.795 161.693 132.509 161.714Z" fill="#E0E0E0"/>
<path d="M132.112 169.573L166.082 170.569C166.796 170.59 167.392 170.029 167.413 169.314L167.45 168.043C167.471 167.329 166.909 166.733 166.195 166.712L132.225 165.716C131.511 165.695 130.915 166.257 130.894 166.971L130.856 168.242C130.836 168.956 131.397 169.552 132.112 169.573Z" fill="#E0E0E0"/>
<path d="M90.4526 175.442L165.435 177.643C165.605 177.649 165.775 177.62 165.934 177.56C166.092 177.5 166.238 177.409 166.362 177.292C166.485 177.175 166.585 177.036 166.654 176.881C166.724 176.726 166.763 176.558 166.768 176.388L166.801 175.117C166.806 174.948 166.777 174.779 166.717 174.621C166.657 174.463 166.567 174.318 166.451 174.195C166.335 174.071 166.196 173.972 166.041 173.903C165.887 173.834 165.72 173.795 165.551 173.79L90.5682 171.588C90.3983 171.583 90.2291 171.612 90.0702 171.672C89.9112 171.732 89.7658 171.823 89.6421 171.94C89.5183 172.056 89.4188 172.196 89.3492 172.351C89.2795 172.506 89.2411 172.674 89.2361 172.844L89.2031 174.115C89.1942 174.456 89.3205 174.787 89.5546 175.036C89.7886 175.284 90.1114 175.43 90.4526 175.442Z" fill="#E0E0E0"/>
<path d="M96.3439 74.7019L119.249 75.3737C119.964 75.3946 120.559 74.8327 120.58 74.1186L120.618 72.8476C120.639 72.1335 120.077 71.5376 119.363 71.5167L96.4571 70.8449C95.7429 70.8239 95.1471 71.3858 95.1261 72.0999L95.0888 73.3709C95.0679 74.0851 95.6298 74.6809 96.3439 74.7019Z" fill="#E0E0E0"/>
<path d="M82.5757 188.338L83.0491 188.366L84.4417 188.427L89.8252 188.63L109.801 189.335L177.292 191.614H177.435V191.471C177.689 186.104 177.953 180.461 178.228 174.753C179.665 143.994 180.98 116.146 181.916 95.9833C182.373 85.9045 182.742 77.7522 183.017 72.1101C183.138 69.2973 183.232 67.112 183.298 65.6202C183.325 64.8826 183.347 64.3157 183.358 63.9303C183.369 63.545 183.358 63.3799 183.358 63.3799C183.358 63.3799 183.358 63.578 183.314 63.9303C183.27 64.2826 183.259 64.8771 183.221 65.6147C183.144 67.1065 183.028 69.2918 182.885 72.1046C182.604 77.7467 182.202 85.899 181.707 95.9723C180.738 116.135 179.406 143.977 177.931 174.742C177.661 180.467 177.38 186.093 177.138 191.454L177.292 191.316L109.801 189.115L89.8197 188.526L84.4362 188.372L83.0436 188.338H82.5757Z" fill="#263238"/>
<path d="M90.48 192.396C90.48 192.396 90.6286 192.396 90.9258 192.429L92.2414 192.49L97.3276 192.693L116.241 193.414L180.369 195.765H180.512V195.622C180.854 189.148 181.211 182.411 181.575 175.541C183.154 145.184 184.586 117.71 185.62 97.8115C186.127 87.8703 186.534 79.8281 186.815 74.2575C186.953 71.5053 187.057 69.3035 187.129 67.8503C187.156 67.1237 187.184 66.5677 187.2 66.1989C187.217 65.8301 187.2 65.6484 187.2 65.6484C187.2 65.6484 187.2 65.8411 187.156 66.1989C187.112 66.5567 187.101 67.1402 187.057 67.8503C186.969 69.32 186.848 71.4777 186.688 74.252C186.386 79.8171 185.945 87.8648 185.4 97.8005C184.343 117.694 182.879 145.173 181.266 175.525C180.903 182.405 180.551 189.132 180.21 195.605L180.358 195.468L116.241 193.227L97.3331 192.594L92.2469 192.435L90.9313 192.402L90.48 192.396Z" fill="#263238"/>
<path d="M122.692 51.342L124.162 49.9053L141.683 49.9933L142.531 51.5952L122.692 51.342Z" fill="#263238"/>
<path d="M142.432 59.941L142.537 51.5913L122.7 51.342L122.595 59.6918L142.432 59.941Z" fill="#263238"/>
<path d="M143.106 60.2214L143.11 59.9297C143.114 59.5497 142.81 59.2378 142.43 59.2331L122.593 58.9838C122.213 58.979 121.901 59.2832 121.897 59.6631L121.893 59.9548C121.888 60.3348 122.192 60.6467 122.572 60.6515L142.409 60.9008C142.789 60.9056 143.101 60.6014 143.106 60.2214Z" fill="#263238"/>
<path d="M136.905 57.8371L128.181 57.727C128.057 57.7256 127.935 57.6944 127.826 57.6359C127.717 57.5775 127.623 57.4936 127.553 57.3913C127.485 57.2896 127.442 57.1735 127.427 57.0521C127.411 56.9308 127.424 56.8075 127.465 56.6922L130.003 49.7785C129.518 49.3982 129.115 48.9235 128.818 48.383C128.522 47.8426 128.338 47.2477 128.278 46.6342C128.219 46.0207 128.284 45.4015 128.47 44.814C128.656 44.2264 128.96 43.6828 129.362 43.2159C129.765 42.749 130.258 42.3686 130.811 42.0977C131.365 41.8267 131.968 41.6709 132.583 41.6397C133.199 41.6084 133.815 41.7023 134.393 41.9157C134.971 42.1291 135.5 42.4576 135.948 42.8813C136.424 43.3519 136.79 43.9215 137.021 44.5497C137.252 45.1779 137.342 45.8492 137.284 46.516C137.226 47.1828 137.022 47.8287 136.687 48.4078C136.351 48.9868 135.892 49.4849 135.342 49.8666L137.632 56.8243C137.671 56.9411 137.681 57.0656 137.662 57.1872C137.643 57.3089 137.595 57.4241 137.522 57.5234C137.451 57.6207 137.359 57.7 137.251 57.7545C137.144 57.809 137.026 57.8374 136.905 57.8371ZM132.755 42.1162H132.65C131.601 42.1602 130.609 42.6079 129.882 43.3659C129.154 44.1239 128.748 45.1336 128.748 46.184C128.759 46.8312 128.926 47.466 129.236 48.0344C129.546 48.6028 129.988 49.0878 130.526 49.4482L130.702 49.5693L127.972 56.9014C127.959 56.935 127.955 56.9711 127.96 57.0066C127.965 57.0421 127.978 57.0759 127.999 57.105C128.018 57.1344 128.044 57.1585 128.075 57.1749C128.106 57.1912 128.14 57.1994 128.175 57.1986L136.9 57.3087C136.935 57.3091 136.97 57.3014 137.001 57.2861C137.033 57.2708 137.06 57.2484 137.082 57.2206C137.101 57.1918 137.113 57.159 137.118 57.1247C137.123 57.0904 137.12 57.0554 137.109 57.0225L134.682 49.6354L134.869 49.5198C135.605 49.0587 136.172 48.3709 136.483 47.5599C136.794 46.7489 136.834 45.8587 136.595 45.0233C136.357 44.188 135.853 43.4527 135.161 42.9284C134.468 42.4041 133.624 42.119 132.755 42.1162Z" fill="#455A64"/>
<path d="M142.289 59.2301H142.085H141.534L139.437 59.186L132.518 59.0704L125.599 58.9714H122.929C122.863 58.9646 122.797 58.9646 122.731 58.9714H122.929L123.48 58.9989L125.599 59.1035C127.371 59.1475 129.815 59.1915 132.518 59.2301C135.221 59.2686 137.67 59.2906 139.443 59.2961C140.329 59.2961 141.045 59.2961 141.54 59.2961C141.788 59.2961 141.98 59.2961 142.09 59.2961C142.159 59.2842 142.226 59.262 142.289 59.2301Z" fill="#455A64"/>
<path d="M142.57 51.4242C142.504 51.4162 142.437 51.4162 142.372 51.4242H141.821L139.724 51.3802L132.805 51.2701L125.885 51.1875H123.216C123.15 51.1803 123.083 51.1803 123.018 51.1875H123.216H123.766L125.863 51.2426C127.636 51.2866 130.085 51.3307 132.788 51.3692C135.491 51.4077 137.935 51.4297 139.707 51.4353C140.594 51.4353 141.309 51.4353 141.805 51.4353C142.052 51.4353 142.245 51.4353 142.355 51.4353C142.427 51.4401 142.499 51.4364 142.57 51.4242Z" fill="#455A64"/>
<path d="M121.535 135.537L97.5617 134.834C94.8512 134.754 92.5894 136.887 92.5099 139.598L91.896 160.528C91.8165 163.239 93.9494 165.501 96.66 165.58L120.633 166.283C123.344 166.363 125.605 164.23 125.685 161.519L126.299 140.589C126.378 137.878 124.245 135.617 121.535 135.537Z" fill="#EBEBEB"/>
<path d="M91.9607 158.273C91.9649 158.143 92 158.016 92.0632 157.902C92.1264 157.788 92.2158 157.691 92.324 157.618L103.388 150.192C103.805 149.86 104.326 149.683 104.86 149.693C105.393 149.703 105.907 149.899 106.311 150.248C106.355 150.285 106.403 150.319 106.454 150.347L111.469 152.923C111.624 153.001 111.799 153.029 111.97 153.004C112.142 152.978 112.301 152.9 112.427 152.78L120.017 145.348C120.257 145.136 120.538 144.974 120.843 144.873C121.147 144.772 121.469 144.734 121.789 144.761C122.109 144.788 122.42 144.88 122.703 145.031C122.986 145.183 123.235 145.39 123.436 145.64L125.869 148.701C125.988 148.849 126.053 149.034 126.05 149.224L125.935 161.581C125.929 162.203 125.799 162.817 125.553 163.388C125.306 163.959 124.948 164.475 124.499 164.905C124.051 165.336 123.52 165.672 122.94 165.894C122.359 166.116 121.74 166.22 121.118 166.2L96.3919 165.418C95.7773 165.399 95.1727 165.258 94.6125 165.005C94.0524 164.751 93.5479 164.39 93.128 163.941C92.7081 163.492 92.381 162.964 92.1656 162.388C91.9501 161.812 91.8506 161.199 91.8726 160.585L91.9607 158.273Z" fill="#E0E0E0"/>
<path d="M106.719 147.126C108.474 146.472 109.367 144.52 108.713 142.766C108.06 141.011 106.108 140.118 104.353 140.772C102.599 141.425 101.706 143.377 102.359 145.132C103.013 146.886 104.965 147.779 106.719 147.126Z" fill="#E0E0E0"/>
<path d="M165.265 83.6891L141.282 82.9696C138.57 82.8882 136.306 85.0206 136.225 87.7323L135.597 108.672C135.515 111.383 137.648 113.648 140.359 113.729L164.343 114.448C167.054 114.53 169.319 112.397 169.4 109.686L170.028 88.7464C170.109 86.0347 167.977 83.7704 165.265 83.6891Z" fill="#EBEBEB"/>
<path d="M135.639 105.787L147.067 98.1301C147.496 97.7867 148.034 97.6094 148.583 97.6307C149.132 97.6519 149.655 97.8703 150.056 98.2457L155.676 101.13L163.701 93.2861C163.941 93.0726 164.221 92.9102 164.525 92.8088C164.829 92.7074 165.151 92.6692 165.471 92.6965C165.79 92.7239 166.101 92.8161 166.383 92.9677C166.666 93.1192 166.915 93.3268 167.114 93.5779L169.734 96.8806L169.624 108.715C169.613 109.443 169.457 110.161 169.167 110.828C168.876 111.495 168.456 112.098 167.931 112.602C167.405 113.106 166.785 113.5 166.107 113.763C165.428 114.025 164.704 114.151 163.977 114.132L140.858 113.4C140.137 113.376 139.429 113.211 138.773 112.913C138.117 112.615 137.526 112.191 137.035 111.664C136.543 111.137 136.161 110.518 135.909 109.843C135.657 109.168 135.541 108.45 135.568 107.73L135.639 105.787Z" fill="#E0E0E0"/>
<path d="M148.58 94.5745C150.447 94.5745 151.96 93.0613 151.96 91.1947C151.96 89.3281 150.447 87.8149 148.58 87.8149C146.714 87.8149 145.201 89.3281 145.201 91.1947C145.201 93.0613 146.714 94.5745 148.58 94.5745Z" fill="#E0E0E0"/>
<path d="M97.0907 100.706C96.9367 100.686 96.7865 100.643 96.6449 100.58C96.2378 100.392 95.8896 100.097 95.6376 99.7264C95.2279 99.1377 95.0531 98.4172 95.1476 97.7062C95.2938 96.7695 95.7679 95.9151 96.4852 95.2952C97.3527 94.5661 98.384 94.058 99.4907 93.8145C100.74 93.5018 102.023 93.3373 103.311 93.3246C106.275 93.2806 109.197 94.0212 111.782 95.4714C112.47 95.8563 113.079 96.3681 113.577 96.9796C114.061 97.5926 114.341 98.341 114.381 99.1209C114.389 99.5001 114.323 99.8774 114.185 100.231C114.047 100.584 113.84 100.907 113.577 101.18C113.069 101.674 112.458 102.05 111.788 102.28C110.563 102.687 109.28 102.894 107.99 102.892C106.872 102.933 105.753 102.885 104.643 102.748C103.037 102.556 101.459 102.175 99.9421 101.614C99.3917 101.416 98.9953 101.246 98.7256 101.114C98.5856 101.054 98.4495 100.986 98.3183 100.91C98.4654 100.949 98.6091 101.001 98.7476 101.064C99.0283 101.174 99.4412 101.328 99.9806 101.51C101.505 102.036 103.081 102.398 104.682 102.589C105.778 102.706 106.882 102.741 107.984 102.693C109.248 102.684 110.502 102.474 111.7 102.071C112.334 101.849 112.91 101.486 113.384 101.009C113.622 100.763 113.809 100.471 113.933 100.152C114.056 99.832 114.115 99.4909 114.105 99.1484C114.071 98.4272 113.809 97.7354 113.357 97.1723C112.881 96.588 112.298 96.1003 111.639 95.7356C109.098 94.3128 106.229 93.5785 103.316 93.6053C102.05 93.6132 100.788 93.7665 99.5568 94.0622C98.4811 94.2901 97.4753 94.7713 96.6229 95.4659C95.9325 96.0485 95.4689 96.855 95.3128 97.7448C95.2083 98.4208 95.3594 99.1116 95.7366 99.6824C95.9713 100.046 96.2954 100.344 96.6779 100.547C96.9366 100.657 97.0962 100.69 97.0907 100.706Z" fill="#263238"/>
<path d="M111.32 177.599C111.166 177.583 111.015 177.542 110.874 177.478C110.467 177.29 110.119 176.995 109.867 176.625C109.456 176.036 109.279 175.316 109.372 174.604C109.521 173.669 109.995 172.816 110.709 172.193C111.58 171.465 112.612 170.957 113.72 170.713C114.968 170.4 116.248 170.236 117.535 170.223C120.499 170.176 123.422 170.916 126.006 172.37C126.697 172.753 127.308 173.265 127.806 173.878C128.291 174.49 128.572 175.239 128.61 176.019C128.619 176.398 128.553 176.774 128.415 177.127C128.277 177.479 128.07 177.801 127.806 178.072C127.301 178.57 126.689 178.947 126.017 179.173C124.79 179.579 123.506 179.788 122.214 179.79C121.098 179.826 119.981 179.778 118.872 179.647C117.267 179.449 115.69 179.068 114.172 178.513C113.621 178.314 113.225 178.138 112.955 178.012C112.811 177.955 112.673 177.885 112.542 177.803C112.691 177.843 112.836 177.895 112.977 177.957C113.252 178.067 113.665 178.226 114.205 178.408C115.726 178.92 117.299 179.267 118.894 179.443C119.991 179.562 121.095 179.599 122.197 179.553C123.461 179.541 124.715 179.33 125.913 178.926C126.547 178.702 127.122 178.339 127.597 177.863C127.835 177.616 128.021 177.325 128.145 177.005C128.269 176.686 128.328 176.345 128.318 176.003C128.278 175.283 128.016 174.593 127.57 174.026C127.093 173.445 126.51 172.96 125.852 172.595C122.166 170.544 117.843 169.954 113.742 170.944C112.666 171.168 111.66 171.647 110.808 172.342C110.118 172.928 109.653 173.735 109.493 174.626C109.39 175.303 109.543 175.994 109.922 176.564C110.155 176.926 110.477 177.222 110.858 177.423C111.166 177.555 111.32 177.582 111.32 177.599Z" fill="#263238"/>
<path d="M94.8011 75.5234C94.649 75.5027 94.5007 75.46 94.3608 75.3968C93.9524 75.2112 93.6037 74.9158 93.3534 74.5436C92.9402 73.9585 92.7632 73.2389 92.858 72.5289C93.0148 71.588 93.4981 70.7324 94.2231 70.1125C95.0931 69.385 96.1262 68.8789 97.2341 68.6372C98.4823 68.3252 99.7623 68.159 101.049 68.1418C104.012 68.0999 106.934 68.8404 109.52 70.2886C110.209 70.6721 110.818 71.184 111.315 71.7968C111.802 72.408 112.085 73.1571 112.124 73.9381C112.133 74.3174 112.067 74.6948 111.929 75.0483C111.791 75.4018 111.584 75.7242 111.32 75.9968C110.814 76.4928 110.202 76.869 109.531 77.0977C108.304 77.5044 107.02 77.7107 105.728 77.7087C102.988 77.809 100.254 77.3753 97.68 76.4317C97.1295 76.2335 96.7387 76.0629 96.4635 75.9307C96.3235 75.8717 96.1874 75.8036 96.0561 75.7271C96.2056 75.7646 96.3512 75.8162 96.491 75.8812C96.7662 75.9913 97.1791 76.1454 97.7185 76.3271C99.2407 76.8386 100.813 77.1873 102.408 77.3674C103.505 77.4874 104.609 77.5224 105.711 77.472C106.977 77.4625 108.232 77.2525 109.432 76.85C110.064 76.6263 110.638 76.2632 111.111 75.7876C111.582 75.2986 111.843 74.6446 111.838 73.9656C111.797 73.2446 111.534 72.554 111.084 71.9895C110.61 71.4056 110.029 70.918 109.372 70.5528C105.685 68.503 101.363 67.9136 97.2616 68.9015C96.188 69.1306 95.1843 69.6117 94.3332 70.3051C93.6409 70.8868 93.1752 71.6935 93.0176 72.584C92.9164 73.26 93.0672 73.9496 93.4415 74.5216C93.6777 74.8841 94.0014 75.1814 94.3828 75.3858C94.6525 75.4739 94.8066 75.5069 94.8011 75.5234Z" fill="#263238"/>
<path d="M179.268 152.757L186.837 152.944L190.448 157.596L186.562 162.341L178.795 162.11L179.268 152.757Z" fill="#0EC79B"/>
<path d="M179.984 139.48L187.552 139.667L191.163 144.318L187.277 149.063L179.51 148.832L179.984 139.48Z" fill="#455A64"/>
<path d="M76.8508 44.0259H52.9171C52.759 44.0259 52.6309 44.154 52.6309 44.3121V44.4277C52.6309 44.5858 52.759 44.7139 52.9171 44.7139H76.8508C77.0089 44.7139 77.1371 44.5858 77.1371 44.4277V44.3121C77.1371 44.154 77.0089 44.0259 76.8508 44.0259Z" fill="#E0E0E0"/>
<path d="M76.8508 46.2119H52.9171C52.759 46.2119 52.6309 46.3401 52.6309 46.4981V46.6137C52.6309 46.7718 52.759 46.9 52.9171 46.9H76.8508C77.0089 46.9 77.1371 46.7718 77.1371 46.6137V46.4981C77.1371 46.3401 77.0089 46.2119 76.8508 46.2119Z" fill="#E0E0E0"/>
<path d="M76.8508 48.3911H52.9171C52.759 48.3911 52.6309 48.5193 52.6309 48.6773V48.7929C52.6309 48.951 52.759 49.0792 52.9171 49.0792H76.8508C77.0089 49.0792 77.1371 48.951 77.1371 48.7929V48.6773C77.1371 48.5193 77.0089 48.3911 76.8508 48.3911Z" fill="#E0E0E0"/>
<path d="M81.5626 46.0628C81.6231 46.0188 85.4157 50.9508 90.0671 57.0719C94.7184 63.1929 98.412 68.2186 98.3239 68.2626C98.2358 68.3066 94.4707 63.3801 89.8194 57.2535C85.168 51.127 81.491 46.1123 81.5626 46.0628Z" fill="#263238"/>
<path d="M81.4142 46.5519C81.9279 46.5519 82.3444 46.1354 82.3444 45.6217C82.3444 45.1079 81.9279 44.6914 81.4142 44.6914C80.9004 44.6914 80.4839 45.1079 80.4839 45.6217C80.4839 46.1354 80.9004 46.5519 81.4142 46.5519Z" fill="#263238"/>
<path d="M107.346 234.549H79.4271C79.1068 234.55 78.7898 234.485 78.4952 234.359C78.2006 234.233 77.9346 234.049 77.7133 233.818C77.492 233.586 77.32 233.312 77.2077 233.012C77.0955 232.712 77.0453 232.392 77.0602 232.072L77.6106 220.243C77.6403 219.636 77.9028 219.063 78.3435 218.644C78.7842 218.224 79.3693 217.991 79.9776 217.992H107.897C108.217 217.991 108.534 218.056 108.828 218.182C109.122 218.308 109.388 218.492 109.609 218.724C109.83 218.955 110.001 219.23 110.113 219.53C110.224 219.83 110.274 220.149 110.258 220.469L109.708 232.298C109.678 232.905 109.416 233.477 108.977 233.896C108.537 234.315 107.953 234.549 107.346 234.549Z" fill="#FAFAFA"/>
<path d="M107.346 234.55C107.665 234.53 107.978 234.456 108.271 234.329C108.684 234.144 109.035 233.844 109.281 233.464C109.527 233.084 109.658 232.641 109.658 232.188C109.763 229.788 109.911 226.337 110.098 222.082C110.098 221.036 110.44 219.819 109.663 218.933C109.302 218.488 108.784 218.199 108.216 218.124C107.638 218.086 106.999 218.124 106.377 218.124H98.3626H79.994C79.612 218.122 79.2361 218.219 78.9031 218.407C78.5701 218.594 78.2916 218.864 78.0949 219.192C77.8976 219.516 77.7859 219.886 77.7701 220.265C77.7701 220.662 77.7316 221.063 77.7151 221.46C77.638 223.045 77.5628 224.605 77.4894 226.139C77.416 227.673 77.3426 229.179 77.2692 230.658C77.2692 231.027 77.2307 231.395 77.2142 231.759C77.1706 232.105 77.1949 232.457 77.2857 232.794C77.38 233.119 77.5468 233.419 77.7738 233.671C78.0007 233.923 78.2817 234.119 78.5958 234.247C78.908 234.367 79.2415 234.421 79.5756 234.406H82.6637H86.5554H93.5407L103.652 234.45L106.405 234.478H107.12C107.201 234.47 107.282 234.47 107.363 234.478H107.12H106.405L103.652 234.506L93.5407 234.555L86.5169 234.698H79.5756C79.2 234.715 78.8251 234.653 78.4747 234.517C78.1233 234.375 77.8085 234.157 77.554 233.876C77.2994 233.596 77.1117 233.262 77.005 232.898C76.9079 232.54 76.878 232.167 76.9169 231.797C76.9169 231.429 76.9555 231.065 76.972 230.696C77.0435 229.216 77.1096 227.707 77.1866 226.177C77.2637 224.647 77.3298 223.078 77.4068 221.493C77.4068 221.096 77.4454 220.7 77.4619 220.298C77.4828 219.873 77.6075 219.459 77.8252 219.093C78.0502 218.725 78.3656 218.42 78.7413 218.208C79.117 217.997 79.5406 217.884 79.9719 217.882H98.3406H106.355C106.994 217.882 107.588 217.882 108.221 217.909C108.846 217.993 109.415 218.312 109.812 218.801C110.185 219.269 110.38 219.854 110.363 220.452C110.333 221.007 110.306 221.557 110.28 222.104C110.054 226.359 109.873 229.81 109.73 232.205C109.718 232.749 109.524 233.275 109.179 233.696C108.93 234.003 108.608 234.244 108.243 234.395C108.019 234.484 107.784 234.541 107.544 234.566L107.346 234.55Z" fill="#263238"/>
<path d="M105.634 223.743H81.7003C81.5422 223.743 81.4141 223.871 81.4141 224.029V224.145C81.4141 224.303 81.5422 224.431 81.7003 224.431H105.634C105.792 224.431 105.92 224.303 105.92 224.145V224.029C105.92 223.871 105.792 223.743 105.634 223.743Z" fill="#E0E0E0"/>
<path d="M105.634 225.924H81.7003C81.5422 225.924 81.4141 226.052 81.4141 226.21V226.326C81.4141 226.484 81.5422 226.612 81.7003 226.612H105.634C105.792 226.612 105.92 226.484 105.92 226.326V226.21C105.92 226.052 105.792 225.924 105.634 225.924Z" fill="#E0E0E0"/>
<path d="M105.634 228.108H81.7003C81.5422 228.108 81.4141 228.237 81.4141 228.395V228.51C81.4141 228.668 81.5422 228.796 81.7003 228.796H105.634C105.792 228.796 105.92 228.668 105.92 228.51V228.395C105.92 228.237 105.792 228.108 105.634 228.108Z" fill="#E0E0E0"/>
<path d="M117.893 179.222C117.964 179.261 113.489 187.969 107.924 198.67C102.359 209.371 97.7682 218.024 97.6966 217.991C97.6251 217.958 102.1 209.244 107.671 198.538C113.241 187.831 117.843 179.189 117.893 179.222Z" fill="#263238"/>
<path d="M98.6542 217.992C98.6542 218.177 98.5994 218.358 98.4965 218.512C98.3937 218.666 98.2476 218.786 98.0766 218.857C97.9056 218.928 97.7174 218.946 97.5359 218.91C97.3544 218.874 97.1877 218.785 97.0568 218.654C96.9259 218.523 96.8368 218.356 96.8007 218.175C96.7646 217.993 96.7831 217.805 96.8539 217.634C96.9248 217.463 97.0447 217.317 97.1986 217.214C97.3525 217.112 97.5334 217.057 97.7185 217.057C97.9667 217.057 98.2047 217.155 98.3802 217.331C98.5557 217.506 98.6542 217.744 98.6542 217.992Z" fill="#263238"/>
<path d="M277.122 75.4785H252.159C249.621 75.48 247.188 76.4891 245.394 78.2842C243.6 80.0792 242.592 82.5131 242.592 85.0509C242.594 87.4919 243.528 89.8399 245.205 91.6143C246.881 93.3887 249.172 94.4553 251.609 94.5958C252.363 95.8949 253.111 97.1994 253.866 98.504L256.689 94.6233H277.122C279.661 94.6219 282.095 93.6129 283.889 91.818C285.684 90.0232 286.693 87.5892 286.695 85.0509C286.693 82.5126 285.684 80.0787 283.889 78.2838C282.095 76.489 279.661 75.48 277.122 75.4785Z" fill="white"/>
<path d="M277.122 75.4785H277.376H278.124C279.085 75.5787 280.027 75.816 280.921 76.1831C282.341 76.8013 283.597 77.7439 284.587 78.9353C285.192 79.6886 285.691 80.5222 286.067 81.4124C286.746 83.0858 286.944 84.9155 286.639 86.6953C286.333 88.4752 285.537 90.1343 284.339 91.4857C283.402 92.5354 282.252 93.3725 280.965 93.9407C279.583 94.5213 278.092 94.7954 276.594 94.7444H256.69L256.805 94.6893L253.981 98.5425L253.855 98.7242L253.745 98.5315L252.825 96.9407L251.482 94.6233L251.598 94.6893C250.644 94.6236 249.703 94.4273 248.802 94.1058C247.92 93.7722 247.088 93.3184 246.33 92.7572C245.265 91.9582 244.377 90.9481 243.72 89.7901C243.063 88.6321 242.652 87.3511 242.512 86.0271C242.373 84.7031 242.508 83.3645 242.909 82.0951C243.31 80.8256 243.969 79.6525 244.844 78.6491C245.903 77.4266 247.256 76.4929 248.774 75.9354C248.961 75.8693 249.137 75.7977 249.325 75.7372L249.875 75.5941C250.246 75.5017 250.623 75.4337 251.003 75.3904C251.378 75.3409 251.752 75.3464 252.104 75.3188H253.205H261.247L272.851 75.3684H276H276.814H277.095H276.814H276H272.851L261.247 75.4124H253.205H252.104C251.741 75.4124 251.372 75.4124 251.003 75.484C250.633 75.5305 250.265 75.5985 249.903 75.6877L249.352 75.8308C249.17 75.8858 248.994 75.9574 248.802 76.0234C247.328 76.6331 246.035 77.6111 245.048 78.8638C244.199 79.8404 243.561 80.9814 243.173 82.2156C242.785 83.4498 242.655 84.7507 242.792 86.0372C242.929 87.3238 243.329 88.5683 243.968 89.6932C244.607 90.8181 245.471 91.7993 246.506 92.5756C247.243 93.1186 248.051 93.5593 248.906 93.8857C249.783 94.1877 250.695 94.3728 251.62 94.4361H251.697L251.736 94.5022L253.079 96.8196L253.998 98.4104H253.756L256.58 94.5242L256.624 94.4692H256.695H276.6C278.063 94.527 279.52 94.2639 280.871 93.6985C282.129 93.1462 283.255 92.3317 284.174 91.3095C285.348 89.9897 286.133 88.3691 286.439 86.629C286.745 84.8889 286.561 83.098 285.908 81.4564C285.545 80.5761 285.059 79.7515 284.466 79.0069C283.499 77.8257 282.273 76.8838 280.882 76.2546C279.686 75.772 278.412 75.5091 277.122 75.4785Z" fill="#263238"/>
<path d="M253.673 82.0615L254.57 83.8725L256.569 84.1643L255.121 85.5734L255.462 87.5661L253.673 86.6248L251.884 87.5661L252.226 85.5734L250.778 84.1643L252.776 83.8725L253.673 82.0615Z" fill="#0EC79B"/>
<path d="M261.27 82.0615L262.161 83.8725L264.165 84.1643L262.717 85.5734L263.058 87.5661L261.27 86.6248L259.475 87.5661L259.816 85.5734L258.369 84.1643L260.372 83.8725L261.27 82.0615Z" fill="#0EC79B"/>
<path d="M268.86 82.0615L269.757 83.8725L271.756 84.1643L270.308 85.5734L270.649 87.5661L268.86 86.6248L267.071 87.5661L267.413 85.5734L265.965 84.1643L267.963 83.8725L268.86 82.0615Z" fill="#0EC79B"/>
<path d="M276.451 82.0615L277.348 83.8725L279.352 84.1643L277.904 85.5734L278.246 87.5661L276.451 86.6248L274.662 87.5661L275.003 85.5734L273.556 84.1643L275.559 83.8725L276.451 82.0615Z" fill="#0EC79B"/>
<path d="M210.369 82.645C210.369 82.645 207.87 92.0027 207.655 98.6082L207.583 100.81C207.583 100.81 213.088 105.39 217.728 105.671L221.582 96.1312L210.369 82.645Z" fill="#263238"/>
<path d="M234.859 88.3802C233.802 83.8169 233.394 78.5106 229.607 75.5381C226.789 73.3363 223.585 72.7143 220.013 72.8684C218.145 73.0505 216.341 73.6486 214.734 74.6189C212.631 75.8078 211.745 78.2188 210.732 80.4096C208.701 84.8133 208.954 90.7417 210.33 92.3985L228.677 102.081C232.338 100.176 234.633 99.4168 235.216 94.5343C235.453 92.4776 235.332 90.3956 234.859 88.3802Z" fill="#263238"/>
<path d="M229.409 79.1596L217.849 75.7578C214.128 75.2074 211.469 79.7156 211.084 83.4642C210.655 87.6146 210.302 92.7008 210.671 95.8274C211.42 102.114 216.176 103.099 216.176 103.099C216.176 103.099 216.176 103.192 216.148 105.047V108.901C216.099 110.117 216.313 110.525 217.057 111.488C218.763 113.69 221.862 113.992 225.523 112.638C227.642 111.851 229.117 110.277 229.282 108.125L231.286 81.466C231.318 80.9165 231.143 80.375 230.795 79.9481C230.448 79.5212 229.953 79.2399 229.409 79.1596Z" fill="#DAB5A9"/>
<path d="M212.196 89.14C212.186 89.3491 212.258 89.5539 212.397 89.7104C212.536 89.8669 212.731 89.9625 212.939 89.9767C213.041 89.9897 213.144 89.982 213.243 89.9542C213.341 89.9263 213.433 89.8788 213.513 89.8145C213.592 89.7503 213.658 89.6706 213.706 89.5802C213.754 89.4898 213.784 89.3906 213.793 89.2886C213.803 89.0805 213.732 88.8764 213.594 88.7201C213.456 88.5637 213.263 88.4675 213.055 88.452C212.953 88.439 212.85 88.4466 212.751 88.4744C212.652 88.5022 212.56 88.5496 212.48 88.6138C212.4 88.678 212.333 88.7577 212.285 88.8481C212.236 88.9385 212.206 89.0378 212.196 89.14Z" fill="#263238"/>
<path d="M211.866 87.2187C211.959 87.3288 212.581 86.8994 213.446 86.9379C214.31 86.9765 214.921 87.4278 215.02 87.3288C215.119 87.2297 214.976 87.0921 214.706 86.8774C214.343 86.6047 213.905 86.4509 213.451 86.437C213.002 86.4177 212.559 86.541 212.185 86.7893C211.915 86.982 211.816 87.1746 211.866 87.2187Z" fill="#263238"/>
<path d="M219.776 89.2667C219.767 89.4754 219.839 89.6795 219.978 89.8357C220.117 89.9919 220.311 90.0879 220.519 90.1034C220.621 90.1149 220.723 90.1061 220.821 90.0776C220.919 90.0492 221.01 90.0015 221.09 89.9375C221.169 89.8735 221.235 89.7944 221.283 89.7048C221.332 89.6152 221.362 89.5168 221.372 89.4154C221.382 89.2061 221.309 89.0014 221.171 88.8443C221.032 88.6873 220.838 88.5901 220.629 88.5732C220.528 88.5617 220.425 88.5707 220.326 88.5995C220.228 88.6284 220.137 88.6765 220.057 88.741C219.978 88.8056 219.912 88.8853 219.864 88.9756C219.816 89.0659 219.786 89.1648 219.776 89.2667Z" fill="#263238"/>
<path d="M220.343 87.3177C220.442 87.4278 221.064 87.004 221.928 87.037C222.792 87.07 223.403 87.5324 223.502 87.4278C223.602 87.3232 223.453 87.1911 223.189 86.9819C222.826 86.7093 222.387 86.5555 221.934 86.5416C221.485 86.5195 221.041 86.6431 220.668 86.8939C220.392 87.0865 220.277 87.2737 220.343 87.3177Z" fill="#263238"/>
<path d="M216.974 92.9097C216.527 92.7474 216.061 92.6438 215.587 92.6014C215.367 92.5684 215.158 92.5189 215.13 92.3647C215.119 92.1376 215.179 91.9126 215.301 91.7207C215.526 91.1702 215.769 90.6473 216.016 90.0693C217.013 87.7189 217.745 85.7813 217.668 85.7428C217.591 85.7042 216.688 87.5758 215.691 89.9262L214.998 91.5776C214.849 91.8374 214.796 92.1415 214.849 92.4363C214.878 92.5155 214.925 92.587 214.986 92.6452C215.047 92.7035 215.121 92.7469 215.202 92.7721C215.321 92.8099 215.445 92.8321 215.57 92.8381C216.033 92.9207 216.505 92.9448 216.974 92.9097Z" fill="#263238"/>
<path d="M216.165 103.088C219.105 103.248 222.032 102.588 224.62 101.184C224.62 101.184 222.38 105.477 216.148 104.646L216.165 103.088Z" fill="#A4796E"/>
<path d="M219.782 94.8259C219.676 94.6479 219.527 94.4993 219.35 94.3935C219.172 94.2877 218.97 94.2282 218.763 94.2204C218.475 94.1867 218.182 94.2312 217.917 94.3494C217.652 94.4676 217.423 94.655 217.255 94.892C217.135 95.1142 217.101 95.3731 217.161 95.6186C217.211 95.7452 217.161 95.6846 217.261 95.7727C217.573 96.1165 217.964 96.3792 218.4 96.5378C218.635 96.6082 218.885 96.6053 219.118 96.5295C219.352 96.4538 219.556 96.3089 219.705 96.114C219.835 95.9271 219.911 95.708 219.924 95.4808C219.938 95.2536 219.888 95.027 219.782 94.8259Z" fill="#A4796E"/>
<path d="M219.655 93.6416C219.512 93.6416 219.468 94.5609 218.642 95.1884C217.816 95.8159 216.82 95.6728 216.804 95.7994C216.787 95.926 217.018 95.992 217.437 96.0251C217.985 96.0584 218.527 95.8966 218.967 95.5682C219.39 95.2525 219.674 94.7848 219.759 94.2636C219.815 93.8783 219.726 93.6416 219.655 93.6416Z" fill="#263238"/>
<path d="M220.018 84.1635C220.079 84.4057 220.948 84.3782 221.945 84.5984C222.941 84.8186 223.728 85.1488 223.882 84.9727C223.948 84.8791 223.833 84.6479 223.524 84.3892C223.113 84.069 222.634 83.847 222.123 83.7401C221.613 83.6333 221.085 83.6444 220.58 83.7727C220.194 83.8718 219.991 84.0479 220.018 84.1635Z" fill="#263238"/>
<path d="M211.937 84.8961C212.13 85.0668 212.758 84.7695 213.55 84.6484C214.343 84.5273 215.026 84.5659 215.152 84.3402C215.202 84.2356 215.07 84.0539 214.75 83.9108C214.318 83.7426 213.847 83.6988 213.391 83.7842C212.938 83.8475 212.512 84.0384 212.163 84.3347C211.91 84.5989 211.849 84.8136 211.937 84.8961Z" fill="#263238"/>
<path d="M217.827 75.0649L217.794 75.202L217.827 75.0649Z" fill="#263238"/>
<path d="M225.897 105.61C226.073 103.959 225.413 102.307 225.605 100.689C225.809 98.955 226.932 97.4687 227.394 95.7843C228.132 93.0871 227.119 90.2192 226.745 87.4284C225.149 87.1701 223.704 86.3358 222.683 85.0835C221.433 83.6248 220.673 81.8138 219.93 80.0358C219.98 81.7914 220.574 83.4881 221.631 84.8908C221.28 84.9439 220.92 84.9143 220.582 84.8044C220.244 84.6945 219.936 84.5074 219.683 84.2578C219.181 83.7538 218.791 83.1499 218.538 82.4854C217.866 80.9013 217.493 79.2069 217.437 77.4872C217.206 79.9489 217.485 82.4317 218.257 84.7808C217.805 84.7001 217.341 84.7189 216.897 84.8358C216.675 84.892 216.443 84.8965 216.218 84.8488C215.994 84.801 215.784 84.7024 215.604 84.5606C215.41 84.3227 215.287 84.0343 215.251 83.7294C214.819 81.6358 214.748 79.4836 215.042 77.3661C214.452 78.493 213.972 79.6747 213.611 80.8945C213.259 82.123 213.259 83.4257 213.611 84.6541C213.508 84.7567 213.368 84.8142 213.223 84.8142C213.078 84.8142 212.938 84.7567 212.835 84.6541C212.636 84.4373 212.516 84.1601 212.494 83.867C212.387 82.8077 212.458 81.738 212.703 80.7019C212.075 81.8028 211.872 83.0964 211.525 84.3184C211.178 85.5404 210.628 86.7954 209.565 87.4945C209.383 85.8973 209.435 84.2822 209.719 82.7C210.006 81.3716 210.48 80.0908 211.128 78.8964C211.735 77.567 212.595 76.3685 213.661 75.368C215.499 73.7552 216.27 74.4487 217.448 75.0652L217.585 75.1203C217.585 75.1203 217.585 75.0652 217.585 75.0377L217.635 74.7845C220.714 74.0985 223.92 74.2487 226.921 75.2194C229.123 75.9405 229.343 80.7239 229.882 78.445C230.207 77.0744 231.985 78.3294 232.007 78.368C234.622 83.0799 237.391 90.5605 237.512 102.373L225.897 105.61Z" fill="#263238"/>
<path d="M233.488 69.5987C232.974 69.0184 232.351 68.5452 231.654 68.2061C230.956 67.867 230.199 67.6687 229.426 67.6226C228.65 67.5898 227.879 67.7612 227.191 68.1196C226.502 68.4779 225.919 69.0108 225.501 69.6648C225.106 70.3334 224.939 71.1127 225.027 71.8844C225.114 72.6562 225.451 73.3785 225.985 73.9418L227.917 75.4886C228.577 75.8729 229.313 76.1098 230.073 76.183C230.833 76.2561 231.6 76.1638 232.321 75.9124C233.034 75.6458 233.651 75.1721 234.092 74.5521C234.533 73.9322 234.779 73.1944 234.798 72.4336C234.714 71.3623 234.25 70.3566 233.488 69.5987Z" fill="#263238"/>
<path d="M231.969 78.1753C231.594 78.3459 230.538 76.7276 228.666 75.456C226.795 74.1845 224.923 73.7276 224.95 73.3148C224.95 73.1276 225.501 72.979 226.36 73.067C227.48 73.221 228.55 73.6359 229.481 74.2783C230.412 74.9208 231.179 75.7729 231.721 76.7661C232.095 77.5422 232.139 78.0927 231.969 78.1753Z" fill="#455A64"/>
<path d="M205.117 129.526L212.35 122.75L217.255 130.533C217.156 131.232 210.908 144.691 208.205 147.482C205.117 150.664 200.912 150.416 199.057 146.023C197.593 142.561 195.165 131.893 195.165 131.893L205.117 129.526Z" fill="#0EC79B"/>
<path d="M213.006 109.148C211.277 109.77 207.303 111.945 206.147 113.37C205.567 114.058 205.077 114.816 204.688 115.627C203.78 117.62 202.062 132.383 202.062 132.383L209.769 137.959L216.479 112.143L216.05 108.047L213.006 109.148Z" fill="#0EC79B"/>
<path d="M210.452 151.765L210.936 147.956C210.039 143.758 209.361 139.515 208.905 135.246C208.041 125.855 210.49 120.015 210.82 119.03C211.013 118.479 216.044 108.021 216.044 108.021C216.044 108.021 217.101 111.23 221.345 110.47C227.262 109.413 229.42 106.204 229.42 106.204L237.071 107.855C237.071 107.855 240.049 119.822 240.49 123.791C240.721 125.916 237.925 137.932 237.925 137.932L242.433 144.681C242.571 145.011 240.473 154.237 240.066 154.589C239.659 154.941 232.316 156.675 232.228 156.989C232.139 157.303 218.235 163.121 218.246 162.879C218.257 162.637 211.558 154.694 211.558 154.694L210.452 151.765Z" fill="#0EC79B"/>
<path d="M208.717 120.46C208.726 120.554 208.726 120.648 208.717 120.741C208.717 120.95 208.662 121.215 208.624 121.528C208.541 122.216 208.426 123.213 208.327 124.446C208.013 127.649 208.072 130.878 208.503 134.068C208.998 137.811 209.719 141.158 210.187 143.591C210.424 144.807 210.605 145.792 210.738 146.475C210.787 146.789 210.826 147.053 210.859 147.262C210.871 147.355 210.871 147.45 210.859 147.543C210.82 147.457 210.794 147.366 210.782 147.273C210.732 147.064 210.671 146.805 210.605 146.497C210.446 145.776 210.237 144.807 209.983 143.629C209.466 141.207 208.712 137.866 208.216 134.106C207.779 130.896 207.746 127.643 208.117 124.424C208.244 123.191 208.393 122.222 208.508 121.512C208.569 121.171 208.618 120.906 208.657 120.73C208.662 120.638 208.683 120.546 208.717 120.46Z" fill="#263238"/>
<path d="M243.77 150.141C245.141 152.47 248.273 161.376 249.49 165.928C255.044 186.686 259.745 214.605 261.308 220.297C263.389 227.876 268.045 245.028 270.412 256.45L259.029 261.404C259.029 261.404 244.123 221.221 240.055 211.357C235.838 201.119 228.809 181.853 228.809 181.853L224.747 258.366L213.842 258.702C213.842 258.702 210.11 237.14 208.629 224.249C207.149 211.357 206.978 184.831 206.978 178.093C206.978 169.897 210.517 151.446 210.517 151.446C210.517 151.446 214.772 154.638 222.743 153.416C229.095 152.442 242.268 147.56 242.268 147.56L243.77 150.141Z" fill="#263238"/>
<path d="M221.603 156.081C221.598 156.376 221.619 156.67 221.664 156.962C221.724 157.512 221.823 158.338 221.956 159.345C222.225 161.354 222.644 164.118 223.183 167.162C223.723 170.206 224.284 172.947 224.746 174.923C224.967 175.914 225.154 176.712 225.297 177.257C225.355 177.546 225.436 177.829 225.539 178.105C225.522 177.811 225.478 177.52 225.407 177.235C225.286 176.63 225.132 175.837 224.939 174.885C224.543 172.897 224.009 170.156 223.464 167.112C222.919 164.068 222.473 161.316 222.154 159.318C222 158.354 221.873 157.556 221.774 156.945C221.737 156.654 221.68 156.365 221.603 156.081Z" fill="#455A64"/>
<path d="M225.495 155.92C225.495 155.92 225.495 155.782 225.281 155.7C225.013 155.607 224.723 155.597 224.449 155.672C224.254 155.712 224.068 155.786 223.899 155.892C223.801 155.964 223.717 156.054 223.654 156.158C223.591 156.262 223.549 156.378 223.53 156.498C223.488 156.764 223.525 157.037 223.635 157.284C223.746 157.53 223.925 157.739 224.152 157.885C224.374 158.037 224.634 158.124 224.902 158.135C225.171 158.147 225.437 158.083 225.671 157.951C225.873 157.824 226.021 157.628 226.09 157.4C226.147 157.208 226.162 157.005 226.134 156.806C226.103 156.521 225.973 156.255 225.765 156.057C225.611 155.931 225.49 155.92 225.49 155.931C225.49 155.942 225.572 156.002 225.688 156.134C225.838 156.335 225.923 156.577 225.93 156.828C225.954 157.002 225.93 157.179 225.86 157.34C225.79 157.502 225.677 157.64 225.534 157.742C225.34 157.839 225.125 157.882 224.909 157.868C224.693 157.853 224.485 157.781 224.306 157.659C224.126 157.542 223.982 157.377 223.89 157.183C223.799 156.988 223.764 156.772 223.789 156.558C223.808 156.379 223.897 156.215 224.036 156.101C224.177 156.005 224.331 155.931 224.493 155.881C224.732 155.8 224.988 155.779 225.236 155.821C225.418 155.843 225.473 155.936 225.495 155.92Z" fill="#455A64"/>
<path d="M218.521 175.385C218.937 175.718 219.376 176.02 219.837 176.288C220.662 176.838 221.791 177.587 223.002 178.49C224.213 179.393 225.27 180.235 226.029 180.862C226.423 181.222 226.841 181.554 227.279 181.859C226.955 181.437 226.586 181.053 226.178 180.714C225.223 179.844 224.223 179.025 223.183 178.259C222.147 177.491 221.071 176.78 219.958 176.128C219.508 175.829 219.026 175.579 218.521 175.385Z" fill="#455A64"/>
<path d="M246.148 216.779C246.303 216.808 246.462 216.808 246.616 216.779C246.919 216.779 247.359 216.741 247.893 216.68C250.707 216.347 253.435 215.492 255.936 214.159C256.409 213.906 256.789 213.68 257.036 213.515C257.175 213.44 257.303 213.345 257.416 213.234C256.875 213.453 256.348 213.702 255.836 213.983C254.575 214.588 253.273 215.103 251.939 215.524C250.604 215.94 249.241 216.26 247.86 216.482C247.285 216.552 246.714 216.651 246.148 216.779Z" fill="#455A64"/>
<path d="M247.976 215.618C248.354 215.567 248.724 215.467 249.077 215.32C249.754 215.095 250.673 214.742 251.669 214.296C252.666 213.851 253.535 213.394 254.152 213.036C254.499 212.866 254.823 212.651 255.115 212.397C255.071 212.326 253.524 213.152 251.554 214.049C249.583 214.946 247.954 215.54 247.976 215.618Z" fill="#455A64"/>
<path d="M213.77 250.775L213.715 262.136C213.715 262.136 202.156 265.896 201.93 267.993L223.948 268.896L224.774 251.21L213.77 250.775Z" fill="#263238"/>
<path d="M220.563 261.465C220.773 261.537 220.948 261.684 221.055 261.879C221.162 262.073 221.193 262.3 221.141 262.516C221.076 262.727 220.932 262.905 220.74 263.014C220.547 263.122 220.321 263.153 220.106 263.1C219.888 263.022 219.705 262.867 219.593 262.665C219.48 262.462 219.446 262.225 219.495 261.999C219.588 261.785 219.759 261.615 219.973 261.524C220.187 261.433 220.428 261.428 220.646 261.509" fill="#E0E0E0"/>
<path d="M223.96 268.897V267.113L202.833 266.915C202.833 266.915 201.837 267.3 201.919 268.016L223.96 268.897Z" fill="#455A64"/>
<path d="M213.363 262.009C213.363 262.12 213.914 262.191 214.409 262.56C214.905 262.929 215.191 263.391 215.29 263.353C215.389 263.314 215.257 262.687 214.624 262.252C213.991 261.817 213.341 261.91 213.363 262.009Z" fill="white"/>
<path d="M211.013 262.873C211.013 262.978 211.442 263.176 211.789 263.649C212.136 264.123 212.218 264.602 212.339 264.602C212.46 264.602 212.537 263.996 212.097 263.418C211.657 262.84 211.018 262.769 211.013 262.873Z" fill="white"/>
<path d="M209.587 265.582C209.686 265.61 209.857 265.081 209.587 264.481C209.317 263.881 208.844 263.623 208.795 263.711C208.745 263.799 209.042 264.129 209.24 264.624C209.439 265.12 209.483 265.571 209.587 265.582Z" fill="white"/>
<path d="M213.672 259.423C213.716 259.522 214.222 259.395 214.822 259.461C215.422 259.527 215.89 259.742 215.923 259.648C215.956 259.555 215.543 259.158 214.822 259.098C214.101 259.037 213.611 259.34 213.672 259.423Z" fill="white"/>
<path d="M265.789 249.586L270.011 262.671L276.33 272.056C276.437 272.216 276.511 272.396 276.546 272.586C276.581 272.775 276.576 272.97 276.533 273.158C276.489 273.346 276.408 273.523 276.294 273.678C276.179 273.833 276.034 273.963 275.868 274.06C275.673 274.172 275.455 274.236 275.231 274.247C275.007 274.257 274.783 274.214 274.579 274.12C271.937 272.909 262.238 268.412 261.985 267.438C261.688 266.304 256.618 253.93 256.618 253.93L265.789 249.586Z" fill="#263238"/>
<path d="M275.873 274.059L261.682 266.557L261.875 267.107C262.037 267.584 262.365 267.986 262.8 268.241C263.961 268.924 267.203 270.735 274.546 274.136C274.757 274.234 274.988 274.278 275.219 274.265C275.451 274.251 275.675 274.181 275.873 274.059Z" fill="#455A64"/>
<g opacity="0.6">
<path d="M262.882 261.443C263.083 261.505 263.254 261.638 263.363 261.818C263.472 261.998 263.51 262.211 263.471 262.418C263.417 262.62 263.286 262.795 263.107 262.904C262.928 263.014 262.713 263.05 262.508 263.007C262.296 262.94 262.116 262.798 262.004 262.607C261.891 262.415 261.853 262.189 261.897 261.972C261.975 261.766 262.13 261.599 262.329 261.505C262.529 261.412 262.757 261.399 262.965 261.471" fill="white"/>
</g>
<path d="M270.918 269.419C271.054 268.888 271.33 268.403 271.717 268.016C272.105 267.628 272.589 267.352 273.12 267.217C273.12 267.184 272.917 267.14 272.57 267.217C272.151 267.309 271.769 267.522 271.469 267.828C271.167 268.129 270.96 268.512 270.874 268.929C270.841 269.221 270.918 269.419 270.918 269.419Z" fill="white"/>
<path d="M272.454 270.833C272.537 270.871 272.807 270.282 273.412 269.875C273.803 269.649 274.208 269.446 274.623 269.269C274.38 269.215 274.127 269.219 273.886 269.282C273.644 269.346 273.422 269.466 273.236 269.633C272.57 270.122 272.377 270.822 272.454 270.833Z" fill="white"/>
<path d="M268.431 267.79C268.846 267.228 269.304 266.7 269.801 266.21C270.364 265.8 270.957 265.432 271.574 265.109C270.847 265.213 270.166 265.521 269.609 265.999C269.052 266.477 268.643 267.104 268.431 267.806V267.79Z" fill="white"/>
<path d="M266.812 263.92C266.873 263.986 267.49 263.436 268.409 263.078C269.328 262.72 270.148 262.687 270.148 262.599C269.528 262.444 268.872 262.514 268.299 262.797C267.688 262.987 267.162 263.384 266.812 263.92Z" fill="white"/>
<path d="M265.48 260.11C265.985 259.728 266.541 259.419 267.132 259.191C267.745 259.051 268.374 258.994 269.003 259.02C269.003 258.987 268.816 258.877 268.453 258.806C267.98 258.723 267.495 258.756 267.038 258.899C266.579 259.04 266.161 259.287 265.816 259.62C265.546 259.885 265.447 260.088 265.48 260.11Z" fill="white"/>
<path d="M266.84 258.471C266.825 258.296 266.772 258.127 266.686 257.975C266.484 257.541 266.2 257.15 265.849 256.825C265.612 256.566 265.297 256.392 264.952 256.329C264.837 256.32 264.722 256.347 264.623 256.406C264.525 256.465 264.447 256.554 264.401 256.66C264.319 256.87 264.319 257.104 264.401 257.315C264.584 257.741 264.909 258.09 265.32 258.303C265.732 258.516 266.205 258.579 266.658 258.482C267.103 258.375 267.507 258.139 267.817 257.803C268.128 257.466 268.332 257.046 268.403 256.594C268.421 256.48 268.413 256.364 268.381 256.253C268.348 256.143 268.292 256.041 268.216 255.955C268.132 255.874 268.024 255.822 267.908 255.806C267.793 255.79 267.675 255.811 267.572 255.867C267.279 256.051 267.038 256.307 266.873 256.61C266.61 257.011 266.424 257.457 266.322 257.926C266.269 258.093 266.254 258.27 266.278 258.443C266.443 257.836 266.697 257.257 267.032 256.726C267.189 256.468 267.404 256.251 267.66 256.093C267.716 256.062 267.781 256.05 267.844 256.059C267.908 256.068 267.967 256.097 268.012 256.142C268.056 256.203 268.087 256.272 268.103 256.345C268.119 256.417 268.12 256.493 268.106 256.566C268.035 256.955 267.852 257.315 267.581 257.602C267.309 257.89 266.96 258.092 266.576 258.184C266.193 258.266 265.795 258.216 265.445 258.042C265.095 257.868 264.815 257.581 264.649 257.227C264.594 257.077 264.594 256.914 264.649 256.764C264.674 256.705 264.718 256.655 264.773 256.621C264.828 256.587 264.893 256.572 264.957 256.577C265.247 256.633 265.514 256.775 265.722 256.984C266.178 257.412 266.556 257.914 266.84 258.471Z" fill="white"/>
<path d="M196.641 120.46L201.892 125.882L202.107 130.611L196.007 132.014H195.699L195.303 128.965L191.791 124.292L196.641 120.46Z" fill="#DAB5A9"/>
<path d="M191.02 116.536C188.148 119.601 184.7 122.07 180.874 123.802C177.047 125.535 172.917 126.496 168.719 126.632C164.521 126.768 160.337 126.076 156.407 124.595C152.476 123.114 148.876 120.873 145.811 118C141.2 113.676 137.973 108.081 136.541 101.924C135.108 95.7666 135.532 89.3226 137.761 83.4066C139.99 77.4906 143.923 72.3682 149.062 68.6869C154.202 65.0056 160.318 62.9307 166.636 62.7245C172.955 62.5183 179.193 64.1901 184.561 67.5285C189.93 70.8669 194.188 75.722 196.798 81.4802C199.408 87.2383 200.252 93.6409 199.223 99.8786C198.195 106.116 195.34 111.909 191.02 116.525V116.536ZM147.276 116.448C152.468 121.321 159.23 124.178 166.344 124.505C173.457 124.832 180.453 122.607 186.07 118.231C191.688 113.854 195.557 107.615 196.98 100.638C198.403 93.6611 197.287 86.405 193.832 80.1784C190.377 73.9518 184.812 69.1644 178.139 66.6792C171.465 64.1941 164.124 64.1748 157.438 66.6249C150.752 69.075 145.161 73.8332 141.674 80.0416C138.187 86.25 137.032 93.5001 138.419 100.485C139.618 106.605 142.717 112.191 147.276 116.448Z" fill="#455A64"/>
<path d="M191.02 116.536C188.148 119.601 184.7 122.07 180.874 123.802C177.047 125.535 172.917 126.496 168.719 126.632C164.521 126.768 160.337 126.076 156.407 124.595C152.476 123.114 148.876 120.873 145.811 118C141.2 113.676 137.973 108.081 136.541 101.924C135.108 95.7666 135.532 89.3226 137.761 83.4066C139.99 77.4906 143.923 72.3682 149.062 68.6869C154.202 65.0056 160.318 62.9307 166.636 62.7245C172.955 62.5183 179.193 64.1901 184.561 67.5285C189.93 70.8669 194.188 75.722 196.798 81.4802C199.408 87.2383 200.252 93.6409 199.223 99.8786C198.195 106.116 195.34 111.909 191.02 116.525V116.536ZM147.276 116.448C152.468 121.321 159.23 124.178 166.344 124.505C173.457 124.832 180.453 122.607 186.07 118.231C191.688 113.854 195.557 107.615 196.98 100.638C198.403 93.6611 197.287 86.405 193.832 80.1784C190.377 73.9518 184.812 69.1644 178.139 66.6792C171.465 64.1941 164.124 64.1748 157.438 66.6249C150.752 69.075 145.161 73.8332 141.674 80.0416C138.187 86.25 137.032 93.5001 138.419 100.485C139.618 106.605 142.717 112.191 147.276 116.448Z" fill="#263238"/>
<path d="M191.808 114.995C186.008 121.185 177.987 124.818 169.51 125.095C161.032 125.373 152.791 122.273 146.599 116.476C141.985 112.152 138.756 106.557 137.321 100.398C135.886 94.2399 136.31 87.7942 138.538 81.8763C140.766 75.9583 144.699 70.8339 149.839 67.1509C154.98 63.4679 161.096 61.3916 167.416 61.1846C173.737 60.9776 179.976 62.6492 185.346 65.988C190.717 69.3267 194.976 74.1828 197.587 79.9423C200.197 85.7017 201.042 92.1059 200.013 98.3451C198.984 104.584 196.129 110.379 191.808 114.995ZM148.063 114.913C153.255 119.785 160.018 122.643 167.131 122.97C174.244 123.297 181.24 121.072 186.858 116.695C192.475 112.319 196.344 106.08 197.767 99.103C199.19 92.1259 198.074 84.8699 194.619 78.6432C191.165 72.4166 185.599 67.6292 178.926 65.144C172.253 62.6589 164.911 62.6397 158.225 65.0897C151.539 67.5398 145.949 72.298 142.461 78.5064C138.974 84.7148 137.82 91.9649 139.206 98.9494C140.404 105.07 143.504 110.656 148.063 114.913Z" fill="#455A64"/>
<path d="M227.312 155.371L228.33 154.385C229.238 153.51 228.732 151.501 227.78 150.532L192.044 113.597L187.266 118.22L222.947 155.101C224.13 156.273 226.145 156.532 227.312 155.371Z" fill="#455A64"/>
<path d="M194.406 118.044C194.307 117.959 194.191 117.897 194.065 117.863C193.939 117.83 193.807 117.826 193.679 117.851C193.467 117.938 193.278 118.074 193.129 118.248C191.96 119.448 191.301 121.054 191.29 122.728C191.29 123.439 191.477 124.253 192.11 124.573L192.826 124.16C193.051 123.873 193.712 123.389 193.8 123.059C194.174 121.578 193.64 121.639 194.571 119.068C194.654 118.902 194.683 118.713 194.654 118.529C194.624 118.346 194.537 118.176 194.406 118.044Z" fill="#DAB5A9"/>
<path d="M194.213 120.147C194.393 119.796 194.634 119.479 194.923 119.211C195.045 119.089 195.195 118.999 195.361 118.95C195.526 118.901 195.701 118.894 195.87 118.93C196.365 119.084 196.607 119.794 196.547 120.461C196.454 121.121 196.245 121.76 195.93 122.349C195.341 123.62 194.758 124.897 194.169 126.174L193.828 125.921C193.77 125.971 193.702 126.006 193.628 126.025C193.555 126.044 193.478 126.045 193.404 126.029C193.33 126.013 193.26 125.98 193.201 125.933C193.142 125.885 193.094 125.825 193.062 125.756C192.913 125.429 192.856 125.067 192.897 124.71C192.963 123.105 193.415 121.54 194.213 120.147Z" fill="#DAB5A9"/>
<path d="M195.077 123.962C195.532 123.081 196.129 122.282 196.844 121.596C197.065 121.326 197.346 121.113 197.664 120.974C197.826 120.908 198.006 120.899 198.174 120.948C198.341 120.997 198.488 121.101 198.589 121.243C198.64 121.4 198.654 121.565 198.633 121.728C198.611 121.891 198.553 122.047 198.462 122.185C197.576 124.032 196.561 125.814 195.424 127.518L194.367 126.456C193.888 125.592 194.675 124.865 195.077 123.962Z" fill="#DAB5A9"/>
<path d="M223.58 135.763L222.611 135.559L217.525 131.238L214.772 128.904C214.538 128.711 214.257 128.582 213.958 128.53L211.205 128.073C211.092 128.433 211.112 128.822 211.263 129.168C211.414 129.514 211.685 129.794 212.026 129.956L213.534 130.737L214.91 132.389L214.734 132.741C214.734 132.741 205.712 134.145 205.145 134.833C205.053 134.938 204.985 135.063 204.948 135.198C204.91 135.332 204.903 135.474 204.927 135.612C204.952 135.75 205.007 135.88 205.088 135.994C205.17 136.108 205.275 136.202 205.398 136.27C205.619 136.347 205.855 136.369 206.086 136.336C206.086 136.336 205.646 137.398 206.961 138.273C206.961 138.273 205.96 139.589 207.71 140.216C208.034 140.822 208.569 141.288 209.213 141.526C211.51 141.965 213.829 142.279 216.16 142.468H222.633L223.932 142.677L223.58 135.763Z" fill="#DAB5A9"/>
<path d="M205.882 136.319C206.701 136.513 207.547 136.56 208.381 136.457C209.216 136.436 210.044 136.312 210.847 136.088C210.017 136.033 209.184 136.061 208.359 136.17C207.532 136.178 206.705 136.227 205.882 136.319Z" fill="#A4796E"/>
<path d="M206.967 138.246C206.967 138.284 207.203 138.317 207.578 138.367C207.952 138.416 208.475 138.488 209.059 138.526C209.558 138.546 210.058 138.535 210.556 138.493C210.763 138.499 210.97 138.481 211.172 138.438C211.172 138.4 210.947 138.317 210.561 138.29C210.176 138.262 209.648 138.29 209.075 138.24C208.503 138.191 207.974 138.163 207.589 138.169C207.203 138.174 206.967 138.207 206.967 138.246Z" fill="#A4796E"/>
<path d="M207.54 140.145C208.335 140.35 209.151 140.461 209.973 140.475C210.533 140.477 211.09 140.565 211.624 140.734C212.026 140.883 212.207 141.097 212.24 141.064C212.273 141.031 212.13 140.767 211.69 140.552C211.146 140.317 210.56 140.193 209.967 140.189C209.162 140.085 208.348 140.07 207.54 140.145Z" fill="#A4796E"/>
<path d="M237.072 107.884C237.072 107.884 240.886 108.544 243.776 114.225C245.372 117.368 252.848 136.243 253.288 137.895C255.187 144.984 251.515 149.553 247.987 149.861C244.095 150.208 223.993 143.718 223.993 143.718L223.547 135.131L241.888 137.911L233.081 120.808C233.081 120.808 232.739 109.442 237.072 107.884Z" fill="#0EC79B"/>
<path d="M248.053 142.628C247.967 142.217 247.801 141.828 247.563 141.483C247.028 140.619 246.326 139.871 245.499 139.281C244.674 138.687 243.738 138.266 242.746 138.042C242.342 137.929 241.919 137.897 241.502 137.949C241.502 137.998 241.976 138.031 242.697 138.24C243.64 138.511 244.53 138.941 245.328 139.512C246.126 140.081 246.822 140.781 247.387 141.582C247.8 142.22 248.009 142.65 248.053 142.628Z" fill="#263238"/>
<path d="M242.95 149.151H242.851L242.582 149.09C242.334 149.041 241.981 148.936 241.525 148.809C240.605 148.545 239.273 148.132 237.594 147.598C234.237 146.525 229.486 144.962 223.91 143.074L223.828 143.046V142.952C223.695 140.481 223.552 137.789 223.409 134.976V134.8L223.585 134.833L228.094 135.56L241.91 137.817L241.772 138.004C239.279 133.121 237.176 128.998 235.679 126.081C234.958 124.639 234.38 123.494 233.972 122.69L233.532 121.788C233.476 121.685 233.428 121.578 233.389 121.468C233.46 121.562 233.521 121.664 233.571 121.771L234.049 122.652C234.468 123.45 235.068 124.584 235.822 126.01L242.004 137.888L242.119 138.114L241.866 138.075L228.033 135.874L223.519 135.136L223.684 134.993C223.828 137.8 223.96 140.497 224.086 142.969L223.993 142.853L237.644 147.477L241.547 148.754C242.004 148.892 242.35 149.013 242.587 149.074L242.857 149.156L242.95 149.151Z" fill="#263238"/>
<path d="M237.891 108.229C237.891 108.279 237.374 108.592 236.614 109.247C234.613 110.967 233.306 113.356 232.937 115.968C232.805 116.959 232.838 117.592 232.783 117.592C232.742 117.449 232.721 117.301 232.723 117.152C232.685 116.751 232.685 116.347 232.723 115.946C232.775 115.348 232.886 114.756 233.053 114.179C233.462 112.758 234.176 111.443 235.145 110.326C235.539 109.875 235.974 109.46 236.444 109.088C236.76 108.836 237.097 108.612 237.451 108.416C237.586 108.328 237.735 108.265 237.891 108.229Z" fill="#263238"/>
<path d="M26.3793 119.802C26.3793 119.802 22.3279 142.37 22.5261 144.457C22.7242 146.543 23.8031 149.917 26.2471 150.512C27.7938 150.852 29.3959 150.852 30.9425 150.512L28.0086 122.824L26.3793 119.802Z" fill="#FFBF9D"/>
<path d="M38.2141 100.546L37.9278 77.2675C37.6691 71.4767 40.8232 66.4951 46.625 66.396H47.1755C49.779 66.5032 52.2468 67.5867 54.0879 69.4308C55.9289 71.2749 57.0082 73.7445 57.1112 76.3482C57.3038 81.3684 57.458 86.9224 57.3148 89.6031C57.0176 95.1627 51.4195 95.7958 51.4195 95.7958C51.4195 95.7958 51.3864 99.181 51.3864 100.81L46.8837 107.02V107.35L38.2141 100.546Z" fill="#FFBF9D"/>
<path d="M51.403 95.7959C48.8336 95.6841 46.3501 94.8378 44.2471 93.3574C44.2471 93.3574 45.8159 97.6069 51.403 97.3372V95.7959Z" fill="#FF9A6C"/>
<path d="M55.3221 81.1207C55.315 81.3276 55.2278 81.5236 55.0788 81.6674C54.9299 81.8112 54.731 81.8915 54.524 81.8913C54.4226 81.8958 54.3215 81.8797 54.2265 81.8442C54.1315 81.8086 54.0447 81.7543 53.9712 81.6844C53.8977 81.6145 53.8391 81.5305 53.7988 81.4374C53.7585 81.3444 53.7375 81.2441 53.7368 81.1427C53.7426 80.9363 53.8286 80.7403 53.9766 80.5964C54.1246 80.4525 54.323 80.372 54.5295 80.3721C54.6309 80.3684 54.732 80.3849 54.8269 80.4207C54.9219 80.4565 55.0087 80.5108 55.0825 80.5805C55.1563 80.6501 55.2154 80.7338 55.2566 80.8265C55.2977 80.9193 55.32 81.0193 55.3221 81.1207Z" fill="#263238"/>
<path d="M55.8066 78.754C55.7075 78.8531 55.1241 78.3852 54.2709 78.3521C53.4177 78.3191 52.7681 78.7209 52.68 78.6109C52.592 78.5008 52.7461 78.3797 53.0268 78.1925C53.4068 77.9495 53.8535 77.8321 54.3039 77.8567C54.7491 77.8721 55.1776 78.0304 55.5259 78.3081C55.7791 78.5173 55.8617 78.7099 55.8066 78.754Z" fill="#263238"/>
<path d="M47.6929 81.1207C47.6857 81.3276 47.5985 81.5236 47.4496 81.6674C47.3007 81.8112 47.1017 81.8915 46.8947 81.8913C46.7933 81.895 46.6922 81.8785 46.5973 81.8427C46.5023 81.8069 46.4154 81.7526 46.3417 81.683C46.2679 81.6133 46.2087 81.5297 46.1676 81.4369C46.1265 81.3442 46.1042 81.2442 46.1021 81.1427C46.1092 80.9358 46.1964 80.7398 46.3453 80.596C46.4943 80.4523 46.6932 80.372 46.9002 80.3721C47.0016 80.3684 47.1027 80.3849 47.1977 80.4207C47.2926 80.4565 47.3795 80.5108 47.4533 80.5805C47.527 80.6501 47.5862 80.7338 47.6273 80.8265C47.6685 80.9193 47.6907 81.0193 47.6929 81.1207Z" fill="#263238"/>
<path d="M47.4342 78.6048C47.3296 78.7039 46.7461 78.236 45.8929 78.203C45.0397 78.1699 44.3902 78.5718 44.3021 78.4617C44.214 78.3516 44.3682 78.2305 44.6489 78.0433C45.0302 77.8034 45.4759 77.6862 45.926 77.7076C46.3704 77.7271 46.7976 77.8849 47.148 78.1589C47.3957 78.3681 47.4782 78.5608 47.4342 78.6048Z" fill="#263238"/>
<path d="M50.2195 85.2978C50.6754 85.1738 51.1453 85.1091 51.6177 85.1051C51.8379 85.1051 52.047 85.0556 52.0856 84.9069C52.1144 84.6837 52.074 84.457 51.97 84.2574C51.7828 83.7069 51.5957 83.1565 51.392 82.5675C50.5938 80.1675 50.0269 78.1914 50.1205 78.1639C50.214 78.1363 50.9461 80.0519 51.7443 82.4519L52.2947 84.1528C52.4187 84.4216 52.446 84.725 52.3718 85.0115C52.3364 85.087 52.2844 85.1535 52.2195 85.206C52.1547 85.2584 52.0788 85.2955 51.9975 85.3143C51.877 85.3442 51.7528 85.3572 51.6287 85.3528C51.1585 85.3944 50.685 85.3759 50.2195 85.2978Z" fill="#263238"/>
<path d="M47.8142 75.9461C47.6876 76.1608 46.8674 75.8966 45.8601 75.8305C44.8527 75.7644 44.005 75.891 43.9115 75.6599C43.8729 75.5498 44.0491 75.3626 44.4124 75.1975C44.8919 75.0029 45.4104 74.9237 45.9261 74.9663C46.4416 74.9974 46.9419 75.1522 47.3848 75.4177C47.7206 75.6158 47.8692 75.8415 47.8142 75.9461Z" fill="#263238"/>
<path d="M55.9499 76.2443C55.7682 76.4315 55.0801 76.2113 54.2435 76.1837C53.4068 76.1562 52.6912 76.2718 52.537 76.0626C52.4655 75.9636 52.5811 75.7709 52.8949 75.5948C53.3303 75.3805 53.8142 75.2837 54.2985 75.314C54.7805 75.3317 55.2485 75.4801 55.6526 75.7434C55.9389 75.9471 56.0324 76.1672 55.9499 76.2443Z" fill="#263238"/>
<path d="M38.2141 81.3847C38.1206 81.3352 34.438 80.0966 34.405 83.9003C34.372 87.7039 38.1976 86.9553 38.2031 86.8452C38.2086 86.7351 38.2141 81.3847 38.2141 81.3847Z" fill="#FFBF9D"/>
<path d="M37.0579 85.3974C37.0579 85.3974 36.9919 85.4415 36.8763 85.491C36.7175 85.5559 36.5396 85.5559 36.3809 85.491C36.1376 85.3315 35.9407 85.1106 35.8102 84.8506C35.6797 84.5905 35.6202 84.3007 35.6378 84.0103C35.628 83.684 35.694 83.36 35.8304 83.0635C35.8678 82.946 35.9327 82.8392 36.0199 82.7521C36.1071 82.6649 36.2139 82.5999 36.3313 82.5626C36.4074 82.5433 36.4879 82.5508 36.559 82.5839C36.6302 82.617 36.6878 82.6736 36.7221 82.7442C36.7717 82.8543 36.7497 82.9259 36.7662 82.9369C36.7827 82.9479 36.8488 82.8708 36.8212 82.7167C36.8006 82.6214 36.7482 82.536 36.6726 82.4745C36.6221 82.434 36.5637 82.4043 36.5012 82.3873C36.4388 82.3702 36.3734 82.3662 36.3093 82.3754C36.1525 82.4046 36.0059 82.4736 35.8835 82.5758C35.7611 82.678 35.667 82.8099 35.6102 82.9589C35.4446 83.2862 35.3615 83.649 35.368 84.0158C35.368 84.7864 35.7754 85.5075 36.3203 85.6671C36.4226 85.699 36.5308 85.7071 36.6366 85.6909C36.7425 85.6747 36.8433 85.6346 36.9313 85.5736C37.0469 85.4855 37.0689 85.4029 37.0579 85.3974Z" fill="#FF9A6C"/>
<path d="M47.5332 85.8263C47.6653 85.8263 47.6708 86.6905 48.4249 87.307C49.179 87.9235 50.1038 87.8244 50.1093 87.9455C50.1148 88.0666 49.9056 88.1162 49.5093 88.1327C48.9976 88.1399 48.4993 87.9686 48.1001 87.6483C47.7279 87.3335 47.4897 86.8886 47.4341 86.4042C47.3791 86.0354 47.4781 85.8208 47.5332 85.8263Z" fill="#263238"/>
<path d="M64.7736 71.3389C64.7122 71.1074 64.5618 70.9096 64.3553 70.7884C63.9123 70.5811 63.4221 70.4956 62.9351 70.5407C61.7234 70.5007 60.5363 70.1884 59.4617 69.627C59.8425 69.4472 60.1919 69.2075 60.4966 68.9169C60.8205 68.6253 61.058 68.2503 61.1832 67.8329C61.3085 67.4154 61.3166 66.9716 61.2067 66.5499C61.1883 66.4707 61.1526 66.3966 61.1022 66.3328C61.0517 66.269 60.9878 66.2172 60.9149 66.1811C60.6672 66.104 60.447 66.3462 60.2764 66.5334C60.0572 66.835 59.76 67.0712 59.4167 67.2166C59.0734 67.3621 58.697 67.4114 58.3278 67.3591C57.8201 67.3228 57.3271 67.1722 56.8856 66.9187L56.8416 66.8637L56.2416 66.2582C54.8269 64.8215 53.6049 63.8252 52.3444 63.2967C50.1439 62.4694 47.7602 62.2544 45.4472 62.6747C43.5041 63.1646 41.7481 64.7169 41.4564 66.6985C40.383 65.7683 38.7482 65.7573 37.4216 66.2692H37.3885C35.9078 66.7756 35.0546 68.3224 34.5977 69.8196L34.5317 70.0673C34.0269 70.8571 33.3397 71.5141 32.528 71.9829C32.3849 72.0655 32.2198 72.1645 32.1978 72.3297C32.2028 72.4112 32.228 72.4901 32.2713 72.5593C32.3146 72.6285 32.3744 72.6858 32.4455 72.726C32.8005 72.9789 33.2061 73.1517 33.6344 73.2324C33.4976 73.5894 33.33 73.9338 33.1335 74.2618C32.9629 74.5425 32.7647 74.8783 32.9023 75.17C32.9677 75.2793 33.0651 75.3659 33.1812 75.418C33.2974 75.4702 33.4268 75.4855 33.5519 75.4618C33.8 75.4106 34.0345 75.3074 34.2399 75.159C34.0748 75.5498 33.9042 75.9462 33.7335 76.337C34.2689 76.4319 34.819 76.4017 35.3408 76.2489C35.6381 77.6581 35.8418 80.2617 36.194 81.203C37.2014 81.203 37.4491 81.1204 37.9555 81.2966C38.616 81.5223 38.3518 82.6892 39.2105 82.3645C39.6509 82.2048 40.3114 80.5535 40.4876 80.1131C41.4953 77.1621 41.8521 74.028 41.5335 70.926C42.1538 70.2803 42.8918 69.759 43.7078 69.3903L43.6417 69.4508C45.205 68.9279 46.9719 68.416 48.4416 69.1646C49.5756 69.715 50.2361 70.9425 51.0838 71.9168C51.7968 72.789 52.6863 73.5003 53.6938 74.0041C54.7014 74.5079 55.8042 74.7927 56.9297 74.8398C57.1278 76.5241 57.1609 79.2434 57.2269 80.8397L58.603 77.7186C58.7082 77.5404 58.8037 77.3566 58.8893 77.1682L58.9223 77.1131C59.0562 76.8096 59.2069 76.5137 59.3737 76.2269C59.5546 76.3758 59.7829 76.455 60.0172 76.45C60.2514 76.445 60.4762 76.3563 60.6506 76.1998C60.825 76.0433 60.9376 75.8295 60.9679 75.5972C60.9983 75.3648 60.9443 75.1293 60.8159 74.9333C60.6875 74.7489 60.5293 74.5871 60.348 74.4544C60.5391 74.6416 60.7753 74.7764 61.0337 74.8458C61.2921 74.9152 61.564 74.9169 61.8232 74.8508C62.0792 74.7747 62.303 74.6166 62.4602 74.4007C62.6173 74.1848 62.6991 73.9232 62.6929 73.6563C62.6741 73.476 62.6083 73.3038 62.502 73.157C62.3957 73.0102 62.2528 72.8938 62.0874 72.8196C62.7779 72.8833 63.4717 72.7396 64.08 72.4067C64.4984 72.1976 64.9002 71.8343 64.7736 71.3389Z" fill="#263238"/>
<path d="M43.2232 67.3589C43.0277 67.5142 42.8438 67.6835 42.6727 67.8653C42.2241 68.391 41.9205 69.0248 41.792 69.7038C41.6954 70.1694 41.6438 70.6431 41.6379 71.1185C41.6379 71.6304 41.6654 72.1809 41.6929 72.7699C41.7318 73.3784 41.7318 73.9888 41.6929 74.5974C41.6741 74.9217 41.6281 75.244 41.5553 75.5607C41.5045 75.9004 41.366 76.221 41.1535 76.4909C41.0558 76.5981 40.9317 76.6779 40.7936 76.7224C40.6555 76.7668 40.5082 76.7743 40.3663 76.7441C40.0915 76.6937 39.8426 76.5498 39.6617 76.3368C39.3654 75.9182 39.1867 75.4278 39.1443 74.9166H39.2599C39.0871 75.3341 38.8533 75.7236 38.5663 76.0726C38.284 76.3911 37.8896 76.5883 37.4654 76.623C37.2759 76.6378 37.0859 76.6017 36.915 76.5184C36.7576 76.432 36.6278 76.3031 36.5402 76.1464C36.4526 75.9897 36.4108 75.8115 36.4196 75.6322C36.4288 75.4724 36.4929 75.3207 36.6012 75.2029L36.6617 75.2579C36.3256 75.6346 35.9127 75.9349 35.4508 76.1386C35.3303 76.1926 35.2073 76.2404 35.0819 76.2817C35.0363 76.2883 34.99 76.2883 34.9443 76.2817L35.0709 76.2322C35.1948 76.1855 35.3161 76.1322 35.4342 76.0726C35.881 75.8573 36.2784 75.5518 36.6012 75.1753L36.6562 75.2304C36.5644 75.3465 36.5108 75.4883 36.5029 75.6362C36.495 75.7841 36.5332 75.9308 36.6122 76.0561C36.6891 76.2048 36.8103 76.3259 36.959 76.4028C37.1218 76.48 37.3028 76.5105 37.4819 76.4909C37.8779 76.4448 38.2407 76.2476 38.4948 75.9405C38.7674 75.5956 38.9898 75.2138 39.1553 74.8065L39.2379 74.6304L39.2764 74.823C39.3173 75.3123 39.4884 75.7818 39.7718 76.1827C39.934 76.3712 40.1551 76.4992 40.3993 76.546C40.5203 76.5712 40.6457 76.5647 40.7634 76.5271C40.8811 76.4895 40.987 76.422 41.0709 76.3313C41.2659 76.0769 41.3945 75.778 41.4452 75.4616C41.5104 75.1512 41.5545 74.8367 41.5773 74.5203C41.6132 73.9172 41.6132 73.3124 41.5773 72.7093C41.5443 72.1258 41.5168 71.5754 41.5278 71.0579C41.5372 70.5761 41.5962 70.0965 41.7039 69.6268C41.8419 68.9362 42.1633 68.2954 42.6342 67.7717C42.8074 67.6037 43.0062 67.4644 43.2232 67.3589Z" fill="#455A64"/>
<path d="M60.3918 72.979L60.3477 73.012L60.2046 73.1166C60.1288 73.1709 60.0497 73.2205 59.9679 73.2652C59.8576 73.3287 59.7436 73.3857 59.6266 73.4359C58.8763 73.767 58.055 73.9051 57.2377 73.8377C56.022 73.7447 54.8595 73.3011 53.8909 72.5606C52.7241 71.6425 51.7543 70.4987 51.0395 69.1974C50.6432 68.5203 50.324 67.8212 49.9662 67.1827C49.6414 66.556 49.228 65.9795 48.7386 65.4708C48.299 65.0134 47.7522 64.6728 47.1478 64.48C46.8724 64.4009 46.5866 64.3638 46.3001 64.3699C46.0362 64.3825 45.7751 64.4306 45.524 64.513C45.0909 64.6551 44.6931 64.8878 44.357 65.1956C44.1027 65.4298 43.8871 65.7029 43.7185 66.0047C43.5899 66.2703 43.4903 66.549 43.4213 66.8359C43.4201 66.8176 43.4201 66.7992 43.4213 66.7809C43.4213 66.7313 43.4213 66.6763 43.4213 66.6102C43.4676 66.3925 43.5416 66.1817 43.6414 65.9827C43.8139 65.6709 44.0393 65.3915 44.3075 65.157C44.6467 64.8331 45.0524 64.587 45.4965 64.4359C45.7546 64.3499 46.023 64.298 46.2946 64.2818C46.5919 64.2706 46.889 64.3059 47.1754 64.3864C47.8025 64.5792 48.3706 64.9276 48.8267 65.3992C49.325 65.9136 49.7459 66.4977 50.0762 67.1332C50.4395 67.7772 50.7588 68.4708 51.1771 69.1423C51.8835 70.4193 52.8379 71.5422 53.9845 72.445C54.9393 73.1818 56.0857 73.6289 57.2872 73.7331C58.0916 73.8038 58.9013 73.6811 59.6486 73.3753C59.9031 73.2563 60.1511 73.124 60.3918 72.979Z" fill="#455A64"/>
<path d="M60.9261 70.5356C60.8659 70.5894 60.7994 70.6356 60.7279 70.6732C60.5382 70.7867 60.3393 70.8843 60.1334 70.9649C59.829 71.0915 59.514 71.1909 59.1921 71.2622C58.7975 71.3483 58.3958 71.398 57.9921 71.4108C57.5881 71.4159 57.1844 71.3827 56.7866 71.3117C56.4622 71.2537 56.1436 71.1671 55.8344 71.053C55.6244 70.9826 55.4216 70.8923 55.2289 70.7833C55.0912 70.7117 55.0197 70.6677 55.0252 70.6567C55.0307 70.6456 55.339 70.7998 55.8674 70.9649C56.1696 71.0687 56.4786 71.1515 56.7922 71.2126C57.1819 71.2724 57.5759 71.3 57.9701 71.2952C58.3658 71.2848 58.7599 71.2406 59.1481 71.1631C59.4655 71.0958 59.7781 71.0075 60.0839 70.8989C60.6453 70.6897 60.9151 70.5135 60.9261 70.5356Z" fill="#455A64"/>
<path d="M46.361 247.359L45.8106 259.937C45.8106 259.937 58.4105 264.72 58.5371 267.054L34.1079 266.867L34.1575 247.227L46.361 247.359Z" fill="#455A64"/>
<path d="M38.2637 258.835C38.0284 258.906 37.8272 259.06 37.6984 259.269C37.5695 259.478 37.5219 259.727 37.5646 259.969C37.6247 260.204 37.7718 260.408 37.9762 260.538C38.1805 260.669 38.4269 260.718 38.6655 260.674C38.9145 260.598 39.127 260.433 39.262 260.211C39.3971 259.989 39.4454 259.724 39.3976 259.468C39.3091 259.226 39.1297 259.028 38.8974 258.916C38.6651 258.804 38.3982 258.787 38.1536 258.868" fill="#E0E0E0"/>
<g opacity="0.6">
<path d="M34.1079 266.882L34.1905 264.9L57.5848 265.825C57.5848 265.825 58.6857 266.304 58.5371 267.069L34.1079 266.882Z" fill="white"/>
</g>
<path d="M46.2067 259.831C46.2067 259.952 45.6067 260.001 45.0122 260.381C44.4177 260.761 44.1095 261.256 43.9994 261.207C43.8893 261.157 44.071 260.475 44.792 260.029C45.5131 259.583 46.2342 259.721 46.2067 259.831Z" fill="#263238"/>
<path d="M48.7609 260.911C48.7609 261.026 48.271 261.224 47.8581 261.731C47.4453 262.237 47.3077 262.76 47.2086 262.755C47.1095 262.749 47.0215 262.078 47.5444 261.461C48.0673 260.844 48.7609 260.8 48.7609 260.911Z" fill="#263238"/>
<path d="M50.1866 263.993C50.0765 263.993 49.9169 263.415 50.2306 262.765C50.5444 262.116 51.1004 261.863 51.1499 261.962C51.1994 262.061 50.8527 262.408 50.5995 262.947C50.3462 263.486 50.3132 263.982 50.1866 263.993Z" fill="#263238"/>
<path d="M46.014 256.952C45.9644 257.057 45.414 256.892 44.7424 256.952C44.0709 257.013 43.5424 257.2 43.4764 257.101C43.4103 257.002 43.9277 256.55 44.7204 256.55C45.5131 256.55 46.0745 256.859 46.014 256.952Z" fill="#263238"/>
<path d="M46.3335 256.811C46.4202 257.817 46.4312 258.829 46.3665 259.838L46.2674 259.689C47.6931 260.24 49.5701 260.961 51.6068 261.891C53.5198 262.73 55.336 263.775 57.0233 265.007C57.5412 265.385 57.9931 265.846 58.3609 266.372C58.6141 266.768 58.5811 267.065 58.5425 267.049C58.4767 266.836 58.3701 266.638 58.2288 266.466C57.828 265.994 57.3629 265.58 56.8471 265.238C55.1325 264.091 53.3222 263.095 51.4362 262.26C49.4325 261.319 47.5555 260.554 46.1573 259.954L46.0527 259.91V259.805C46.0713 258.801 46.1651 257.8 46.3335 256.811Z" fill="#263238"/>
<path d="M30.5571 159.643V171.043L35.0598 207.456C35.0598 207.456 33.6342 224.52 32.7534 234.169C31.9938 242.541 33.2378 257.117 33.2378 257.117H46.5753L51.3423 208.501L54.3037 178.182L59.6761 160.221L30.5571 159.643Z" fill="#263238"/>
<path d="M54.1991 245.189L50.7367 257.266C50.7367 257.266 61.8614 264.879 61.432 267.174L37.7295 261.246L42.3973 242.167L54.1991 245.189Z" fill="#455A64"/>
<path d="M43.6362 254.426C43.3903 254.439 43.1578 254.542 42.9832 254.716C42.8086 254.889 42.704 255.121 42.6895 255.367C42.6921 255.612 42.7892 255.847 42.9604 256.022C43.1316 256.197 43.3638 256.3 43.6087 256.308C43.8691 256.296 44.1155 256.187 44.2998 256.003C44.4841 255.819 44.593 255.572 44.605 255.312C44.5772 255.056 44.4505 254.822 44.252 254.658C44.0535 254.495 43.7989 254.415 43.5427 254.437" fill="#E0E0E0"/>
<g opacity="0.6">
<path d="M37.7021 261.274L38.2526 259.369L60.7772 265.765C60.7772 265.765 61.7185 266.487 61.4102 267.202L37.7021 261.274Z" fill="white"/>
</g>
<path d="M51.1221 257.266C51.089 257.376 50.5 257.266 49.834 257.514C49.1679 257.762 48.7331 258.158 48.6505 258.064C48.5679 257.971 48.8982 257.365 49.7019 257.101C50.5055 256.837 51.1716 257.162 51.1221 257.266Z" fill="#263238"/>
<path d="M53.3515 258.918C53.3515 259.039 52.801 259.11 52.2836 259.501C51.7662 259.892 51.524 260.382 51.4084 260.349C51.2928 260.316 51.4084 259.639 52.0359 259.165C52.6634 258.692 53.3735 258.802 53.3515 258.918Z" fill="#263238"/>
<path d="M54.0395 262.221C53.9295 262.221 53.9129 261.599 54.3698 261.043C54.8267 260.487 55.4267 260.366 55.4707 260.493C55.5148 260.619 55.0744 260.856 54.7056 261.318C54.3368 261.781 54.1386 262.26 54.0395 262.221Z" fill="#263238"/>
<path d="M51.6121 254.42C51.535 254.513 51.0616 254.216 50.3791 254.101C49.6965 253.985 49.1515 254.057 49.1185 253.947C49.0855 253.836 49.669 253.539 50.4561 253.693C51.2433 253.847 51.6891 254.343 51.6121 254.42Z" fill="#263238"/>
<path d="M64.8285 160.418L65.4395 166.622L64.7019 211.649L54.1497 247.825L51.59 256.599L37.9663 254.034L48.469 160.429L64.8285 160.418Z" fill="#263238"/>
<path d="M64.4157 212.597C64.4157 212.597 64.4157 212.668 64.3661 212.811C64.3166 212.955 64.2671 213.164 64.1955 213.433C64.0359 213.984 63.8047 214.804 63.5074 215.855L60.8928 224.949C58.6359 232.738 55.4433 243.741 51.7057 256.633L51.6727 256.738H51.5681L37.9443 254.178H37.8232V254.051C38.5168 250.38 39.2434 246.549 39.9865 242.635C42.1883 231.075 44.2581 220.127 46.0746 210.582V210.621C43.8177 196.457 42.0177 185.168 40.9829 178.694L38.7095 174.555L38.159 173.481C38.0269 173.245 37.9664 173.118 37.9664 173.118C37.9664 173.118 38.0434 173.234 38.181 173.47L38.7865 174.527L41.104 178.645C42.1608 185.124 44.0048 196.408 46.3168 210.571V210.61C44.5168 220.16 42.4636 231.086 40.2618 242.674C39.5241 246.582 38.792 250.418 38.0985 254.09L37.9994 253.941L51.6176 256.512L51.48 256.595C55.2561 243.719 58.4763 232.727 60.7552 224.943C61.9001 221.063 62.8139 217.986 63.4359 215.866C63.7496 214.821 63.9863 214.011 64.1625 213.455L64.3496 212.839C64.3882 212.679 64.4157 212.597 64.4157 212.597Z" fill="#455A64"/>
<path d="M62.3793 164.113C62.196 164.518 61.9467 164.891 61.6417 165.214C60.947 166.024 60.1298 166.721 59.2197 167.278C58.3097 167.836 57.315 168.241 56.2748 168.478C55.8513 168.601 55.4108 168.655 54.9702 168.638C57.9076 168.087 60.5424 166.482 62.3793 164.124V164.113Z" fill="#455A64"/>
<path d="M91.4101 96.1634C91.4559 96.1035 91.4889 96.0349 91.5071 95.9619C91.5253 95.8888 91.5283 95.8127 91.5159 95.7384C91.5035 95.6641 91.476 95.5931 91.4351 95.5299C91.3941 95.4666 91.3407 95.4125 91.278 95.3707C91.2501 95.3471 91.2176 95.3295 91.1825 95.3191C91.1474 95.3086 91.1106 95.3056 91.0743 95.3102C90.8046 95.3542 90.0835 95.8606 89.5331 95.8881C88.9826 95.9157 88.0413 95.7285 87.4854 96.2404C86.9294 96.7524 85.5863 99.5432 85.4157 100.176C85.245 100.809 84.645 106.154 84.645 106.154L91.4101 96.1634Z" fill="#FFBF9D"/>
<path d="M93.7441 95.46C93.7166 95.493 87.1387 98.3994 84.2433 99.6764C84.0944 99.7403 83.9639 99.8403 83.8634 99.9674C83.7629 100.094 83.6957 100.245 83.6678 100.404C83.64 100.564 83.6523 100.728 83.7038 100.881C83.7553 101.035 83.8442 101.173 83.9626 101.284C84.1143 101.433 84.3088 101.531 84.5189 101.565C84.729 101.598 84.9444 101.565 85.135 101.471L94.5808 96.8691L95.3625 95.6856L93.7441 95.46Z" fill="#263238"/>
<path d="M86.7751 101.383L88.8724 99.8364L91.6246 95.818C91.6246 95.818 92.7586 95.141 93.3476 95.5703C93.9365 95.9997 94.1292 96.4841 93.854 97.0345C93.854 97.0345 95.4228 97.4089 95.5329 97.9318C95.5484 98.5397 95.4724 99.1465 95.3072 99.7318C95.4271 100.224 95.4271 100.737 95.3072 101.229C95.1756 101.533 95.1082 101.861 95.109 102.192C95.109 102.192 96.1218 103.436 95.6594 104.702C95.1971 105.968 93.3971 108.803 92.4173 109.535C91.5172 110.144 90.5712 110.681 89.5879 111.143L88.377 113.68L83.3623 109.134L86.7751 101.383Z" fill="#FFBF9D"/>
<path d="M91.5533 95.9834C91.5198 96.0614 91.4773 96.1353 91.4267 96.2036L91.0524 96.754C90.7332 97.2329 90.2873 97.888 89.7864 98.6091L89.0818 99.6274C88.9752 99.7772 88.8535 99.9155 88.7185 100.04C88.5987 100.147 88.4632 100.234 88.3167 100.299C88.109 100.396 87.8911 100.47 87.6671 100.519C87.5868 100.545 87.5036 100.559 87.4194 100.563C87.4967 100.531 87.5757 100.504 87.6561 100.481C87.8719 100.418 88.0818 100.337 88.2836 100.238C88.8341 100.007 89.1864 99.2531 89.7038 98.554C90.2212 97.8549 90.6616 97.1834 90.9974 96.7155L91.3937 96.165C91.4424 96.1007 91.4958 96.04 91.5533 95.9834Z" fill="#FF9A6C"/>
<path d="M92.1973 100.172C92.4389 99.6316 92.709 99.1042 93.0064 98.5923C93.2775 98.0663 93.577 97.5554 93.9037 97.062C93.6661 97.6045 93.3959 98.1321 93.0945 98.6418C92.8269 99.1697 92.5272 99.6807 92.1973 100.172Z" fill="#FF9A6C"/>
<path d="M92.8577 102.682C92.8577 102.682 92.8577 102.594 92.7861 102.462C92.7173 102.294 92.6029 102.149 92.4559 102.043C92.3069 101.941 92.1304 101.885 91.9494 101.884C91.8063 101.884 91.7183 101.884 91.7183 101.884C91.7183 101.884 91.7953 101.823 91.9494 101.812C92.1445 101.797 92.3389 101.85 92.4999 101.961C92.6641 102.076 92.7828 102.246 92.8357 102.44C92.8907 102.588 92.8687 102.687 92.8577 102.682Z" fill="#FF9A6C"/>
<path d="M95.1861 103.435C95.1861 103.435 95.0981 103.391 94.9825 103.292C94.8321 103.167 94.6677 103.06 94.4926 102.973C94.3224 102.888 94.1303 102.857 93.9421 102.885C93.799 102.912 93.7494 103 93.7329 102.989C93.7164 102.978 93.7329 102.868 93.9201 102.813C94.1269 102.761 94.3456 102.784 94.5366 102.879C94.723 102.968 94.8911 103.091 95.032 103.242C95.1366 103.352 95.1971 103.424 95.1861 103.435Z" fill="#FF9A6C"/>
<path d="M94.2891 101.323C94.4123 101.034 94.5673 100.758 94.7514 100.503C94.9062 100.227 95.0908 99.9684 95.3019 99.7324C95.1781 100.024 95.0231 100.3 94.8395 100.558C94.6839 100.832 94.4994 101.089 94.2891 101.323Z" fill="#FF9A6C"/>
<path d="M90.2649 101.488C90.2649 101.488 90.2649 101.4 90.2153 101.273C90.1658 101.11 90.0655 100.968 89.9291 100.866C89.789 100.772 89.6242 100.722 89.4557 100.723C89.3236 100.723 89.2465 100.723 89.241 100.723C89.2355 100.723 89.3071 100.662 89.4502 100.64C89.6409 100.613 89.8348 100.661 89.9909 100.774C90.147 100.887 90.2531 101.056 90.2869 101.246C90.3089 101.422 90.2759 101.488 90.2649 101.488Z" fill="#FF9A6C"/>
<path d="M84.7772 101.488C84.7772 101.488 84.8708 101.395 84.9589 101.224C85.0164 101.112 85.0504 100.989 85.0589 100.863C85.0674 100.737 85.0502 100.611 85.0084 100.492C84.9599 100.375 84.8887 100.269 84.7989 100.181C84.7092 100.092 84.6026 100.022 84.4855 99.9744C84.3038 99.8974 84.1772 99.9029 84.1772 99.8864C84.2855 99.8458 84.4048 99.8458 84.513 99.8864C84.646 99.9284 84.7679 99.9997 84.8698 100.095C84.9717 100.19 85.0511 100.307 85.102 100.437C85.1512 100.568 85.1693 100.709 85.155 100.848C85.1407 100.988 85.0943 101.122 85.0194 101.24C84.9038 101.444 84.7827 101.488 84.7772 101.488Z" fill="#455A64"/>
<path d="M67.1296 114.193L75.0946 121.007L84.8652 106.409L91.2174 110.158C91.2174 110.158 81.6946 132.077 79.1075 134.014C76.5203 135.952 74.3515 135.446 71.0268 133.915C67.702 132.385 55.8838 120.473 55.8838 120.473L67.1296 114.193Z" fill="#FFBF9D"/>
<path d="M75.3752 127.062C75.2982 127.062 75.5129 125.675 75.4193 123.974C75.3257 122.273 74.9679 120.93 75.045 120.908C75.769 122.88 75.8841 125.024 75.3752 127.062Z" fill="#FF9A6C"/>
<path d="M34.6472 103.045C34.6472 103.045 41.4122 103.144 41.5113 111.577C41.6104 120.01 39.7884 131.295 39.7884 131.295L22.5151 128.251C22.5151 128.251 24.6564 112.546 26.4894 108.027C28.3224 103.508 31.8453 102.28 34.6472 103.045Z" fill="#0EC79B"/>
<path d="M37.8563 96.9736L37.6416 98.3498C37.6416 98.3498 28.4105 104.449 27.8875 106.023C27.0784 108.462 28.8453 129.082 29.6215 134.927C30.3976 140.773 30.5572 153.643 30.5572 153.643C30.0068 155.162 29.3462 156.527 29.1371 158.647C28.9279 160.766 30.5572 162.659 30.5572 162.659C40.4654 165.89 52.5754 163.408 65.6542 160.424L65.5276 156.714L61.2506 116.405C61.2506 116.405 62.5001 105.946 57.3974 102.897C56.8469 102.561 52.3772 100.029 52.3772 100.029L37.8563 96.9736Z" fill="#0EC79B"/>
<g opacity="0.3">
<path d="M52.7021 114.445C52.8455 118.755 53.88 122.989 55.7406 126.88C57.6549 130.913 60.2867 134.565 63.5076 137.657L62.1204 125.597L52.7021 114.445Z" fill="black"/>
</g>
<path d="M60.4523 104.273C58.8339 102.963 55.8229 102.247 54.1055 103.425C53.1484 104.028 52.417 104.93 52.0248 105.99C50.5551 110.279 51.4358 114.886 52.6083 118.31C53.7807 121.733 59.4449 128.317 59.4449 128.317L73.454 119.818C73.454 119.818 64.0963 108.457 63.0999 107.279C62.3005 106.206 61.415 105.201 60.4523 104.273Z" fill="#0EC79B"/>
<path d="M60.4523 104.272C60.5582 104.342 60.6577 104.422 60.7495 104.509C61.0212 104.755 61.2785 105.016 61.5202 105.291C62.1697 106.006 63.0229 107.118 64.1789 108.478L73.5366 119.74L73.6192 119.845L73.5091 119.916L60.2982 127.959L59.533 128.426L59.4395 128.481L59.3679 128.399C57.7991 126.549 56.3459 124.689 55.0413 122.817C54.3906 121.902 53.7933 120.95 53.2524 119.966C52.9886 119.487 52.7587 118.991 52.5643 118.48C52.3771 117.973 52.223 117.467 52.0799 116.966C50.9074 112.942 50.8799 108.995 51.9423 105.995C52.1907 105.317 52.5787 104.699 53.0812 104.18C53.5838 103.661 54.1897 103.254 54.8597 102.984C55.4238 102.809 56.0154 102.74 56.6046 102.781C57.0954 102.805 57.5814 102.888 58.0523 103.028C58.7064 103.21 59.3311 103.484 59.9073 103.843C60.1047 103.967 60.2891 104.111 60.4578 104.272C60.4578 104.272 60.2651 104.118 59.8688 103.887C59.2879 103.549 58.6639 103.292 58.0138 103.122C57.5467 102.994 57.0665 102.92 56.5826 102.902C55.5989 102.886 54.6355 103.182 53.8305 103.748C53.0256 104.314 52.4204 105.12 52.1019 106.05C51.0726 109.017 51.1221 112.915 52.2891 116.9C52.4377 117.395 52.5918 117.902 52.779 118.397C52.9685 118.898 53.1948 119.383 53.456 119.85C53.9947 120.825 54.5883 121.767 55.234 122.674C56.5331 124.535 57.9863 126.39 59.5496 128.234L59.3844 128.206L60.155 127.738L73.399 119.718L73.3714 119.889L64.0798 108.566C62.9403 107.195 62.0982 106.061 61.4706 105.34C61.1569 104.977 60.9202 104.707 60.7275 104.537C60.5349 104.366 60.4468 104.278 60.4523 104.272Z" fill="#263238"/>
<path d="M27.706 110.692C27.7314 110.77 27.7444 110.852 27.7445 110.934C27.7445 111.127 27.783 111.358 27.8106 111.639C27.8601 112.288 27.9207 113.163 27.9977 114.231C28.1408 116.433 28.328 119.455 28.5482 122.774C28.7684 126.094 28.994 129.132 29.1922 131.312C29.2913 132.374 29.3739 133.244 29.4344 133.894C29.4344 134.174 29.4784 134.411 29.495 134.598C29.5034 134.68 29.5034 134.763 29.495 134.846C29.4639 134.768 29.4436 134.687 29.4344 134.604C29.4069 134.416 29.3739 134.185 29.3298 133.91C29.2362 133.299 29.1262 132.418 29.0051 131.328C28.7629 129.127 28.5041 126.132 28.284 122.791C28.0638 119.45 27.9152 116.428 27.8161 114.237C27.772 113.174 27.739 112.299 27.7115 111.644C27.7115 111.363 27.7115 111.132 27.7115 110.94C27.6979 110.858 27.6961 110.774 27.706 110.692Z" fill="#263238"/>
<path d="M58.6743 159.643C58.5905 159.676 58.5039 159.702 58.4156 159.72L57.6615 159.907C57.3312 159.984 56.9294 160.072 56.456 160.161C55.9826 160.249 55.4487 160.353 54.8487 160.447C53.6597 160.65 52.2285 160.816 50.6432 160.97C49.0579 161.124 47.2964 161.201 45.4524 161.228C43.6084 161.256 41.8525 161.173 40.2561 161.069C38.6598 160.964 37.2286 160.799 36.0397 160.601C35.4397 160.524 34.9002 160.419 34.4323 160.331C33.9644 160.243 33.5516 160.166 33.2268 160.084L32.4672 159.902C32.3774 159.887 32.2903 159.859 32.2085 159.819C32.2992 159.823 32.3894 159.834 32.4782 159.852L33.2434 159.984C33.5736 160.05 33.981 160.122 34.4543 160.188C34.9277 160.254 35.4672 160.353 36.0617 160.425C37.2562 160.595 38.6818 160.717 40.2726 160.832C41.8635 160.948 43.6084 160.981 45.4469 160.97C47.2854 160.959 49.0359 160.854 50.6212 160.739C52.2065 160.623 53.6322 160.447 54.8212 160.265C55.4212 160.188 55.9606 160.1 56.4285 160.017C56.8964 159.935 57.3092 159.874 57.6395 159.808L58.4046 159.671C58.4926 159.648 58.5836 159.639 58.6743 159.643Z" fill="#263238"/>
</svg>
