<svg width="312" height="312" viewBox="0 0 312 312" fill="none" xmlns="http://www.w3.org/2000/svg">
<path d="M74.2358 289.416H241.737" stroke="#999999" stroke-width="0.512739" stroke-linecap="round"/>
<path d="M30.3764 189.29C30.3764 189.29 35.9924 187.418 38.6881 200.41C41.3838 213.402 41.8081 220.547 41.8081 220.547C41.8081 220.547 42.6942 223.348 44.7534 222.238C46.8126 221.127 50.2696 217.314 52.8654 218.874C55.4612 220.434 55.5985 223.972 53.7515 228.559C51.9044 233.145 48.1854 243.36 47.8609 244.259C47.5364 245.157 47.6924 246.674 49.2212 246.131C50.75 245.588 60.3971 239.379 63.074 244.134C65.751 248.889 58.5188 260.826 57.7513 262.142C56.9838 263.459 57.1273 264.146 57.6764 264.682C58.2256 265.219 61.3019 262.81 64.1224 261.169C66.9428 259.528 70.4934 258.08 71.81 260.957C73.1267 263.834 71.0987 273.711 57.5454 286.959L50.8624 292.694L42.482 289.892C24.8977 282.809 19.2568 274.448 19.394 271.29C19.5313 268.133 23.3502 268.095 26.5825 268.557C29.8148 269.019 33.5526 270.067 33.8833 269.35C34.214 268.632 34.058 267.958 32.8412 267.028C31.6244 266.099 20.3612 257.831 21.0539 252.414C21.7465 246.998 33.0097 249.063 34.6196 248.976C36.2296 248.889 35.8052 247.429 35.1625 246.717C34.5198 246.006 27.2252 237.981 23.7683 234.424C20.3113 230.868 19.0571 227.642 20.8979 225.133C22.7387 222.625 27.3251 224.921 29.6339 225.164C31.9427 225.408 31.7118 222.475 31.7118 222.475C31.7118 222.475 29.3593 215.692 26.9008 202.682C24.4422 189.671 30.495 189.247 30.495 189.247" fill="#F5F5F5"/>
<path d="M50.9121 290.852C49.0401 281.299 46.4193 268.126 43.4241 253.581C40.4289 239.035 37.7706 225.888 35.8799 216.34C34.9439 211.579 34.1764 207.723 33.6522 205.04C33.3902 203.717 33.1842 202.681 33.0282 201.97C32.9534 201.627 32.9034 201.346 32.8598 201.171C32.8161 200.996 32.7974 200.896 32.7974 200.896C32.7974 200.896 32.7974 200.996 32.8286 201.177C32.8598 201.358 32.9097 201.633 32.9658 201.976C33.0969 202.694 33.2841 203.736 33.5212 205.059C34.0079 207.736 34.738 211.604 35.6615 216.378C37.4961 225.931 40.1543 239.104 43.1495 253.643C46.1447 268.182 48.8154 281.355 50.7062 290.896" fill="#E0E0E0"/>
<path d="M48.1979 224.397C48.055 224.554 47.9294 224.725 47.8235 224.909C47.5988 225.252 47.2868 225.757 46.9062 226.381C46.1449 227.629 45.1465 229.389 44.0795 231.342L41.3713 236.365L40.5601 237.888C40.4462 238.066 40.352 238.257 40.2793 238.456C40.4301 238.304 40.5583 238.132 40.6599 237.944C40.8846 237.607 41.2028 237.102 41.571 236.471C42.3198 235.223 43.2932 233.445 44.3603 231.479L47.1059 226.487C47.4366 225.895 47.7299 225.389 47.942 224.971C48.0505 224.791 48.1364 224.598 48.1979 224.397Z" fill="#E0E0E0"/>
<path d="M39.4432 238.368C39.4868 238.299 35.955 236.078 31.5683 233.376C27.1816 230.674 23.5748 228.596 23.5312 228.665C23.4875 228.733 27.0131 230.961 31.406 233.657C35.799 236.352 39.3995 238.468 39.4432 238.368Z" fill="#E0E0E0"/>
<path d="M45.0217 260.52C44.8232 260.425 44.6135 260.356 44.3977 260.314L42.6942 259.852C41.259 259.459 39.2747 258.91 37.0782 258.224C34.8817 257.537 32.966 256.869 31.5683 256.352L29.9521 255.771C29.7519 255.685 29.5426 255.622 29.3281 255.584C29.509 255.705 29.7038 255.803 29.9084 255.877C30.2891 256.052 30.8444 256.289 31.5371 256.564C32.9286 257.119 34.863 257.812 37.0408 258.517C39.2185 259.222 41.2153 259.715 42.6568 260.058C43.3868 260.227 43.9734 260.351 44.3852 260.426C44.593 260.482 44.8066 260.514 45.0217 260.52Z" fill="#E0E0E0"/>
<path d="M55.7359 249.6C55.5648 249.707 55.4076 249.835 55.2679 249.981C54.9809 250.243 54.5753 250.605 54.0761 251.098C53.0777 252.052 51.7173 253.382 50.226 254.842C48.7346 256.302 47.4242 257.712 46.4321 258.692C45.9578 259.185 45.5709 259.59 45.3089 259.877C45.162 260.014 45.0339 260.169 44.9282 260.339C45.0999 260.233 45.2572 260.105 45.3962 259.959C45.677 259.703 46.0889 259.334 46.5818 258.842C47.5802 257.893 48.9468 256.558 50.4381 255.098C51.9295 253.637 53.2649 252.258 54.2258 251.266C54.7063 250.773 55.0869 250.368 55.349 250.081C55.4974 249.937 55.6273 249.776 55.7359 249.6Z" fill="#E0E0E0"/>
<path d="M63.1427 268.507C62.9175 268.649 62.7083 268.814 62.5187 269L60.9898 270.423C59.7044 271.64 57.9447 273.331 55.9978 275.215C54.051 277.1 52.3287 278.81 51.087 280.064L49.6206 281.561C49.4323 281.736 49.261 281.928 49.1089 282.136C49.3335 281.993 49.5427 281.828 49.7329 281.643L51.2679 280.214C52.5159 279.003 54.3068 277.312 56.2599 275.428C58.2131 273.543 59.9041 271.833 61.1521 270.579L62.6185 269.081C62.8104 268.906 62.9859 268.714 63.1427 268.507Z" fill="#E0E0E0"/>
<path d="M49.4022 281.718C49.1537 281.6 48.8946 281.506 48.6285 281.437L46.4881 280.801C44.6848 280.239 42.1888 279.453 39.4619 278.51C36.735 277.568 34.2889 276.638 32.5168 276.014L30.4201 275.185C30.1684 275.076 29.9073 274.99 29.6401 274.929C29.8737 275.074 30.1202 275.197 30.3765 275.297C30.8569 275.515 31.5621 275.815 32.4419 276.177C34.1891 276.901 36.6289 277.843 39.3683 278.785C42.1077 279.727 44.6037 280.482 46.4257 280.988C47.343 281.244 48.0793 281.437 48.5973 281.562C48.8605 281.637 49.1299 281.689 49.4022 281.718Z" fill="#E0E0E0"/>
<path d="M276.039 115.016C278.222 118.485 280.791 121.696 283.696 124.588L276.039 115.016Z" fill="white"/>
<path d="M224.64 124.332L232.29 114.891L224.64 124.332Z" fill="white"/>
<path d="M100.134 72.7583L92.6455 66.6992L100.134 72.7583Z" fill="white"/>
<path d="M92.6577 66.6992C94.0025 67.5792 95.2867 68.5486 96.5015 69.6008C97.7828 70.5692 98.9962 71.6241 100.133 72.7583C98.7872 71.88 97.5029 70.9106 96.2894 69.8567C95.0099 68.8861 93.7967 67.8313 92.6577 66.6992Z" fill="#E0E0E0"/>
<path d="M171.507 58.5812C173.025 55.8501 173.819 52.7764 173.815 49.6518C173.829 47.2749 173.375 44.9185 172.478 42.7172C171.581 40.5159 170.259 38.513 168.588 36.8226C166.917 35.1323 164.929 33.7878 162.738 32.8659C160.547 31.944 158.196 31.4628 155.819 31.4497C154.193 31.4473 152.575 31.6678 151.008 32.1049C154.815 33.2022 158.162 35.5075 160.544 38.6731C162.926 41.8388 164.214 45.6931 164.214 49.6549C164.214 53.6167 162.926 57.4711 160.544 60.6367C158.162 63.8024 154.815 66.1077 151.008 67.2049C153.415 67.8793 155.936 68.0401 158.409 67.6767C160.881 67.3133 163.25 66.434 165.36 65.0958L173.822 68.3656L171.507 58.5812Z" fill="#EBEBEB"/>
<path d="M94.9042 272.688L95.4097 288.214L99.3533 300.382C99.4206 300.589 99.4447 300.808 99.424 301.024C99.4033 301.241 99.3383 301.452 99.233 301.642C99.1277 301.833 98.9843 302 98.8118 302.133C98.6393 302.266 98.4413 302.362 98.2301 302.416C97.9838 302.479 97.726 302.482 97.4784 302.424C97.2308 302.367 97.0007 302.25 96.8074 302.085C94.3114 299.945 85.1823 292.032 85.2073 290.897C85.2073 289.574 83.5786 274.548 83.5786 274.548L94.9042 272.688Z" fill="#455A64"/>
<path d="M98.2305 302.397L85.1265 289.83L85.1639 290.454C85.1942 291.023 85.4265 291.563 85.8191 291.977C86.8674 293.075 89.8314 296.058 96.7453 302.036C96.9433 302.208 97.1809 302.328 97.4368 302.386C97.6928 302.443 97.959 302.437 98.2117 302.366L98.2305 302.397Z" fill="#E0E0E0"/>
<path d="M88.0528 284.644C88.253 284.774 88.3978 284.974 88.4589 285.204C88.5201 285.435 88.4932 285.68 88.3835 285.892C88.2631 286.103 88.0642 286.257 87.8304 286.321C87.5965 286.386 87.3466 286.355 87.1355 286.235C86.9236 286.099 86.7703 285.888 86.7057 285.645C86.6411 285.401 86.6697 285.142 86.7861 284.919C86.9354 284.72 87.156 284.586 87.4016 284.547C87.6471 284.507 87.8984 284.565 88.1027 284.706" fill="white"/>
<path d="M94.3053 295.82C94.3927 295.857 94.6984 295.021 95.597 294.535C96.1528 294.278 96.7518 294.128 97.3629 294.092C97.3629 294.054 97.1757 293.948 96.8076 293.917C96.3266 293.885 95.8471 293.996 95.4285 294.235C95.0094 294.47 94.6671 294.821 94.4426 295.246C94.2741 295.577 94.2679 295.808 94.3053 295.82Z" fill="#263238"/>
<path d="M95.5284 297.836C95.9566 297.557 96.4027 297.307 96.8638 297.087C97.3589 296.965 97.8612 296.873 98.3676 296.812C98.1211 296.674 97.8445 296.598 97.5618 296.59C97.2791 296.582 96.9989 296.644 96.7452 296.769C95.8467 297.087 95.4723 297.798 95.5284 297.836Z" fill="#263238"/>
<path d="M92.0962 293.281C92.7285 292.806 93.3937 292.376 94.0868 291.995C94.8263 291.717 95.5855 291.494 96.3581 291.327C95.5355 291.214 94.6978 291.338 93.9429 291.684C93.1881 292.03 92.5475 292.584 92.0962 293.281Z" fill="#263238"/>
<path d="M91.5474 288.563C91.5973 288.65 92.4334 288.245 93.5442 288.145C94.6549 288.045 95.5597 288.257 95.5846 288.145C94.9582 287.784 94.2246 287.656 93.513 287.783C92.7869 287.806 92.0918 288.082 91.5474 288.563Z" fill="#263238"/>
<path d="M91.2851 284.008C91.9478 283.75 92.6428 283.584 93.3505 283.515C94.0608 283.552 94.7624 283.688 95.4347 283.92C95.4347 283.883 95.2787 283.702 94.9105 283.515C94.4228 283.279 93.8857 283.164 93.3443 283.178C92.8022 283.187 92.2699 283.324 91.7905 283.577C91.4348 283.783 91.2601 283.977 91.2851 284.008Z" fill="#263238"/>
<path d="M93.2755 282.673C93.3236 282.468 93.3236 282.254 93.2755 282.049C93.1924 281.514 93.0059 281.001 92.7264 280.539C92.5453 280.186 92.2569 279.9 91.9027 279.721C91.7802 279.672 91.6454 279.664 91.5176 279.696C91.3898 279.729 91.2756 279.801 91.1913 279.902C91.0336 280.106 90.96 280.363 90.9854 280.62C91.0497 281.139 91.293 281.619 91.6735 281.978C92.0539 282.337 92.5477 282.552 93.0696 282.585C93.588 282.612 94.1025 282.482 94.5471 282.215C94.9918 281.947 95.3464 281.552 95.5656 281.082C95.6195 280.963 95.6475 280.834 95.6475 280.704C95.6475 280.574 95.6195 280.445 95.5656 280.326C95.4987 280.213 95.3975 280.123 95.2764 280.07C95.1553 280.017 95.0206 280.004 94.8916 280.033C94.5147 280.137 94.1723 280.34 93.8995 280.62C93.4974 280.974 93.1614 281.396 92.9073 281.868C92.7999 282.034 92.7297 282.221 92.7014 282.417C93.0714 281.811 93.5275 281.263 94.0555 280.788C94.305 280.556 94.6068 280.387 94.9353 280.295C95.006 280.279 95.0799 280.286 95.1463 280.315C95.2126 280.345 95.2677 280.394 95.3035 280.458C95.3321 280.537 95.3441 280.622 95.3387 280.707C95.3334 280.792 95.3108 280.875 95.2723 280.95C95.071 281.35 94.7595 281.683 94.3746 281.911C93.9898 282.139 93.5477 282.252 93.1008 282.236C92.6603 282.203 92.2437 282.023 91.9186 281.724C91.5935 281.425 91.379 281.025 91.3099 280.589C91.288 280.41 91.3324 280.231 91.4347 280.083C91.4793 280.026 91.541 279.985 91.6106 279.966C91.6803 279.947 91.7542 279.951 91.8216 279.977C92.1231 280.125 92.3716 280.363 92.5329 280.657C92.8985 281.279 93.15 281.962 93.2755 282.673Z" fill="#263238"/>
<path d="M125.131 274.972L124.326 286.585C124.326 286.585 135.864 291.302 135.92 293.449L113.35 292.7L113.861 274.554L125.131 274.972Z" fill="#455A64"/>
<path d="M117.381 285.374C117.157 285.431 116.961 285.569 116.833 285.761C116.705 285.954 116.653 286.188 116.688 286.416C116.739 286.638 116.873 286.832 117.062 286.958C117.251 287.085 117.481 287.134 117.706 287.096C117.938 287.033 118.139 286.886 118.269 286.683C118.4 286.48 118.45 286.236 118.411 285.998C118.335 285.773 118.175 285.587 117.964 285.477C117.754 285.368 117.509 285.344 117.281 285.412" fill="#E0E0E0"/>
<path d="M113.35 292.713L113.474 290.884L135.071 292.288C135.071 292.288 136.057 292.763 135.92 293.461L113.35 292.713Z" fill="#E0E0E0"/>
<path d="M124.7 286.485C124.7 286.591 124.139 286.622 123.583 286.959C123.028 287.296 122.728 287.752 122.629 287.702C122.529 287.652 122.71 287.028 123.39 286.628C124.07 286.229 124.725 286.416 124.7 286.485Z" fill="#263238"/>
<path d="M127.034 287.54C127.034 287.646 126.572 287.821 126.179 288.276C125.786 288.732 125.668 289.219 125.555 289.206C125.443 289.194 125.399 288.582 125.892 288.021C126.385 287.459 127.034 287.434 127.034 287.54Z" fill="#263238"/>
<path d="M128.282 290.417C128.182 290.417 128.045 289.886 128.351 289.287C128.656 288.688 129.174 288.47 129.218 288.563C129.262 288.657 128.937 288.969 128.694 289.462C128.45 289.955 128.394 290.41 128.282 290.417Z" fill="#263238"/>
<path d="M124.588 283.815C124.538 283.914 124.039 283.746 123.415 283.771C122.791 283.796 122.298 283.971 122.242 283.871C122.186 283.771 122.666 283.397 123.402 283.384C124.139 283.372 124.644 283.734 124.588 283.815Z" fill="#263238"/>
<path d="M124.706 281.469C124.325 281.565 123.925 281.55 123.552 281.425C123.146 281.342 122.752 281.207 122.379 281.025C122.163 280.917 121.954 280.794 121.755 280.657C121.63 280.586 121.518 280.493 121.424 280.383C121.354 280.303 121.312 280.201 121.307 280.095C121.301 279.988 121.332 279.883 121.393 279.796C121.452 279.722 121.527 279.662 121.612 279.621C121.697 279.58 121.791 279.559 121.886 279.559C122.028 279.563 122.168 279.586 122.304 279.628C122.544 279.697 122.778 279.787 123.003 279.896C123.378 280.08 123.721 280.322 124.02 280.614C124.525 281.119 124.694 281.531 124.644 281.556C124.594 281.581 124.344 281.238 123.827 280.82C123.528 280.568 123.196 280.358 122.841 280.196C122.639 280.106 122.43 280.033 122.217 279.977C121.98 279.902 121.774 279.896 121.711 279.977C121.649 280.058 121.68 280.033 121.711 280.102C121.783 280.181 121.865 280.25 121.955 280.308C122.144 280.436 122.34 280.555 122.541 280.664C122.885 280.851 123.247 281.003 123.621 281.119C123.99 281.213 124.352 281.329 124.706 281.469Z" fill="#263238"/>
<path d="M124.557 281.624C124.357 281.292 124.266 280.906 124.295 280.52C124.293 279.85 124.467 279.191 124.8 278.61C124.866 278.463 124.97 278.336 125.1 278.241C125.23 278.145 125.383 278.086 125.543 278.067C125.643 278.073 125.74 278.107 125.822 278.166C125.903 278.224 125.967 278.305 126.005 278.398C126.059 278.532 126.092 278.673 126.104 278.816C126.145 279.068 126.145 279.325 126.104 279.577C126.031 279.998 125.853 280.392 125.586 280.726C125.125 281.3 124.663 281.418 124.65 281.35C124.638 281.281 125.006 281.094 125.368 280.545C125.572 280.227 125.706 279.87 125.761 279.496C125.789 279.279 125.789 279.059 125.761 278.841C125.73 278.598 125.649 278.404 125.555 278.423C125.462 278.442 125.25 278.592 125.15 278.785C125.03 278.983 124.93 279.192 124.85 279.409C124.711 279.769 124.625 280.147 124.594 280.532C124.513 281.194 124.619 281.612 124.557 281.624Z" fill="#263238"/>
<path d="M78.73 160.381L82.0621 285.206L99.8711 284.676L104.114 156.125L78.73 160.381Z" fill="#263238"/>
<path d="M115.74 155.913C115.74 155.913 128.956 208.828 129.362 217.851C129.767 226.874 126.535 283.296 126.535 283.296H109.1L110.561 219.024L97.3442 164.699L100.545 156.194L115.74 155.913Z" fill="#263238"/>
<path d="M104.982 162.409C104.988 162.467 104.988 162.526 104.982 162.584V163.077C104.982 163.539 104.944 164.169 104.913 164.98C104.838 166.652 104.726 169.036 104.595 171.969C104.289 177.891 103.871 186.034 103.409 195.057C102.948 204.08 102.461 212.186 102.161 218.107C101.987 221.04 101.837 223.418 101.737 225.096C101.681 225.901 101.637 226.538 101.606 226.968C101.606 227.168 101.575 227.336 101.562 227.461C101.569 227.517 101.569 227.574 101.562 227.63C101.555 227.574 101.555 227.517 101.562 227.461C101.562 227.33 101.562 227.168 101.562 226.968C101.562 226.506 101.606 225.87 101.637 225.065C101.712 223.393 101.824 221.009 101.955 218.076C102.261 212.154 102.679 204.011 103.135 194.988C103.59 185.965 104.083 177.859 104.414 171.938C104.589 169.005 104.732 166.627 104.838 164.955C104.894 164.15 104.938 163.514 104.969 163.052C104.969 162.852 105.001 162.69 105.013 162.559C104.994 162.511 104.984 162.461 104.982 162.409Z" fill="#455A64"/>
<path d="M103.022 88.0592C103.022 88.0592 109.493 120.158 109.587 129.2C109.68 138.241 112.857 155.913 112.857 155.913H84.864L84.24 107.01L82.2432 92.4272L86.4489 86.4243L103.022 88.0592Z" fill="#F5F5F5"/>
<path d="M103.366 89.0015C103.366 89.0015 110.049 90.9671 111.815 93.4381C113.206 95.3912 115.091 132.307 115.091 132.307L117.936 164.83L115.134 164.568L111.178 152.394L103.366 89.0015Z" fill="#0EC79B"/>
<path d="M111.815 93.4385L130.685 110.754L153.904 103.229L158.534 112.982L133.755 124.214C130.217 125.724 127.995 124.894 125.537 122.922L112.539 112.514L111.815 93.4385Z" fill="#0EC79B"/>
<path d="M149.585 106.336C149.648 106.457 149.66 106.597 149.621 106.726C149.581 106.856 149.492 106.964 149.373 107.029C149.314 107.061 149.25 107.08 149.183 107.086C149.117 107.093 149.05 107.086 148.986 107.066C148.922 107.046 148.863 107.014 148.811 106.972C148.76 106.929 148.718 106.876 148.687 106.817C148.654 106.759 148.634 106.694 148.626 106.628C148.619 106.561 148.625 106.494 148.645 106.43C148.664 106.366 148.696 106.307 148.738 106.255C148.781 106.204 148.833 106.161 148.893 106.131C149.012 106.068 149.152 106.054 149.281 106.093C149.41 106.131 149.52 106.219 149.585 106.336Z" fill="#263238"/>
<path d="M149.136 107.104C149.085 107.113 149.032 107.113 148.98 107.104C148.914 107.084 148.852 107.051 148.799 107.007C148.745 106.963 148.701 106.909 148.668 106.848C148.606 106.724 148.592 106.582 148.631 106.449C148.674 106.317 148.766 106.207 148.888 106.142C149.01 106.077 149.153 106.062 149.286 106.099C149.42 106.14 149.532 106.232 149.598 106.355C149.663 106.478 149.676 106.622 149.635 106.754C149.616 106.821 149.584 106.883 149.54 106.937C149.496 106.99 149.441 107.034 149.38 107.066C149.303 107.099 149.219 107.112 149.136 107.104ZM149.136 106.087C149.056 106.087 148.977 106.107 148.905 106.143C148.791 106.206 148.707 106.311 148.668 106.436C148.631 106.561 148.644 106.696 148.706 106.81C148.768 106.925 148.873 107.011 148.998 107.049C149.123 107.086 149.258 107.072 149.373 107.01C149.43 106.981 149.481 106.94 149.521 106.891C149.562 106.842 149.592 106.785 149.61 106.723C149.648 106.596 149.635 106.46 149.573 106.342C149.531 106.263 149.468 106.197 149.391 106.151C149.314 106.104 149.226 106.08 149.136 106.08V106.087Z" fill="#263238"/>
<path d="M151.532 105.875C151.594 105.995 151.607 106.135 151.567 106.264C151.528 106.394 151.439 106.502 151.32 106.567C151.261 106.599 151.197 106.618 151.13 106.625C151.064 106.631 150.996 106.624 150.933 106.604C150.869 106.585 150.809 106.552 150.758 106.51C150.707 106.467 150.665 106.414 150.634 106.355C150.601 106.297 150.581 106.232 150.573 106.166C150.566 106.1 150.572 106.032 150.591 105.968C150.611 105.904 150.642 105.845 150.685 105.793C150.728 105.742 150.78 105.699 150.84 105.669C150.898 105.636 150.963 105.615 151.03 105.608C151.097 105.601 151.165 105.607 151.229 105.626C151.294 105.645 151.354 105.677 151.406 105.72C151.458 105.762 151.501 105.815 151.532 105.875Z" fill="#263238"/>
<path d="M151.083 106.642C151.031 106.652 150.979 106.652 150.927 106.642C150.861 106.622 150.799 106.589 150.745 106.546C150.692 106.502 150.648 106.448 150.615 106.386C150.551 106.263 150.538 106.119 150.579 105.986C150.619 105.853 150.711 105.741 150.833 105.675C150.957 105.611 151.101 105.598 151.234 105.639C151.367 105.679 151.479 105.771 151.545 105.893C151.61 106.016 151.623 106.16 151.582 106.293C151.541 106.426 151.449 106.539 151.326 106.605C151.249 106.635 151.166 106.648 151.083 106.642ZM151.083 105.619C151.002 105.622 150.923 105.643 150.852 105.681C150.737 105.743 150.652 105.849 150.614 105.974C150.577 106.099 150.59 106.234 150.652 106.349C150.682 106.407 150.724 106.458 150.774 106.498C150.825 106.539 150.883 106.569 150.946 106.586C151.009 106.61 151.077 106.621 151.145 106.618C151.212 106.615 151.279 106.598 151.339 106.567C151.4 106.537 151.454 106.495 151.498 106.443C151.542 106.392 151.574 106.331 151.594 106.266C151.613 106.201 151.619 106.133 151.611 106.066C151.602 105.998 151.58 105.933 151.546 105.875C151.511 105.817 151.465 105.766 151.41 105.726C151.355 105.686 151.293 105.658 151.227 105.644C151.178 105.628 151.128 105.62 151.077 105.619H151.083Z" fill="#263238"/>
<path d="M153.38 105.5C153.412 105.559 153.433 105.624 153.44 105.691C153.448 105.758 153.442 105.825 153.422 105.89C153.403 105.954 153.371 106.014 153.329 106.066C153.286 106.118 153.233 106.161 153.174 106.193C153.053 106.255 152.914 106.268 152.784 106.228C152.655 106.188 152.546 106.1 152.481 105.981C152.45 105.922 152.43 105.857 152.424 105.791C152.417 105.724 152.424 105.657 152.444 105.593C152.464 105.529 152.496 105.47 152.539 105.419C152.581 105.367 152.634 105.325 152.693 105.294C152.752 105.262 152.816 105.241 152.882 105.234C152.949 105.227 153.016 105.233 153.08 105.252C153.144 105.271 153.203 105.303 153.255 105.346C153.306 105.388 153.349 105.441 153.38 105.5Z" fill="#263238"/>
<path d="M152.937 106.268C152.885 106.277 152.832 106.277 152.781 106.268C152.654 106.227 152.548 106.14 152.483 106.025C152.418 105.909 152.399 105.773 152.431 105.644C152.45 105.578 152.483 105.517 152.527 105.464C152.571 105.412 152.626 105.369 152.687 105.338C152.748 105.305 152.814 105.285 152.883 105.277C152.951 105.27 153.021 105.277 153.087 105.296C153.153 105.316 153.214 105.349 153.268 105.392C153.321 105.436 153.366 105.489 153.398 105.55C153.463 105.674 153.476 105.817 153.435 105.951C153.394 106.084 153.302 106.195 153.18 106.261C153.1 106.281 153.017 106.283 152.937 106.268ZM152.937 105.251C152.856 105.251 152.777 105.271 152.706 105.307C152.591 105.369 152.505 105.474 152.468 105.599C152.43 105.724 152.444 105.859 152.506 105.974C152.535 106.032 152.576 106.082 152.625 106.123C152.674 106.164 152.731 106.194 152.793 106.212C152.92 106.249 153.057 106.236 153.174 106.174C153.289 106.112 153.374 106.007 153.412 105.882C153.449 105.756 153.435 105.621 153.373 105.506C153.33 105.427 153.266 105.362 153.188 105.317C153.109 105.271 153.02 105.249 152.93 105.251H152.937Z" fill="#263238"/>
<path d="M154.134 103.716L155.931 103.061L160.056 111.747L158.303 112.495L154.134 103.716Z" fill="#E0E0E0"/>
<path d="M112.42 100.284C112.483 100.602 112.519 100.926 112.526 101.251C112.595 101.937 112.688 102.823 112.801 103.897C113.056 106.187 113.425 109.238 113.787 112.633C114.148 116.027 114.467 119.128 114.604 121.369C114.679 122.492 114.71 123.403 114.716 124.033C114.739 124.358 114.729 124.684 114.685 125.007C114.627 124.687 114.595 124.364 114.592 124.039C114.548 123.415 114.479 122.504 114.373 121.387C114.173 119.153 113.843 116.065 113.462 112.651C113.081 109.238 112.757 106.162 112.57 103.915C112.476 102.792 112.426 101.881 112.401 101.251C112.376 100.929 112.382 100.605 112.42 100.284Z" fill="#263238"/>
<path d="M116.545 104.614C116.253 106.19 115.857 107.745 115.359 109.269C114.962 110.82 114.464 112.344 113.868 113.83C114.155 112.254 114.549 110.699 115.047 109.175C115.443 107.623 115.943 106.099 116.545 104.614Z" fill="#263238"/>
<path d="M130.485 116.601C130.282 116.364 130.139 116.081 130.067 115.778C129.602 114.339 129.7 112.778 130.341 111.41C130.454 111.118 130.631 110.856 130.859 110.642C130.482 111.591 130.23 112.586 130.111 113.6C130.104 114.612 130.23 115.621 130.485 116.601Z" fill="#263238"/>
<path d="M128.326 136.663L130.741 136.85L129.786 146.922L127.452 146.66L128.326 136.663Z" fill="#E0E0E0"/>
<path d="M86.4491 87.1235L73.4262 95.429C71.9442 96.4797 70.8402 97.9802 70.2782 99.7078C69.7162 101.435 69.726 103.298 70.3062 105.02L80.2902 136.401L76.6898 164.918L105.232 163.707L104.533 151.227L102.112 128.863C101.663 124.716 100.632 120.653 99.0477 116.795L86.4491 87.1235Z" fill="#0EC79B"/>
<path d="M72.8458 106.736L85.8687 133.992C86.388 135.079 87.144 136.035 88.0813 136.791C89.0186 137.547 90.1133 138.083 91.285 138.36L127.427 146.922L128.351 136.401L100.764 126.049L86.8858 99.4164C86.3853 98.4571 85.6936 97.6104 84.8535 96.9286C84.0133 96.2468 83.0424 95.7442 82.0006 95.4519C80.9588 95.1596 79.8682 95.0837 78.7959 95.2289C77.7237 95.3742 76.6926 95.7375 75.7661 96.2964C74.0431 97.3389 72.7821 98.9987 72.2395 100.938C71.697 102.877 71.9138 104.951 72.8458 106.736Z" fill="#0EC79B"/>
<path d="M128.351 136.4C128.299 136.396 128.249 136.383 128.201 136.363L127.777 136.219L126.142 135.633L120.089 133.405L99.6904 125.78H99.6342V125.718L97.2318 120.963C94.9729 116.557 92.7203 112.408 90.6112 108.664C89.5566 106.792 88.5395 105.026 87.5785 103.378L86.1808 100.995C85.9561 100.608 85.7315 100.24 85.4944 99.8964C85.2712 99.5517 85.0252 99.2223 84.7581 98.9105C83.8279 97.8021 82.6352 96.9441 81.2886 96.4145C80.2735 96.0012 79.183 95.8056 78.0875 95.8404C77.1475 95.8535 76.2254 96.1001 75.4043 96.558C75.4496 96.5166 75.4999 96.481 75.5541 96.4519C75.7048 96.3466 75.8658 96.2567 76.0345 96.1836C76.682 95.9026 77.376 95.7439 78.0813 95.7156C79.1959 95.6581 80.3102 95.8367 81.351 96.2398C82.7388 96.7729 83.9705 97.6462 84.9328 98.7794C85.2086 99.0948 85.4629 99.4284 85.6941 99.7778C85.9437 100.134 86.1745 100.502 86.3929 100.889L87.8094 103.26C88.7829 104.924 89.8041 106.683 90.8733 108.539C92.9949 112.283 95.2413 116.42 97.5251 120.832C98.355 122.46 99.1662 124.064 99.9213 125.599L99.8339 125.518L120.195 133.243L126.21 135.558L127.827 136.182L128.245 136.35L128.351 136.4Z" fill="#263238"/>
<path d="M122.21 142.959C122.21 143.095 122.156 143.225 122.061 143.321C121.965 143.417 121.834 143.471 121.699 143.471C121.563 143.471 121.433 143.417 121.337 143.321C121.241 143.225 121.187 143.095 121.187 142.959C121.187 142.823 121.241 142.693 121.337 142.597C121.433 142.501 121.563 142.447 121.699 142.447C121.834 142.447 121.965 142.501 122.061 142.597C122.156 142.693 122.21 142.823 122.21 142.959Z" fill="#263238"/>
<path d="M121.68 143.483C121.577 143.483 121.475 143.453 121.389 143.395C121.303 143.337 121.236 143.256 121.196 143.16C121.156 143.064 121.146 142.959 121.166 142.857C121.187 142.755 121.236 142.662 121.31 142.589C121.383 142.515 121.476 142.465 121.578 142.445C121.68 142.425 121.785 142.435 121.881 142.475C121.977 142.515 122.059 142.582 122.116 142.668C122.174 142.754 122.205 142.856 122.205 142.959C122.205 143.098 122.149 143.232 122.051 143.33C121.953 143.428 121.819 143.483 121.68 143.483ZM121.68 142.466C121.583 142.466 121.488 142.495 121.407 142.549C121.325 142.604 121.262 142.68 121.225 142.771C121.188 142.861 121.178 142.96 121.197 143.055C121.216 143.151 121.263 143.239 121.332 143.308C121.401 143.377 121.489 143.424 121.584 143.443C121.68 143.462 121.779 143.452 121.869 143.415C121.959 143.377 122.036 143.314 122.09 143.233C122.144 143.152 122.173 143.057 122.173 142.959C122.173 142.828 122.121 142.703 122.029 142.611C121.937 142.518 121.811 142.466 121.68 142.466Z" fill="#263238"/>
<path d="M124.176 143.471C124.176 143.572 124.146 143.671 124.09 143.755C124.034 143.839 123.954 143.905 123.86 143.943C123.767 143.982 123.664 143.992 123.565 143.973C123.465 143.953 123.374 143.904 123.303 143.832C123.231 143.761 123.182 143.67 123.163 143.57C123.143 143.471 123.153 143.368 123.192 143.275C123.231 143.181 123.296 143.101 123.38 143.045C123.464 142.989 123.563 142.959 123.665 142.959C123.8 142.959 123.93 143.013 124.026 143.109C124.122 143.205 124.176 143.335 124.176 143.471Z" fill="#263238"/>
<path d="M123.633 143.995C123.529 143.995 123.428 143.964 123.342 143.906C123.256 143.849 123.188 143.767 123.149 143.671C123.109 143.575 123.099 143.47 123.119 143.368C123.139 143.267 123.189 143.173 123.262 143.1C123.336 143.027 123.429 142.977 123.531 142.956C123.632 142.936 123.738 142.947 123.834 142.986C123.929 143.026 124.011 143.093 124.069 143.179C124.126 143.265 124.157 143.367 124.157 143.47C124.156 143.609 124.1 143.741 124.002 143.839C123.904 143.937 123.772 143.993 123.633 143.995ZM123.633 142.977C123.536 142.977 123.44 143.006 123.359 143.061C123.278 143.115 123.215 143.192 123.178 143.282C123.14 143.372 123.131 143.471 123.15 143.567C123.169 143.662 123.216 143.75 123.284 143.819C123.353 143.888 123.441 143.935 123.537 143.954C123.632 143.973 123.732 143.963 123.822 143.926C123.912 143.889 123.989 143.825 124.043 143.744C124.097 143.663 124.126 143.568 124.126 143.47C124.126 143.34 124.074 143.214 123.982 143.122C123.889 143.029 123.764 142.977 123.633 142.977Z" fill="#263238"/>
<path d="M125.443 144.525C125.725 144.525 125.955 144.296 125.955 144.014C125.955 143.731 125.725 143.502 125.443 143.502C125.16 143.502 124.931 143.731 124.931 144.014C124.931 144.296 125.16 144.525 125.443 144.525Z" fill="#263238"/>
<path d="M125.424 144.538C125.32 144.538 125.219 144.507 125.133 144.449C125.047 144.392 124.979 144.31 124.94 144.214C124.9 144.118 124.89 144.013 124.91 143.911C124.93 143.809 124.98 143.716 125.053 143.643C125.127 143.569 125.22 143.52 125.322 143.499C125.423 143.479 125.529 143.489 125.625 143.529C125.72 143.569 125.802 143.636 125.86 143.722C125.917 143.808 125.948 143.91 125.948 144.013C125.947 144.152 125.891 144.284 125.793 144.382C125.695 144.48 125.563 144.536 125.424 144.538ZM125.424 143.52C125.327 143.52 125.231 143.549 125.15 143.604C125.069 143.658 125.006 143.735 124.969 143.825C124.931 143.915 124.922 144.014 124.941 144.11C124.96 144.205 125.007 144.293 125.075 144.362C125.144 144.431 125.232 144.478 125.328 144.497C125.424 144.516 125.523 144.506 125.613 144.469C125.703 144.432 125.78 144.368 125.834 144.287C125.888 144.206 125.917 144.111 125.917 144.013C125.917 143.883 125.865 143.757 125.773 143.665C125.68 143.572 125.555 143.52 125.424 143.52Z" fill="#263238"/>
<path d="M127.427 146.921C127.369 146.931 127.31 146.931 127.253 146.921L126.747 146.809L124.8 146.341L117.649 144.581C111.615 143.102 103.297 141.006 94.0495 138.865C92.8951 138.591 91.7531 138.372 90.6237 138.067C89.4899 137.796 88.4333 137.268 87.5349 136.525C86.7469 135.734 86.1122 134.803 85.6629 133.78L84.3026 130.934L79.6039 121.056L76.4839 114.392C76.1344 113.618 75.8599 113.013 75.654 112.576L75.4418 112.096C75.4157 112.044 75.3948 111.99 75.3794 111.934C75.3794 111.934 75.4168 111.984 75.473 112.083C75.5292 112.183 75.6103 112.358 75.7101 112.545L76.6024 114.342C77.37 115.927 78.4744 118.18 79.8223 120.957C81.1701 123.733 82.7738 127.097 84.5584 130.797C85.0015 131.721 85.4632 132.669 85.925 133.636C86.37 134.621 86.9894 135.518 87.7533 136.282C88.6157 136.992 89.6299 137.494 90.7173 137.748C91.8218 138.048 92.9762 138.266 94.1306 138.541C103.372 140.688 111.69 142.815 117.712 144.35C120.701 145.137 123.128 145.767 124.838 146.222L126.766 146.753L127.265 146.896L127.427 146.921Z" fill="#263238"/>
<path d="M98.2365 145.218C98.2365 145.218 98.0992 145.361 97.8059 145.58C97.5127 145.798 97.0946 146.098 96.5579 146.46C95.1636 147.422 93.6543 148.206 92.0651 148.793C90.4563 149.375 88.7282 149.549 87.0357 149.299C86.5259 149.212 86.0277 149.068 85.5506 148.868C85.3708 148.811 85.2036 148.72 85.0576 148.6C85.7168 148.798 86.3879 148.954 87.0669 149.068C88.7205 149.25 90.3939 149.051 91.9591 148.488C93.5225 147.902 95.0217 147.158 96.4331 146.266C97.0094 145.876 97.6119 145.525 98.2365 145.218Z" fill="#263238"/>
<path d="M99.8399 148.837C99.8793 148.91 99.9087 148.987 99.9273 149.068C99.9979 149.297 100.054 149.53 100.096 149.767C100.246 150.644 100.246 151.541 100.096 152.419C99.8528 153.722 99.2959 154.948 98.4734 155.988C97.4363 157.255 96.0355 158.174 94.4601 158.62C92.8846 159.066 91.2101 159.019 89.6625 158.484C88.418 158.022 87.3059 157.261 86.4239 156.269C85.8333 155.603 85.3606 154.841 85.0262 154.016C84.9409 153.791 84.868 153.562 84.8078 153.33C84.7703 153.174 84.7516 153.086 84.7641 153.086C85.1785 154.201 85.7987 155.227 86.5924 156.113C87.4679 157.05 88.5548 157.765 89.7623 158.197C91.2488 158.701 92.8527 158.745 94.3645 158.323C95.8764 157.901 97.2257 157.033 98.2363 155.832C99.0443 154.836 99.6027 153.662 99.8649 152.406C100.082 151.226 100.074 150.014 99.8399 148.837Z" fill="#263238"/>
<path d="M87.853 62.2822L87.9341 85.5324C87.9396 86.468 88.1348 87.3927 88.5081 88.2506C88.8813 89.1085 89.4248 89.8818 90.1056 90.5235C90.7864 91.1652 91.5904 91.6621 92.4688 91.984C93.3473 92.306 94.2819 92.4463 95.2162 92.3964C96.9843 92.3007 98.6486 91.5315 99.8672 90.2468C101.086 88.962 101.766 87.2594 101.768 85.4887C101.768 83.7353 101.768 82.2751 101.768 82.0942C101.768 82.0942 107.684 81.5201 108.089 75.6607C108.289 72.8278 108.214 66.9622 108.089 61.6519C108.028 58.9019 106.932 56.2761 105.02 54.2984C103.108 52.3206 100.521 51.1363 97.7746 50.9815H97.2068C91.104 50.9566 87.672 56.1607 87.853 62.2822Z" fill="#B78876"/>
<path d="M101.781 82.0009C99.0713 81.8964 96.454 80.9884 94.2617 79.3926C94.2617 79.3926 95.828 83.7169 101.706 83.5172L101.781 82.0009Z" fill="#AA6550"/>
<path d="M106.642 65.0903C106.631 65.3094 106.534 65.5154 106.374 65.6645C106.213 65.8137 106 65.8942 105.781 65.8891C105.674 65.8916 105.567 65.8726 105.468 65.8331C105.368 65.7937 105.278 65.7347 105.202 65.6597C105.125 65.5846 105.065 65.4949 105.024 65.3961C104.983 65.2972 104.963 65.1911 104.963 65.0841C104.975 64.8662 105.07 64.6611 105.23 64.5121C105.389 64.3631 105.6 64.2818 105.818 64.2854C105.926 64.2829 106.032 64.3019 106.132 64.3412C106.232 64.3805 106.323 64.4394 106.4 64.5144C106.476 64.5894 106.537 64.679 106.579 64.7779C106.621 64.8768 106.642 64.983 106.642 65.0903Z" fill="#263238"/>
<path d="M106.804 64.0977C106.698 64.2038 106.087 63.6984 105.188 63.6484C104.289 63.5985 103.597 64.0104 103.509 63.898C103.422 63.7857 103.578 63.6547 103.878 63.4612C104.284 63.2134 104.757 63.0959 105.232 63.1243C105.701 63.1488 106.149 63.3239 106.511 63.6235C106.779 63.8481 106.86 64.054 106.804 64.0977Z" fill="#263238"/>
<path d="M97.8808 65.0215C97.8711 65.24 97.7762 65.446 97.6164 65.5953C97.4566 65.7446 97.2446 65.8253 97.026 65.8202C96.919 65.8227 96.8126 65.8037 96.7131 65.7643C96.6136 65.7249 96.523 65.6659 96.4468 65.5908C96.3705 65.5157 96.3102 65.4261 96.2692 65.3272C96.2283 65.2284 96.2077 65.1223 96.2085 65.0153C96.2183 64.7968 96.3132 64.5908 96.473 64.4415C96.6328 64.2922 96.8448 64.2114 97.0634 64.2165C97.1704 64.214 97.2768 64.233 97.3763 64.2724C97.4758 64.3118 97.5663 64.3708 97.6426 64.4459C97.7188 64.521 97.7792 64.6107 97.8201 64.7095C97.8611 64.8084 97.8817 64.9145 97.8808 65.0215Z" fill="#263238"/>
<path d="M97.8371 63.8982C97.7248 63.998 97.1195 63.4926 96.2147 63.4427C95.3099 63.3927 94.6297 63.8108 94.5361 63.6923C94.4425 63.5737 94.611 63.4489 94.9105 63.2555C95.314 63.0065 95.7855 62.8908 96.2584 62.9247C96.7282 62.9488 97.1783 63.1214 97.5438 63.4177C97.8059 63.6486 97.887 63.8483 97.8371 63.8982Z" fill="#263238"/>
<path d="M100.689 70.9808C101.172 70.8591 101.669 70.7983 102.168 70.7998C102.399 70.7998 102.623 70.7561 102.667 70.6001C102.699 70.3652 102.66 70.126 102.555 69.9137C102.368 69.3396 102.174 68.7468 101.974 68.1166C101.169 65.5707 100.602 63.4803 100.726 63.4491C100.851 63.4179 101.563 65.4584 102.368 68.0043C102.555 68.6283 102.742 69.2523 102.917 69.8076C103.048 70.0934 103.072 70.4165 102.985 70.7187C102.947 70.7975 102.891 70.8665 102.821 70.9206C102.752 70.9746 102.672 71.0123 102.586 71.0307C102.455 71.0479 102.323 71.0479 102.193 71.0307C101.691 71.0789 101.186 71.0621 100.689 70.9808Z" fill="#263238"/>
<path d="M98.199 62.0264C98.0929 62.2698 97.2006 62.1013 96.1398 62.1699C95.079 62.2386 94.1992 62.4757 94.0744 62.2448C94.0182 62.1387 94.1804 61.9141 94.5361 61.6957C95.0109 61.4253 95.5439 61.2734 96.0899 61.2526C96.635 61.219 97.1804 61.3152 97.6811 61.5334C98.0617 61.7082 98.2427 61.9141 98.199 62.0264Z" fill="#263238"/>
<path d="M106.704 61.9512C106.536 62.1446 105.924 61.895 105.182 61.8451C104.439 61.7952 103.796 61.9013 103.659 61.6829C103.603 61.5768 103.715 61.3771 104.002 61.1961C104.387 60.9867 104.825 60.8957 105.261 60.9345C105.698 60.9734 106.113 61.1404 106.455 61.4145C106.704 61.6392 106.804 61.8513 106.704 61.9512Z" fill="#263238"/>
<path d="M88.0841 66.6501C87.9842 66.6002 84.1217 65.2274 84.0218 69.2459C83.922 73.2645 87.9718 72.5344 87.9842 72.4221C87.9967 72.3098 88.0841 66.6501 88.0841 66.6501Z" fill="#B78876"/>
<path d="M86.7923 70.8683C86.7923 70.8683 86.7236 70.912 86.6051 70.9682C86.4372 71.0375 86.2487 71.0375 86.0809 70.9682C85.8258 70.7973 85.6208 70.5616 85.487 70.2852C85.3532 70.0088 85.2954 69.7018 85.3196 69.3957C85.3173 69.0508 85.392 68.7097 85.538 68.3973C85.5802 68.273 85.6515 68.1605 85.7459 68.0694C85.8403 67.9782 85.9552 67.9109 86.0809 67.8731C86.162 67.8534 86.2474 67.8633 86.3218 67.901C86.3962 67.9388 86.4546 68.0019 86.4865 68.079C86.5364 68.1914 86.4865 68.2725 86.5302 68.2787C86.5739 68.285 86.6175 68.2101 86.5926 68.0478C86.5696 67.9479 86.5149 67.8582 86.4366 67.792C86.3836 67.7492 86.3228 67.7172 86.2574 67.6979C86.1921 67.6787 86.1237 67.6725 86.0559 67.6797C85.8878 67.7099 85.7303 67.7833 85.599 67.8927C85.4678 68.0021 85.3672 68.1437 85.3071 68.3037C85.128 68.6463 85.0359 69.0278 85.0388 69.4144C85.0094 69.7718 85.0868 70.1298 85.2612 70.4431C85.4357 70.7564 85.6992 71.0108 86.0185 71.1741C86.1228 71.2045 86.2323 71.2124 86.3399 71.1974C86.4474 71.1823 86.5506 71.1446 86.6425 71.0867C86.786 70.9619 86.811 70.8746 86.7923 70.8683Z" fill="#AA6550"/>
<path d="M85.8625 66.3881C86.2446 66.3849 86.6205 66.4854 86.9501 66.6788C87.2797 66.8722 87.5507 67.1512 87.7345 67.4863C87.9591 68.0729 87.9841 68.7343 88.2087 69.3146C88.2957 69.6175 88.4807 69.8829 88.7348 70.0692C88.9889 70.2556 89.2977 70.3523 89.6127 70.3442C89.8243 70.2903 90.0181 70.1819 90.1747 70.0297C90.3313 69.8775 90.4452 69.6869 90.505 69.4768C90.6131 69.0552 90.6407 68.617 90.5862 68.1852C90.4614 66.3132 90.1681 64.4412 90.2055 62.5255C90.171 60.6216 90.7008 58.75 91.7281 57.1466C92.2476 56.3527 92.9715 55.7135 93.8237 55.2962C94.6758 54.8789 95.6246 54.699 96.5703 54.7754C97.8183 54.9501 98.9166 55.6615 100.14 55.9048C100.871 56.0441 101.625 56.0153 102.344 55.8208C103.062 55.6262 103.728 55.2709 104.289 54.7817C104.351 54.7281 104.418 54.6801 104.489 54.6381C104.693 54.5107 104.849 54.3186 104.931 54.0925C105.014 53.8664 105.018 53.6192 104.944 53.3901C104.903 53.2433 104.831 53.1071 104.732 52.9908C102.405 50.5821 98.0118 49.6961 94.7482 50.3263C93.0758 50.639 91.4913 51.3117 90.1046 52.2975C88.7179 53.2834 87.5622 54.559 86.7174 56.0359C85.1511 58.9999 85.3196 63.2493 85.9186 66.3693" fill="#263238"/>
<path d="M98.5921 71.6857C98.7418 71.6857 98.7418 72.6529 99.578 73.3455C100.414 74.0381 101.45 73.9321 101.45 74.0693C101.45 74.2066 101.219 74.2628 100.776 74.269C100.204 74.2811 99.6464 74.0886 99.2036 73.7261C98.7795 73.3782 98.5066 72.8794 98.4423 72.3346C98.3861 71.9228 98.4985 71.6794 98.5921 71.6857Z" fill="#263238"/>
<path d="M154.634 104.707C154.634 104.707 159.033 100.845 159.863 100.558C160.693 100.271 167.32 100.152 167.763 100.483C168.206 100.814 174.914 104.489 173.803 105.057C172.692 105.625 168.044 102.96 168.044 102.96L167.264 103.066C167.264 103.066 171.32 105.232 172.037 106.062C172.755 106.891 172.068 107.753 171.313 107.397C170.558 107.041 167.076 105.038 166.802 105.113C166.527 105.188 170.508 107.515 170.877 107.952C171.369 108.526 171.051 109.65 170.284 109.325C169.834 109.138 166.165 106.704 166.165 106.704C167.204 107.554 168.196 108.46 169.136 109.419C169.46 110.043 168.836 110.61 168.193 110.217C167.757 109.949 165.866 108.09 165.279 107.721C165.279 107.721 164.655 107.671 163.676 108.695C162.696 109.718 158.946 111.11 158.946 111.11L154.634 104.707Z" fill="#B78876"/>
<path d="M173.784 105.07C173.309 105.138 172.825 105.108 172.362 104.982C171.851 104.88 171.352 104.729 170.87 104.533C170.352 104.284 169.784 103.997 169.185 103.691L167.937 103.067H168.025C166.888 103.126 165.749 103.095 164.618 102.973C165.742 102.794 166.88 102.713 168.018 102.73H168.056H168.1L169.348 103.354L170.976 104.209C171.435 104.411 171.908 104.578 172.393 104.708C173.248 104.957 173.79 105.014 173.784 105.07Z" fill="#AA6550"/>
<path d="M156.269 105.825C156.449 106.081 156.707 106.274 157.003 106.376C157.3 106.478 157.622 106.484 157.922 106.393C158.546 106.262 159.089 105.931 159.688 105.769C161.491 105.251 163.494 106.212 165.267 105.606C165.516 105.519 165.791 105.338 165.766 105.082C165.741 104.826 165.466 104.72 165.235 104.645L159.32 102.773" fill="#B78876"/>
<path d="M159.32 102.749C159.546 102.762 159.769 102.808 159.981 102.886C160.4 102.998 160.999 103.173 161.741 103.391L164.337 104.177L165.086 104.408C165.323 104.502 165.666 104.521 165.891 104.889C165.934 104.983 165.949 105.088 165.932 105.19C165.915 105.293 165.868 105.388 165.797 105.463C165.68 105.589 165.535 105.686 165.373 105.744C165.082 105.845 164.781 105.912 164.474 105.943C163.359 105.961 162.243 105.9 161.136 105.762C160.668 105.737 160.199 105.782 159.744 105.893C159.326 106.006 158.939 106.193 158.571 106.324C158.279 106.463 157.959 106.535 157.635 106.535C157.311 106.535 156.992 106.463 156.699 106.324C156.3 106.093 156.237 105.806 156.25 105.812C156.396 105.972 156.57 106.105 156.762 106.205C157.043 106.308 157.343 106.35 157.642 106.328C157.941 106.307 158.232 106.222 158.496 106.081C158.883 105.901 159.279 105.74 159.682 105.6C160.165 105.464 160.666 105.405 161.167 105.425C162.259 105.542 163.357 105.594 164.456 105.581C164.729 105.548 164.999 105.488 165.261 105.401C165.504 105.313 165.672 105.138 165.597 105.026C165.523 104.914 165.261 104.795 164.973 104.72L164.225 104.477L161.654 103.616C160.924 103.366 160.331 103.16 159.925 102.992C159.713 102.939 159.51 102.857 159.32 102.749Z" fill="#AA6550"/>
<path d="M129.655 136.906L136.949 136.182C136.949 136.182 146.596 142.79 145.685 144.244C144.774 145.698 143.189 144.244 143.189 144.244C143.189 144.244 144.905 146.36 142.129 147.021C142.129 147.021 141.467 148.475 140.413 148.344H139.751C139.751 148.344 139.127 150.185 138.26 149.785C137.392 149.386 134.678 147.015 134.678 147.015L127.19 146.353L129.655 136.906Z" fill="#B78876"/>
<path d="M134.191 144.425C134.191 144.425 132.319 145.143 131.939 145.898C131.558 146.653 131.315 148.394 132.525 148.737C133.235 148.783 133.947 148.76 134.653 148.668L134.191 146.703C134.539 146.299 134.91 145.916 135.302 145.555C135.701 145.224 135.264 143.932 134.191 144.425Z" fill="#FFBE9D"/>
<path d="M136.294 145.424C136.294 145.424 134.422 146.142 134.042 146.89C133.932 147.111 133.872 147.353 133.868 147.6C133.864 147.846 133.916 148.091 134.019 148.315C134.122 148.538 134.274 148.736 134.464 148.894C134.653 149.051 134.876 149.164 135.115 149.224C135.758 149.275 136.405 149.254 137.043 149.162L136.843 148.781C136.469 148.045 136.307 147.446 136.968 146.953C137.006 146.953 137.38 146.578 137.405 146.553C137.499 146.398 137.539 146.216 137.517 146.035C137.496 145.855 137.416 145.687 137.288 145.557C137.161 145.428 136.994 145.344 136.814 145.32C136.634 145.296 136.451 145.333 136.294 145.424Z" fill="#FFBE9D"/>
<path d="M136.743 149.093C136.586 148.922 136.486 148.706 136.459 148.475C136.432 148.244 136.479 148.01 136.594 147.808C136.84 147.407 137.235 147.119 137.692 147.009C137.833 146.95 137.988 146.931 138.139 146.955C138.29 146.979 138.431 147.046 138.547 147.146C138.603 147.227 138.643 147.319 138.663 147.415C138.683 147.512 138.684 147.611 138.665 147.708C138.538 148.223 138.276 148.695 137.904 149.074C137.729 149.293 137.517 149.53 137.236 149.524C136.956 149.517 136.75 149.255 136.612 149.018" fill="#FFBE9D"/>
<path d="M97.3194 90.275L98.9605 89.6572L100.377 92.1969L99.5845 94.9113L97.9122 95.3231L96.2461 93.2203L97.3194 90.275Z" fill="#0EC79B"/>
<path d="M97.9121 95.323C97.9121 95.323 100.04 106.998 101.806 115.21C101.806 115.21 103.26 122.074 103.846 123.621C104.502 125.387 106.523 127.989 106.523 127.989L108.576 128.788L107.328 117.25L99.5907 94.9111L97.9121 95.323Z" fill="#0EC79B"/>
<g opacity="0.4">
<path d="M97.3194 90.275L98.9605 89.6572L100.377 92.1969L99.5845 94.9113L97.9122 95.3231L96.2461 93.2203L97.3194 90.275Z" fill="black"/>
</g>
<g opacity="0.4">
<path d="M97.9121 95.323C97.9121 95.323 100.04 106.998 101.806 115.21C101.806 115.21 103.472 121.986 103.846 123.621C104.065 124.589 106.523 127.989 106.523 127.989L108.576 128.788L107.328 117.25L99.5907 94.9111L97.9121 95.323Z" fill="black"/>
</g>
<path d="M87.4727 83.1797L97.3194 90.2746L95.1916 96.1277L86.231 86.905L87.4727 83.1797Z" fill="#F5F5F5"/>
<path d="M98.9604 89.6568L101.706 83.5166L103.266 88.5835L101.101 93.9L98.9604 89.6568Z" fill="#F5F5F5"/>
<path d="M97.3441 90.2744C97.3254 90.4282 97.2877 90.5791 97.2318 90.7237L96.8324 91.9717C96.483 93.0138 95.9713 94.4677 95.3535 96.2024L95.2724 96.4395L95.0977 96.2523L92.8076 93.7189C91.023 91.7408 89.4193 89.9374 88.2774 88.6208L86.9295 87.0483C86.7533 86.8578 86.5985 86.6485 86.4678 86.4243C86.6703 86.5797 86.8564 86.7553 87.0231 86.9485L88.4459 88.4461C89.6377 89.6941 91.2663 91.5037 93.0447 93.4818C93.8497 94.3803 94.6172 95.2414 95.3286 96.0277L95.0727 96.0776C95.6967 94.3678 96.2583 92.9139 96.6577 91.8843L97.1382 90.6925C97.1865 90.544 97.2558 90.4032 97.3441 90.2744Z" fill="#263238"/>
<path d="M103.266 88.6089C103.161 89.1018 103.007 89.5827 102.804 90.0441C102.486 90.9114 102.018 92.1095 101.481 93.4199L101.25 93.9878L101.088 94.3809L100.951 93.9815C100.408 92.5859 99.7506 91.2376 98.9854 89.9505C99.3135 90.2447 99.5917 90.5904 99.809 90.9738C100.406 91.8797 100.892 92.8538 101.257 93.8754H100.951C101.026 93.6882 101.107 93.501 101.182 93.3076C101.718 91.991 102.218 90.8116 102.592 89.963C102.763 89.4869 102.989 89.0325 103.266 88.6089Z" fill="#263238"/>
<path d="M228.384 273.356L232.178 288.42L238.618 299.471C238.728 299.659 238.798 299.868 238.823 300.085C238.849 300.301 238.83 300.521 238.768 300.73C238.705 300.939 238.6 301.132 238.46 301.299C238.319 301.466 238.145 301.602 237.95 301.699C237.726 301.816 237.476 301.877 237.223 301.877C236.97 301.877 236.721 301.816 236.496 301.699C233.601 300.139 222.993 294.342 222.768 293.225C222.519 291.933 217.708 277.625 217.708 277.625L228.384 273.356Z" fill="#455A64"/>
<g opacity="0.6">
<path d="M237.975 301.698L222.525 292.195L222.7 292.819C222.85 293.368 223.19 293.846 223.661 294.167C224.909 295.022 228.453 297.287 236.471 301.655C236.703 301.778 236.961 301.842 237.223 301.842C237.485 301.842 237.744 301.778 237.975 301.655V301.698Z" fill="white"/>
</g>
<g opacity="0.6">
<path d="M224.259 286.517C224.482 286.6 224.666 286.763 224.775 286.974C224.885 287.185 224.912 287.429 224.852 287.659C224.776 287.884 224.617 288.071 224.406 288.181C224.196 288.292 223.951 288.317 223.723 288.251C223.487 288.164 223.292 287.991 223.176 287.767C223.061 287.543 223.033 287.284 223.099 287.041C223.201 286.812 223.39 286.633 223.623 286.542C223.857 286.451 224.116 286.455 224.347 286.554" fill="white"/>
</g>
<path d="M232.752 296.101C232.98 295.533 233.315 295.015 233.738 294.572C234.229 294.206 234.783 293.933 235.373 293.767C235.373 293.73 235.154 293.668 234.792 293.711C234.318 293.79 233.876 294.001 233.516 294.32C233.156 294.639 232.894 295.053 232.758 295.515C232.665 295.876 232.702 296.101 232.752 296.101Z" fill="#263238"/>
<path d="M234.362 297.811C234.456 297.861 234.799 297.237 235.51 296.8C235.97 296.578 236.44 296.38 236.921 296.207C236.65 296.128 236.365 296.114 236.088 296.167C235.811 296.22 235.551 296.339 235.329 296.513C234.524 297.025 234.275 297.792 234.362 297.811Z" fill="#263238"/>
<path d="M230.05 294.079C230.997 292.798 232.299 291.821 233.794 291.271C232.968 291.336 232.177 291.635 231.514 292.132C230.852 292.629 230.344 293.304 230.05 294.079Z" fill="#263238"/>
<path d="M228.509 289.599C228.577 289.674 229.308 289.1 230.381 288.769C231.454 288.438 232.371 288.451 232.378 288.351C231.688 288.13 230.943 288.161 230.275 288.438C229.569 288.608 228.945 289.019 228.509 289.599Z" fill="#263238"/>
<path d="M227.286 285.206C227.878 284.811 228.523 284.502 229.202 284.289C229.903 284.173 230.617 284.154 231.323 284.232C231.323 284.195 231.124 284.058 230.699 283.952C230.172 283.825 229.623 283.825 229.096 283.952C228.568 284.076 228.078 284.324 227.667 284.675C227.38 284.95 227.255 285.168 227.286 285.206Z" fill="#263238"/>
<path d="M228.94 283.459C228.939 283.26 228.895 283.064 228.809 282.885C228.614 282.379 228.321 281.917 227.948 281.525C227.697 281.216 227.353 280.997 226.968 280.901C226.838 280.879 226.704 280.9 226.586 280.959C226.469 281.019 226.373 281.114 226.313 281.231C226.203 281.461 226.185 281.725 226.263 281.968C226.434 282.462 226.773 282.881 227.221 283.152C227.669 283.423 228.197 283.53 228.715 283.453C229.225 283.364 229.698 283.127 230.073 282.771C230.448 282.414 230.71 281.954 230.824 281.45C230.851 281.322 230.85 281.191 230.822 281.064C230.794 280.937 230.74 280.818 230.662 280.713C230.573 280.617 230.455 280.551 230.326 280.525C230.198 280.5 230.064 280.515 229.944 280.57C229.597 280.752 229.304 281.024 229.096 281.356C228.778 281.793 228.541 282.283 228.397 282.804C228.327 282.989 228.297 283.187 228.309 283.384C228.542 282.715 228.872 282.084 229.289 281.512C229.483 281.231 229.742 281.002 230.044 280.844C230.11 280.814 230.183 280.805 230.254 280.82C230.325 280.835 230.389 280.872 230.437 280.925C230.482 280.997 230.512 281.077 230.525 281.161C230.538 281.245 230.533 281.33 230.512 281.412C230.399 281.848 230.162 282.243 229.83 282.547C229.498 282.852 229.085 283.053 228.64 283.128C228.2 283.191 227.752 283.101 227.369 282.874C226.987 282.647 226.693 282.297 226.537 281.88C226.477 281.713 226.477 281.53 226.537 281.362C226.57 281.296 226.622 281.243 226.687 281.209C226.753 281.175 226.827 281.164 226.899 281.175C227.223 281.257 227.515 281.436 227.735 281.687C228.24 282.201 228.648 282.801 228.94 283.459Z" fill="#263238"/>
<path d="M181.353 276.164L182.158 287.777C182.158 287.777 170.627 292.494 170.564 294.641L193.135 293.905L192.629 275.759L181.353 276.164Z" fill="#455A64"/>
<path d="M189.103 286.566C189.324 286.625 189.515 286.764 189.639 286.955C189.764 287.146 189.813 287.377 189.777 287.602C189.728 287.825 189.595 288.02 189.405 288.148C189.216 288.276 188.985 288.326 188.76 288.289C188.527 288.225 188.327 288.078 188.196 287.875C188.066 287.672 188.016 287.428 188.055 287.19C188.132 286.965 188.293 286.778 188.505 286.669C188.717 286.56 188.962 286.536 189.191 286.604" fill="#E0E0E0"/>
<path d="M193.134 293.904L193.016 292.076L171.419 293.48C171.419 293.48 170.427 293.954 170.564 294.66L193.134 293.904Z" fill="#E0E0E0"/>
<path d="M181.79 287.665C181.79 287.771 182.352 287.808 182.901 288.139C183.45 288.47 183.762 288.931 183.862 288.888C183.962 288.844 183.775 288.207 183.101 287.808C182.427 287.409 181.765 287.577 181.79 287.665Z" fill="#263238"/>
<path d="M179.456 288.732C179.456 288.844 179.918 289.013 180.305 289.468C180.692 289.924 180.823 290.41 180.929 290.404C181.035 290.398 181.091 289.78 180.592 289.212C180.093 288.644 179.456 288.632 179.456 288.732Z" fill="#263238"/>
<path d="M178.202 291.614C178.308 291.614 178.439 291.078 178.14 290.485C177.84 289.892 177.31 289.668 177.266 289.761C177.222 289.855 177.553 290.167 177.797 290.654C178.04 291.14 178.096 291.602 178.202 291.614Z" fill="#263238"/>
<path d="M181.902 285.013C181.952 285.106 182.451 284.938 183.075 284.963C183.699 284.988 184.192 285.162 184.242 285.069C184.292 284.975 183.818 284.595 183.082 284.576C182.345 284.557 181.84 284.925 181.902 285.013Z" fill="#263238"/>
<path d="M181.784 282.673C182.158 282.756 182.547 282.741 182.913 282.629C183.317 282.541 183.709 282.405 184.08 282.223C184.297 282.117 184.506 281.993 184.704 281.855C184.832 281.784 184.946 281.691 185.041 281.581C185.11 281.5 185.151 281.399 185.157 281.293C185.162 281.186 185.133 281.081 185.072 280.994C185.013 280.92 184.938 280.86 184.853 280.819C184.768 280.777 184.674 280.756 184.579 280.757C184.435 280.76 184.292 280.785 184.155 280.832C183.916 280.896 183.684 280.984 183.462 281.094C183.087 281.278 182.744 281.52 182.445 281.811C181.933 282.317 181.771 282.735 181.821 282.754C181.871 282.772 182.114 282.435 182.632 282.017C182.935 281.768 183.268 281.558 183.624 281.393C183.826 281.303 184.035 281.23 184.248 281.175C184.486 281.106 184.685 281.094 184.754 281.175C184.823 281.256 184.754 281.231 184.754 281.3C184.681 281.38 184.597 281.45 184.504 281.506C184.316 281.637 184.12 281.758 183.918 281.868C183.573 282.049 183.214 282.202 182.844 282.323C182.482 282.41 182.127 282.527 181.784 282.673Z" fill="#263238"/>
<path d="M181.928 282.816C181.971 282.816 182.177 282.429 182.19 281.718C182.196 281.294 182.131 280.872 181.996 280.47C181.917 280.235 181.812 280.009 181.684 279.796C181.619 279.649 181.516 279.522 181.387 279.426C181.259 279.33 181.107 279.268 180.948 279.247C180.847 279.253 180.751 279.287 180.669 279.345C180.587 279.404 180.524 279.485 180.486 279.578C180.43 279.711 180.395 279.852 180.38 279.996C180.342 280.248 180.342 280.505 180.38 280.757C180.457 281.179 180.637 281.576 180.904 281.912C181.366 282.479 181.828 282.598 181.834 282.536C181.84 282.473 181.478 282.28 181.123 281.724C180.916 281.408 180.782 281.05 180.729 280.676C180.698 280.459 180.698 280.238 180.729 280.021C180.729 279.784 180.842 279.584 180.929 279.609C181.017 279.634 181.241 279.777 181.341 279.965C181.457 280.165 181.557 280.373 181.641 280.589C181.78 280.949 181.866 281.327 181.896 281.712C181.971 282.386 181.871 282.804 181.928 282.816Z" fill="#263238"/>
<path d="M175.194 149.848L178.826 284.982L196.635 284.445L195.262 168.468L217.951 287.671L234.031 283.472L213.271 150.11L175.194 149.848Z" fill="#263238"/>
<path d="M184.954 285.169C184.86 285.169 184.792 257.158 184.792 222.607C184.792 188.056 184.86 160.044 184.954 160.044C185.047 160.044 185.116 188.05 185.116 222.607C185.116 257.164 185.041 285.169 184.954 285.169Z" fill="#455A64"/>
<path d="M223.03 287.627C222.943 287.627 218.787 260.795 213.745 227.654C208.703 194.514 204.672 167.632 204.778 167.619C204.884 167.607 209.022 194.451 214.064 227.604C219.105 260.757 223.124 287.614 223.03 287.627Z" fill="#455A64"/>
<path d="M200.71 65.3459C201.33 63.9573 201.833 62.5192 202.214 61.0465C202.426 59.9233 202.763 58.2448 202.314 57.1965C201.864 56.1481 200.772 55.1373 199.399 55.4243C199.257 54.3216 198.836 53.2735 198.175 52.3792C197.514 51.4849 196.636 50.774 195.624 50.3137C193.671 49.3688 191.551 48.8175 189.384 48.6913C188.592 48.6112 187.792 48.7115 187.044 48.9846C186.409 49.3068 185.909 49.8442 185.634 50.5009C184.979 50.0302 184.224 49.719 183.427 49.5923C182.631 49.4655 181.816 49.5267 181.048 49.7709C179.325 50.2326 177.366 51.1624 176.611 52.7723C176.07 53.9771 176.023 55.3458 176.48 56.5849C176.811 57.6333 177.921 59.2806 178.976 58.8937" fill="#263238"/>
<path d="M192.03 94.493C190.997 94.4719 189.979 94.2433 189.036 93.8209C188.094 93.3984 187.245 92.7908 186.542 92.034C185.839 91.2773 185.295 90.3869 184.943 89.4158C184.591 88.4446 184.437 87.4126 184.492 86.381C184.598 84.2282 184.698 82.4872 184.698 82.4872C184.698 82.4872 178.82 81.726 178.601 75.8728C178.383 70.0197 179.063 56.5663 179.063 56.5663C182.357 55.0581 185.993 54.4567 189.597 54.8242C193.2 55.1917 196.64 56.5148 199.561 58.6567L200.441 59.2807L199.898 86.9301C199.879 87.9436 199.66 88.9432 199.254 89.8719C198.848 90.8006 198.263 91.6402 197.532 92.3426C196.801 93.045 195.939 93.5965 194.995 93.9654C194.051 94.3344 193.043 94.5137 192.03 94.493Z" fill="#FFBE9D"/>
<path d="M184.704 82.4251C187.407 82.4068 190.044 81.5859 192.28 80.0664C192.28 80.0664 190.476 84.6029 184.623 84.2222L184.704 82.4251Z" fill="#EB996E"/>
<path d="M199.873 65.365C199.973 65.3213 203.867 64.0733 203.836 68.0794C203.805 72.0855 199.799 71.2306 199.792 71.112C199.786 70.9935 199.873 65.365 199.873 65.365Z" fill="#FFBE9D"/>
<path d="M201.022 69.6018C201.022 69.6018 201.097 69.6518 201.209 69.7079C201.292 69.7429 201.381 69.761 201.471 69.761C201.561 69.761 201.65 69.7429 201.733 69.7079C201.994 69.5468 202.206 69.3189 202.349 69.0478C202.491 68.7768 202.559 68.4726 202.544 68.1666C202.557 67.8234 202.491 67.4819 202.351 67.1682C202.315 67.0432 202.249 66.9288 202.159 66.8352C202.069 66.7416 201.957 66.6717 201.833 66.6316C201.753 66.6089 201.668 66.6153 201.593 66.6496C201.517 66.6839 201.456 66.7438 201.421 66.8188C201.365 66.9311 201.39 67.006 201.371 67.0122C201.353 67.0185 201.284 66.9498 201.315 66.7814C201.34 66.6823 201.397 66.5944 201.477 66.5318C201.589 66.4516 201.727 66.416 201.864 66.4319C202.027 66.4671 202.179 66.5427 202.306 66.6517C202.432 66.7607 202.529 66.8997 202.588 67.0559C202.758 67.4029 202.837 67.7871 202.819 68.1729C202.836 68.5294 202.747 68.8828 202.564 69.1891C202.38 69.4954 202.111 69.741 201.789 69.8951C201.683 69.9219 201.573 69.9258 201.465 69.9064C201.358 69.887 201.255 69.8449 201.165 69.7828C201.028 69.7017 201.009 69.6143 201.022 69.6018Z" fill="#EB996E"/>
<path d="M180.58 65.72C180.584 65.938 180.674 66.1456 180.828 66.2992C180.983 66.4529 181.191 66.5405 181.41 66.5436C181.516 66.5495 181.622 66.534 181.723 66.4981C181.823 66.4622 181.915 66.4065 181.994 66.3344C182.072 66.2623 182.136 66.1752 182.18 66.0782C182.224 65.9813 182.249 65.8764 182.252 65.7699C182.249 65.5514 182.16 65.3428 182.005 65.1889C181.85 65.0349 181.641 64.9478 181.422 64.9462C181.316 64.9412 181.21 64.9573 181.11 64.9935C181.01 65.0298 180.918 65.0855 180.839 65.1574C180.761 65.2294 180.698 65.3161 180.653 65.4127C180.609 65.5093 180.584 65.6137 180.58 65.72Z" fill="#263238"/>
<path d="M180.374 64.7842C180.48 64.8902 181.104 64.4098 182.002 64.391C182.901 64.3723 183.575 64.8029 183.668 64.6906C183.762 64.5782 183.606 64.4472 183.313 64.2413C182.917 63.9826 182.45 63.8519 181.977 63.8669C181.509 63.8772 181.057 64.0368 180.686 64.3224C180.411 64.5408 180.336 64.7405 180.374 64.7842Z" fill="#263238"/>
<path d="M189.391 65.714C189.397 65.9309 189.487 66.137 189.642 66.2893C189.796 66.4416 190.004 66.5283 190.221 66.5314C190.327 66.5382 190.434 66.5233 190.535 66.4877C190.636 66.4521 190.728 66.3965 190.807 66.3242C190.885 66.2519 190.949 66.1645 190.993 66.0671C191.037 65.9698 191.061 65.8645 191.063 65.7577C191.06 65.5402 190.972 65.3326 190.818 65.1788C190.664 65.025 190.457 64.9372 190.239 64.934C190.132 64.929 190.025 64.9452 189.924 64.9818C189.824 65.0184 189.731 65.0745 189.652 65.1471C189.573 65.2196 189.51 65.307 189.465 65.4043C189.42 65.5016 189.395 65.6069 189.391 65.714Z" fill="#263238"/>
<path d="M189.215 64.7343C189.328 64.8403 189.946 64.3536 190.844 64.3349C191.743 64.3162 192.417 64.7467 192.51 64.6344C192.604 64.5221 192.448 64.3911 192.155 64.1914C191.76 63.9286 191.293 63.7955 190.819 63.8107C190.351 63.821 189.898 63.9806 189.527 64.2663C189.253 64.4847 189.166 64.6843 189.215 64.7343Z" fill="#263238"/>
<path d="M186.121 71.48C185.643 71.3453 185.15 71.2699 184.654 71.2554C184.423 71.2554 184.205 71.1992 184.161 71.0432C184.141 70.806 184.188 70.5678 184.298 70.3568C184.504 69.7952 184.717 69.2086 184.922 68.5909C185.802 66.0949 186.433 64.017 186.333 63.9795C186.233 63.9421 185.434 65.9576 184.554 68.4661L183.93 70.2445C183.792 70.5249 183.756 70.8453 183.83 71.1493C183.869 71.2273 183.923 71.2965 183.99 71.3524C184.056 71.4083 184.134 71.4496 184.217 71.4738C184.346 71.5048 184.478 71.5195 184.61 71.5174C185.113 71.5739 185.621 71.5613 186.121 71.48Z" fill="#263238"/>
<path d="M188.785 72.0415C188.635 72.0415 188.66 73.0087 187.843 73.7263C187.025 74.4439 185.971 74.3503 185.971 74.4938C185.971 74.6373 186.208 74.6748 186.651 74.6748C187.222 74.6696 187.773 74.4617 188.205 74.0882C188.622 73.7308 188.884 73.225 188.935 72.678C188.966 72.2724 188.854 72.029 188.785 72.0415Z" fill="#263238"/>
<path d="M188.897 61.2151C188.991 61.4585 189.889 61.3212 190.944 61.421C191.999 61.5209 192.866 61.7829 192.997 61.5645C193.059 61.4585 192.903 61.2276 192.554 61.0029C192.091 60.7187 191.567 60.5496 191.025 60.51C190.482 60.4578 189.935 60.5348 189.428 60.7346C189.072 60.9031 188.86 61.0965 188.897 61.2151Z" fill="#263238"/>
<path d="M180.642 62.1758C180.804 62.3755 181.416 62.1758 182.164 62.1196C182.913 62.0635 183.543 62.2195 183.681 62.0073C183.743 61.9012 183.637 61.6953 183.356 61.5081C182.98 61.2871 182.547 61.1828 182.111 61.2084C181.676 61.2339 181.258 61.3882 180.91 61.6516C180.648 61.8638 180.567 62.076 180.642 62.1758Z" fill="#263238"/>
<path d="M200.753 59.7423C200.716 61.452 201.146 63.3427 200.884 65.0213C200.847 65.2771 200.21 65.9698 200.154 66.2194C199.849 67.7107 199.25 68.3597 198.332 66.8434C197.977 66.2631 197.708 64.6344 197.571 63.973L196.373 58.6003C195.017 59.3476 193.497 59.7484 191.949 59.7672C191.176 59.7655 190.416 59.5669 189.742 59.1902C189.067 58.8136 188.499 58.2713 188.092 57.6144C187.742 58.232 187.256 58.7625 186.672 59.1666C186.088 59.5706 185.42 59.8377 184.719 59.9481C184.017 60.0584 183.3 60.0091 182.62 59.8039C181.94 59.5986 181.315 59.2427 180.792 58.7626C180.517 59.1727 180.098 59.4645 179.619 59.5801C179.139 59.6957 178.633 59.6266 178.202 59.3866C177.784 59.1224 177.46 58.7325 177.277 58.2728C177.095 57.8131 177.062 57.3074 177.185 56.8282C177.553 55.393 179.057 54.5818 180.473 54.1263C185.996 52.3479 192.186 53.5023 197.259 56.2853C198.015 56.6705 198.709 57.1669 199.318 57.7579C199.905 58.3819 200.716 59.0808 200.76 59.9295" fill="#263238"/>
<path d="M196.56 59.2806C196.867 59.2794 197.173 59.3279 197.465 59.4241C197.771 59.5564 198.053 59.7376 198.301 59.9607C198.588 60.2103 198.869 60.5348 199.212 60.853C199.531 61.1752 199.92 61.4205 200.348 61.5707C200.711 61.6737 201.095 61.6737 201.458 61.5707C202.082 61.3959 202.32 61.059 202.295 61.034C202.007 61.1557 201.711 61.2559 201.408 61.3335C201.086 61.3883 200.756 61.3604 200.448 61.2524C200.069 61.1066 199.726 60.881 199.443 60.591C199.118 60.2852 198.819 59.967 198.507 59.7049C198.223 59.4705 197.897 59.2926 197.546 59.1807C196.903 59.006 196.516 59.2806 196.56 59.2806Z" fill="#455A64"/>
<path d="M197.228 61.0281C197.228 61.0781 197.527 61.0281 197.852 61.3089C198.043 61.4833 198.214 61.6779 198.363 61.8893C198.567 62.1729 198.826 62.4127 199.125 62.5944C199.668 62.9322 200.313 63.0691 200.947 62.9813C201.427 62.9064 201.677 62.7317 201.658 62.6942C201.639 62.6568 201.365 62.7317 200.922 62.7379C200.352 62.7528 199.79 62.601 199.306 62.3011C198.732 61.9829 198.445 61.3713 197.989 61.1093C197.534 60.8472 197.184 60.9845 197.228 61.0281Z" fill="#455A64"/>
<path d="M181.796 49.6458C181.796 49.6458 181.603 49.5959 181.278 49.6957C180.821 49.8485 180.427 50.1465 180.155 50.5443C179.437 51.549 179.269 53.3274 179.824 55.0559C180.315 56.5441 181.337 57.7993 182.695 58.5815C183.097 58.8152 183.527 58.9976 183.974 59.1243C184.135 59.1859 184.307 59.2155 184.479 59.2117C183.916 58.9598 183.366 58.6786 182.832 58.3693C181.576 57.5685 180.634 56.3584 180.168 54.9435C179.637 53.3149 179.762 51.6114 180.367 50.6754C180.602 50.3024 180.94 50.0055 181.341 49.8205C181.615 49.6895 181.796 49.677 181.796 49.6458Z" fill="#455A64"/>
<path d="M176.948 52.0734C176.881 52.449 176.898 52.8346 176.998 53.2028C177.356 55.0221 178.422 56.6246 179.962 57.6582C180.263 57.8935 180.612 58.0596 180.985 58.1449C179.961 57.4262 179.061 56.5452 178.32 55.5366C177.154 53.8144 177.06 52.0547 176.948 52.0734Z" fill="#455A64"/>
<path d="M144.681 133.624L136.12 134.055C135.594 134.082 135.1 134.312 134.741 134.696C134.381 135.08 134.184 135.588 134.192 136.114C134.235 138.073 134.566 140.75 136.064 140.482L137.037 136.22L144.144 142.46C144.863 143.107 145.75 143.54 146.703 143.708L148.375 143.533L144.681 133.624Z" fill="#FFBE9D"/>
<path d="M185.621 87.7659L181.147 89.2448L178.926 126.404V159.37L206.401 162.409L206.719 114.873L204.947 91.2167L200.747 86.1997L185.621 87.7659Z" fill="#E0E0E0"/>
<path d="M184.242 89.5442V85.9437L200.572 83.6724L199.917 91.9653L196.167 98.4674L190.033 98.8106L185.603 96.0775L184.242 89.5442Z" fill="#E0E0E0"/>
<path d="M185.709 89.1265C185.57 88.5888 185.538 88.029 185.615 87.4791C185.588 86.9244 185.666 86.3696 185.846 85.8442C185.985 86.3819 186.017 86.9417 185.94 87.4916C185.968 88.0463 185.889 88.6011 185.709 89.1265Z" fill="#263238"/>
<path d="M189.79 88.8269C189.667 88.221 189.648 87.5985 189.734 86.9861C189.717 86.3674 189.81 85.7505 190.008 85.1641C190.134 85.7803 190.151 86.414 190.058 87.0361C190.075 87.6442 189.985 88.2506 189.79 88.8269Z" fill="#263238"/>
<path d="M193.739 88.4152C193.632 87.7706 193.632 87.1129 193.739 86.4683C193.734 85.8151 193.837 85.1655 194.045 84.5464C194.149 85.1912 194.149 85.8484 194.045 86.4933C194.047 87.1462 193.944 87.7952 193.739 88.4152Z" fill="#263238"/>
<path d="M197.534 87.7908C197.285 86.5748 197.343 85.3161 197.702 84.1279C197.785 84.7367 197.785 85.3538 197.702 85.9625C197.727 86.5767 197.67 87.1915 197.534 87.7908Z" fill="#263238"/>
<path d="M195.718 103.497C195.675 103.714 195.601 103.924 195.5 104.121C195.344 104.508 195.1 105.057 194.782 105.731C194.158 107.073 193.203 108.901 192.043 110.848C190.882 112.795 189.728 114.504 188.848 115.703C188.411 116.327 188.049 116.782 187.787 117.107C187.662 117.284 187.515 117.446 187.35 117.587C187.75 116.892 188.187 116.219 188.661 115.571C189.49 114.323 190.607 112.626 191.781 110.686C192.954 108.745 193.908 106.942 194.595 105.625C194.932 104.897 195.307 104.186 195.718 103.497Z" fill="#263238"/>
<path d="M200.666 85.6196L205.096 87.7537L213.658 89.8566C215.466 90.1711 217.084 91.171 218.175 92.6483C219.265 94.1256 219.743 95.9664 219.511 97.7876L215.024 132.732L220.378 166.615L199.162 165.991L197.914 153.386V118.442L200.666 85.6196Z" fill="#455A64"/>
<path d="M197.914 126.492C197.924 126.345 197.945 126.199 197.976 126.055C198.039 125.743 198.12 125.337 198.22 124.807L199.162 120.302L202.401 105.469C202.756 103.878 203.1 102.349 203.43 100.839L203.474 100.989L202.001 99.4474L201.92 99.3601L201.983 99.2602L204.447 95.1606V95.2791L201.727 88.6897C201.421 87.9222 201.171 87.3044 200.99 86.8177C200.893 86.604 200.814 86.3828 200.753 86.1562C200.878 86.353 200.983 86.5621 201.065 86.7802L201.876 88.5961L204.672 95.1918L204.703 95.2542L204.666 95.3166C203.911 96.5646 203.093 97.9686 202.226 99.4412V99.254L203.699 100.783L203.761 100.845V100.926C203.43 102.418 203.087 103.965 202.738 105.556C201.44 111.328 200.242 116.551 199.405 120.37C198.975 122.242 198.619 123.758 198.363 124.857L198.064 126.067C198.029 126.214 197.979 126.356 197.914 126.492Z" fill="#263238"/>
<path d="M145.042 132.214L163.812 121.749L172.904 97.2196C173.534 95.5252 174.505 93.9784 175.758 92.6752C177.011 91.372 178.518 90.3404 180.186 89.6443L182.601 88.6396V153.217L183.082 168.518L172.91 165.473L178.102 134.722L176.305 119.59L174.526 126.91C174.214 128.208 173.642 129.43 172.845 130.503C172.048 131.575 171.043 132.475 169.89 133.15L150.384 143.283L145.042 132.214Z" fill="#455A64"/>
<path d="M145.267 132.688L143.688 133.162L148.131 143.758L150.203 142.953L145.267 132.688Z" fill="#E0E0E0"/>
<path d="M167.232 126.104C166.846 125.267 166.375 124.47 165.828 123.727C165.198 123.054 164.502 122.446 163.75 121.911C164.659 122.225 165.464 122.782 166.078 123.521C166.692 124.26 167.091 125.154 167.232 126.104Z" fill="#263238"/>
<path d="M147.296 132.351C147.296 132.395 147.202 132.476 147.189 132.657C147.177 132.838 147.296 133.05 147.545 132.975C147.592 132.964 147.636 132.941 147.671 132.907C147.706 132.874 147.731 132.831 147.743 132.785C147.756 132.738 147.756 132.689 147.743 132.642C147.73 132.595 147.705 132.553 147.67 132.52C147.564 132.37 147.427 132.363 147.42 132.314C147.414 132.264 147.595 132.176 147.832 132.351C147.901 132.405 147.955 132.475 147.992 132.554C148.029 132.633 148.047 132.719 148.044 132.807C148.034 132.919 147.99 133.025 147.917 133.111C147.845 133.197 147.747 133.258 147.639 133.287C147.544 133.32 147.442 133.326 147.345 133.303C147.247 133.28 147.158 133.231 147.087 133.16C147.017 133.088 146.968 132.999 146.946 132.901C146.924 132.803 146.931 132.701 146.965 132.607C147.071 132.326 147.264 132.289 147.296 132.351Z" fill="#263238"/>
<path d="M148.806 131.714C148.806 131.758 148.712 131.839 148.706 132.02C148.7 132.201 148.812 132.413 149.062 132.338C149.109 132.326 149.152 132.302 149.186 132.268C149.221 132.234 149.246 132.191 149.259 132.144C149.271 132.097 149.271 132.047 149.259 132C149.246 131.953 149.221 131.911 149.186 131.877C149.08 131.733 148.943 131.721 148.93 131.677C148.918 131.633 149.105 131.533 149.349 131.714C149.417 131.767 149.471 131.836 149.508 131.914C149.545 131.992 149.563 132.077 149.561 132.164C149.549 132.276 149.503 132.383 149.431 132.47C149.358 132.557 149.261 132.621 149.152 132.653C149.043 132.685 148.927 132.684 148.819 132.65C148.711 132.616 148.615 132.551 148.544 132.463C148.496 132.39 148.465 132.307 148.454 132.221C148.443 132.134 148.453 132.046 148.481 131.964C148.587 131.664 148.806 131.664 148.806 131.714Z" fill="#263238"/>
<path d="M182.602 127.484C182.559 127.357 182.532 127.225 182.52 127.091C182.477 126.792 182.414 126.411 182.346 125.937C182.202 124.895 182.009 123.441 181.772 121.7C181.31 118.081 180.686 113.145 179.993 107.697C179.9 106.923 179.806 106.162 179.712 105.407V105.37V105.332C180.187 104.128 180.648 102.961 181.085 101.844V101.963C180.611 100.883 180.155 99.8472 179.731 98.8426V98.7989V98.749C180.567 95.7476 181.266 93.2204 181.765 91.3983C182.015 90.5372 182.215 89.8508 182.358 89.3391C182.42 89.0917 182.501 88.8496 182.602 88.6152C182.569 88.8664 182.516 89.1146 182.446 89.3578C182.321 89.8757 182.146 90.5746 181.928 91.442C181.453 93.2703 180.792 95.81 180.012 98.8239V98.7303L181.391 101.813V101.869V101.931L180.024 105.457V105.376C180.118 106.125 180.212 106.892 180.311 107.666C180.935 113.12 181.559 118.056 181.99 121.675C182.19 123.441 182.352 124.882 182.464 125.93L182.577 127.085C182.601 127.216 182.609 127.351 182.602 127.484Z" fill="#263238"/>
<path d="M178.084 134.903C178.053 134.803 178.032 134.701 178.021 134.597C177.99 134.36 177.946 134.067 177.896 133.717C177.797 132.9 177.666 131.802 177.497 130.466C177.166 127.721 176.698 123.933 176.137 119.752C175.575 115.571 175.026 111.79 174.627 109.057C174.433 107.728 174.271 106.629 174.152 105.818C174.109 105.463 174.071 105.194 174.04 104.932C174.024 104.829 174.024 104.723 174.04 104.62C174.077 104.717 174.105 104.817 174.121 104.92C174.171 105.157 174.227 105.444 174.296 105.793C174.44 106.555 174.639 107.665 174.87 109.019C175.332 111.746 175.918 115.521 176.48 119.708C177.042 123.895 177.472 127.689 177.728 130.441C177.865 131.814 177.965 132.937 178.028 133.699C178.028 134.054 178.071 134.323 178.084 134.591C178.1 134.694 178.1 134.799 178.084 134.903Z" fill="#263238"/>
<path d="M175.494 157.872C175.614 158.065 175.759 158.241 175.924 158.397C176.162 158.588 176.44 158.722 176.738 158.789C177.035 158.856 177.344 158.854 177.64 158.783C178.074 158.647 178.47 158.41 178.795 158.093C179.12 157.775 179.366 157.385 179.512 156.955C179.855 155.869 180.032 154.737 180.037 153.598C180.172 152.469 180.055 151.325 179.693 150.247C179.295 149.412 178.713 148.678 177.99 148.101C177.502 147.683 177.066 147.207 176.692 146.684C176.546 146.501 176.442 146.288 176.386 146.06C176.386 146.06 176.517 146.272 176.792 146.622C177.2 147.105 177.653 147.548 178.146 147.945C178.921 148.522 179.546 149.278 179.968 150.147C180.368 151.262 180.502 152.454 180.361 153.629C180.356 154.802 180.164 155.967 179.793 157.08C179.624 157.544 179.347 157.962 178.984 158.298C178.622 158.635 178.185 158.88 177.709 159.014C177.379 159.091 177.035 159.085 176.708 158.995C176.382 158.906 176.082 158.737 175.837 158.503C175.71 158.376 175.607 158.228 175.531 158.066C175.494 157.922 175.481 157.872 175.494 157.872Z" fill="#263238"/>
<path d="M168.518 133.624C168.518 133.624 169.142 126.467 174.808 125.805C174.808 125.805 174.914 131.665 168.518 133.624Z" fill="#263238"/>
<path d="M198.894 160.425L215.399 171.22L217.271 169.729L218.151 145.536L202.432 133.624L200.273 134.367L198.894 160.425Z" fill="#0EC79B"/>
<path d="M202.251 133.967L202.894 160.15H199.424L200.585 134.485L202.251 133.967Z" fill="#E0E0E0"/>
<path d="M207.443 166.166C207.597 166.535 207.857 166.851 208.19 167.073C208.523 167.295 208.914 167.414 209.315 167.414C209.345 167.422 209.373 167.437 209.397 167.458C209.421 167.478 209.439 167.504 209.452 167.532C209.607 167.816 209.833 168.055 210.107 168.225C210.382 168.396 210.696 168.492 211.018 168.506C211.645 168.505 212.259 168.327 212.791 167.994C213.652 167.47 215.187 164.025 215.187 164.025L218.825 155.913L212.709 154.26L204.934 156.681C204.934 156.824 203.112 164.169 203.112 164.169C203.555 164.274 204.021 164.214 204.423 164.001C204.825 163.787 205.136 163.434 205.296 163.008C205.691 162.119 206.15 161.26 206.669 160.437L207.249 163.751L205.034 164.506C204.962 164.854 205.019 165.216 205.193 165.526C205.368 165.835 205.648 166.071 205.983 166.191L207.443 166.166Z" fill="#FFBE9D"/>
<path d="M210.188 109.238L220.378 127.995L212.085 152.612L221.302 157.81L233.027 130.416C233.455 129.412 233.668 128.328 233.651 127.236C233.634 126.144 233.387 125.067 232.927 124.077L218.575 93.1948L210.188 109.238Z" fill="#455A64"/>
<path d="M212.085 152.612L211.224 154.522L219.923 159.214L220.834 157.542L212.085 152.612Z" fill="#E0E0E0"/>
<path d="M212.085 152.612C212.085 152.612 212.085 152.568 212.085 152.487C212.085 152.406 212.148 152.275 212.191 152.125L212.634 150.734C213.04 149.486 213.614 147.745 214.325 145.561C215.798 141.143 217.851 134.99 220.197 127.945V128.076C219.012 126.061 217.789 123.933 216.559 121.736C214.313 117.724 212.254 113.855 210.488 110.28C209.614 108.489 208.803 106.779 208.117 105.138C207.442 103.611 207.151 101.942 207.268 100.277C207.323 98.9077 207.63 97.5603 208.173 96.3021C208.602 95.3584 209.215 94.5098 209.976 93.8061C210.454 93.3614 211.002 92.9987 211.598 92.7328C211.799 92.6371 212.008 92.5598 212.222 92.502C211.42 92.8324 210.684 93.306 210.051 93.8997C209.315 94.6078 208.73 95.4566 208.329 96.3957C207.812 97.6379 207.524 98.9635 207.48 100.308C207.384 101.936 207.682 103.562 208.347 105.051C209.046 106.679 209.864 108.383 210.744 110.167C212.516 113.73 214.587 117.587 216.834 121.593C218.082 123.789 219.274 125.917 220.453 127.933L220.49 127.995V128.064C218.094 135.096 216.01 141.236 214.506 145.642L212.784 150.771C212.572 151.351 212.41 151.807 212.291 152.144L212.154 152.5C212.134 152.539 212.111 152.576 212.085 152.612Z" fill="#263238"/>
<path d="M227.267 127.82C226.924 127.725 226.589 127.606 226.262 127.465C224.647 126.929 222.893 126.984 221.314 127.621C220.998 127.784 220.671 127.923 220.334 128.039C220.578 127.765 220.881 127.552 221.221 127.415C222.015 127.026 222.883 126.814 223.766 126.791C224.65 126.76 225.529 126.922 226.344 127.265C226.69 127.377 227.006 127.567 227.267 127.82Z" fill="#263238"/>
<path d="M208.148 104.776L215.467 129.275L216.503 121.219L208.148 104.776Z" fill="#263238"/>
<path d="M220.272 152.912C220.272 152.956 220.178 153.037 220.172 153.218C220.166 153.399 220.278 153.611 220.528 153.536C220.575 153.524 220.618 153.5 220.653 153.465C220.688 153.431 220.712 153.389 220.725 153.342C220.738 153.295 220.738 153.245 220.725 153.198C220.712 153.151 220.687 153.108 220.653 153.074C220.547 152.931 220.409 152.918 220.403 152.875C220.397 152.831 220.572 152.737 220.815 152.912C220.884 152.966 220.939 153.035 220.976 153.114C221.013 153.193 221.031 153.28 221.027 153.367C221.016 153.48 220.97 153.586 220.896 153.672C220.823 153.758 220.725 153.819 220.615 153.848C220.505 153.888 220.385 153.892 220.272 153.858C220.16 153.825 220.061 153.755 219.991 153.661C219.943 153.589 219.913 153.507 219.902 153.422C219.891 153.336 219.9 153.249 219.929 153.168C220.022 152.881 220.272 152.881 220.272 152.912Z" fill="#263238"/>
<path d="M220.978 151.146C220.978 151.19 220.884 151.271 220.878 151.458C220.869 151.505 220.873 151.554 220.889 151.599C220.904 151.644 220.931 151.685 220.967 151.717C221.003 151.749 221.046 151.771 221.093 151.781C221.14 151.792 221.189 151.79 221.234 151.776C221.28 151.763 221.322 151.737 221.355 151.703C221.389 151.669 221.413 151.626 221.425 151.58C221.438 151.534 221.438 151.485 221.426 151.438C221.415 151.392 221.391 151.349 221.358 151.314C221.252 151.165 221.109 151.158 221.102 151.109C221.096 151.059 221.277 150.971 221.52 151.146C221.589 151.2 221.643 151.27 221.68 151.349C221.717 151.428 221.735 151.514 221.733 151.601C221.73 151.681 221.71 151.76 221.675 151.832C221.639 151.903 221.588 151.967 221.526 152.017C221.464 152.067 221.391 152.103 221.314 152.123C221.236 152.143 221.155 152.145 221.076 152.131C220.998 152.116 220.923 152.085 220.858 152.039C220.792 151.992 220.737 151.933 220.697 151.864C220.657 151.794 220.632 151.717 220.625 151.637C220.617 151.558 220.627 151.477 220.653 151.402C220.759 151.121 220.978 151.102 220.978 151.146Z" fill="#263238"/>
<path d="M230.993 119.939C229.901 120.514 229.52 122.123 229.645 123.353C229.77 124.582 230.225 125.774 230.194 127.003C230.112 127.882 229.956 128.753 229.726 129.605C229.491 130.461 229.517 131.367 229.801 132.207C229.952 132.623 230.237 132.976 230.611 133.212C230.985 133.448 231.426 133.553 231.866 133.511L232.734 131.764C233.409 130.397 233.75 128.888 233.729 127.362C233.707 125.837 233.323 124.339 232.609 122.991L230.993 119.939Z" fill="#263238"/>
<path d="M284.419 251.659C284.981 249.718 286.185 247.834 288.039 247.035C289.892 246.236 292.213 246.673 294.191 247.397C296.169 248.121 298.116 249.076 300.219 249.207C302.322 249.338 304.687 248.339 305.317 246.33C305.91 244.458 304.774 242.424 303.345 241.051C301.836 239.608 299.989 238.567 297.973 238.022C295.957 237.478 293.837 237.448 291.807 237.936C289.777 238.423 287.901 239.412 286.352 240.812C284.803 242.212 283.63 243.978 282.94 245.949" fill="#0EC79B"/>
<g opacity="0.5">
<path d="M284.419 251.659C284.981 249.718 286.185 247.834 288.039 247.035C289.892 246.236 292.213 246.673 294.191 247.397C296.169 248.121 298.116 249.076 300.219 249.207C302.322 249.338 304.687 248.339 305.317 246.33C305.91 244.458 304.774 242.424 303.345 241.051C301.836 239.608 299.989 238.567 297.973 238.022C295.957 237.478 293.837 237.448 291.807 237.936C289.777 238.423 287.901 239.412 286.352 240.812C284.803 242.212 283.63 243.978 282.94 245.949" fill="black"/>
</g>
<path d="M267.771 260.102C264.688 257.176 264.844 252.077 266.379 248.109C267.914 244.14 271.272 241.101 275.022 239.098C278.684 237.172 282.735 236.102 286.87 235.968C291.005 235.834 295.117 236.64 298.896 238.325C297.046 238.403 295.244 238.934 293.647 239.871C292.05 240.807 290.707 242.121 289.736 243.697C288.051 246.505 287.67 249.937 286.279 252.87C284.705 256.211 281.911 258.823 278.471 260.168C275.031 261.513 271.206 261.49 267.783 260.102" fill="#0EC79B"/>
<path d="M266.286 242.505C262.872 238.474 262.423 232.009 262.922 226.749C263.421 221.489 264.644 216.203 263.814 210.987C263.322 207.898 262.123 204.953 261.718 201.845C261.312 198.738 261.886 195.237 264.295 193.234C267.053 190.931 271.409 191.474 274.279 193.64C277.149 195.805 278.822 199.193 280.038 202.575C282.709 210.013 283.689 218.256 281.492 225.844C279.296 233.432 274.148 240.196 266.585 242.505" fill="#0EC79B"/>
<path d="M264.651 275.564C264.637 275.411 264.637 275.256 264.651 275.103C264.651 274.797 264.651 274.348 264.651 273.767C264.694 272.613 264.807 270.94 265.063 268.888C265.368 266.484 265.805 264.098 266.373 261.743C267.083 258.85 268.181 256.067 269.636 253.469C271.099 250.874 272.89 248.479 274.965 246.342C276.657 244.601 278.529 243.045 280.55 241.7C281.405 241.107 282.229 240.664 282.94 240.246C283.651 239.828 284.3 239.553 284.812 239.297L286.06 238.786C286.198 238.717 286.342 238.663 286.491 238.624C286.359 238.705 286.221 238.775 286.079 238.836L284.875 239.397C284.363 239.666 283.739 240.021 283.003 240.383C282.266 240.745 281.492 241.269 280.65 241.862C276.204 244.9 272.515 248.917 269.867 253.606C266.747 259.097 265.874 264.869 265.25 268.913C264.969 270.959 264.825 272.625 264.744 273.773L264.669 275.103C264.674 275.257 264.668 275.411 264.651 275.564Z" fill="#263238"/>
<path d="M235.21 226.612C228.896 230.424 228.914 233.888 229.969 237.164C231.023 240.44 234.898 242.711 238.081 241.488C239.897 240.795 241.201 239.217 242.336 237.625C243.472 236.034 244.514 234.343 246.08 233.201C247.647 232.059 249.937 231.629 251.522 232.758" fill="#0EC79B"/>
<g opacity="0.5">
<path d="M235.21 226.612C228.896 230.424 228.914 233.888 229.969 237.164C231.023 240.44 234.898 242.711 238.081 241.488C239.897 240.795 241.201 239.217 242.336 237.625C243.472 236.034 244.514 234.343 246.08 233.201C247.647 232.059 249.937 231.629 251.522 232.758" fill="black"/>
</g>
<path d="M230.48 230.787C232.134 228.509 236.209 227.847 238.786 228.983C241.363 230.119 243.248 232.384 244.939 234.637C246.63 236.889 248.271 239.267 250.611 240.839C252.951 242.412 256.227 242.973 258.548 241.395C259.293 240.84 259.916 240.14 260.381 239.336C260.846 238.533 261.141 237.643 261.25 236.721C261.453 234.878 261.326 233.015 260.876 231.217C260.32 228.571 259.409 225.801 257.288 224.122C254.929 222.25 251.672 222.157 248.633 222.25C245.176 222.363 241.663 222.618 238.418 223.816C235.173 225.014 231.86 227.61 230.48 230.78" fill="#0EC79B"/>
<path d="M259.403 270.511C259.395 270.463 259.395 270.415 259.403 270.367V269.961C259.403 269.581 259.403 269.057 259.347 268.395C259.303 267.01 259.247 265.044 259.178 262.629C259.11 260.215 259.003 257.3 258.829 254.087C258.654 250.873 258.411 247.341 257.924 243.666C257.706 241.874 257.343 240.102 256.838 238.368C255.875 235.318 254.398 232.454 252.47 229.901C251.658 228.857 250.765 227.878 249.799 226.974C248.392 225.674 246.8 224.589 245.076 223.754C244.77 223.611 244.495 223.473 244.258 223.374L243.634 223.136L243.254 222.98L243.129 222.924L243.266 222.956L243.653 223.08L244.277 223.299C244.52 223.386 244.795 223.517 245.107 223.654C246.866 224.461 248.49 225.532 249.924 226.831C250.909 227.729 251.817 228.708 252.639 229.757C253.581 230.968 254.416 232.258 255.135 233.613C255.934 235.107 256.594 236.672 257.107 238.287C257.604 240.034 257.958 241.818 258.167 243.622C258.654 247.31 258.885 250.848 259.053 254.068C259.222 257.288 259.29 260.183 259.34 262.617C259.39 265.051 259.409 267.022 259.415 268.383C259.415 269.05 259.415 269.575 259.415 269.955C259.415 270.117 259.415 270.255 259.415 270.361C259.415 270.467 259.403 270.511 259.403 270.511Z" fill="#263238"/>
<path d="M261.675 273.362C261.372 272.477 261.141 271.569 260.982 270.647C260.544 268.132 260.448 265.569 260.695 263.028C261.08 259.266 261.886 255.56 263.097 251.977C264.395 247.909 266.155 243.566 267.659 238.873C268.398 236.604 269.004 234.293 269.475 231.953C269.89 229.77 270.188 227.566 270.367 225.351C270.656 221.594 270.723 217.822 270.567 214.057C270.46 210.843 270.286 208.241 270.18 206.444C270.13 205.558 270.086 204.865 270.061 204.372C270.061 204.148 270.061 203.973 270.061 203.836C270.053 203.774 270.053 203.711 270.061 203.648C270.068 203.709 270.068 203.769 270.061 203.829C270.061 203.967 270.061 204.148 270.117 204.372C270.161 204.859 270.217 205.552 270.292 206.438C270.429 208.229 270.635 210.806 270.766 214.051C270.949 217.823 270.903 221.603 270.629 225.37C270.452 227.595 270.157 229.809 269.743 232.003C269.282 234.368 268.675 236.702 267.927 238.992C266.417 243.678 264.651 248.021 263.347 252.065C262.129 255.629 261.307 259.316 260.895 263.059C260.632 265.584 260.697 268.133 261.088 270.641C261.244 271.527 261.388 272.214 261.512 272.669C261.562 272.887 261.606 273.062 261.637 273.193C261.657 273.248 261.669 273.304 261.675 273.362Z" fill="#263238"/>
<path d="M277.331 276.214H247.678L246.998 270.504H277.331V276.214Z" fill="#455A64"/>
<path d="M250.86 275.565L254.567 292.688H270.679L274.148 275.565H250.86Z" fill="#455A64"/>
<path d="M277.331 276.213C277.331 276.294 270.81 276.338 262.773 276.313C254.736 276.288 248.208 276.213 248.208 276.132C248.208 276.051 254.729 276.007 262.773 276.032C270.816 276.057 277.331 276.138 277.331 276.213Z" fill="#455A64"/>
<path d="M272.238 284.668C271.436 284.061 270.56 283.557 269.63 283.171C268.617 282.776 267.541 282.565 266.454 282.547C265.12 282.548 263.797 282.789 262.548 283.258C261.2 283.72 259.933 284.25 258.704 284.544C257.612 284.776 256.488 284.81 255.384 284.643C254.641 284.535 253.921 284.308 253.25 283.97C253.073 283.871 252.902 283.76 252.738 283.639C252.626 283.558 252.57 283.508 252.576 283.502C252.582 283.495 252.826 283.645 253.3 283.87C253.974 284.162 254.686 284.356 255.415 284.444C256.494 284.583 257.588 284.53 258.648 284.288C259.833 283.995 261.1 283.452 262.46 282.99C263.739 282.51 265.095 282.271 266.46 282.285C267.576 282.321 268.676 282.562 269.705 282.996C270.398 283.283 271.049 283.663 271.639 284.126C271.798 284.248 271.95 284.379 272.095 284.519C272.201 284.606 272.245 284.656 272.238 284.668Z" fill="#263238"/>
<path d="M272.014 285.792C271.241 285.205 270.404 284.708 269.518 284.313C268.546 283.918 267.509 283.706 266.46 283.689C265.17 283.694 263.89 283.924 262.679 284.369C261.375 284.806 260.152 285.311 258.979 285.617C257.942 285.916 256.861 286.036 255.784 285.973C255.056 285.929 254.345 285.738 253.693 285.411C253.519 285.321 253.352 285.216 253.194 285.099C253.088 285.018 253.032 284.968 253.038 284.962C253.044 284.956 253.288 285.105 253.743 285.311C254.392 285.593 255.089 285.75 255.796 285.773C256.852 285.806 257.905 285.667 258.916 285.361C260.058 285.043 261.275 284.531 262.598 284.113C263.839 283.659 265.151 283.43 266.473 283.439C267.549 283.473 268.608 283.715 269.593 284.151C270.262 284.441 270.891 284.816 271.465 285.268C271.664 285.43 271.808 285.561 271.902 285.654C271.995 285.748 272.02 285.792 272.014 285.792Z" fill="white"/>
<path d="M272.532 283.533C271.704 282.903 270.805 282.371 269.855 281.948C268.821 281.505 267.72 281.241 266.598 281.168C265.221 281.141 263.852 281.383 262.567 281.879C261.268 282.389 259.941 282.822 258.592 283.177C257.456 283.371 256.296 283.371 255.16 283.177C254.395 283.056 253.652 282.821 252.957 282.478C252.77 282.383 252.59 282.272 252.421 282.147C252.308 282.06 252.252 282.01 252.258 282.004C252.265 281.998 252.514 282.16 253.007 282.378C253.703 282.684 254.438 282.894 255.191 283.002C256.304 283.167 257.436 283.146 258.542 282.94C259.877 282.573 261.191 282.135 262.479 281.629C263.797 281.119 265.204 280.879 266.617 280.924C268.544 281.081 270.384 281.794 271.914 282.977C272.08 283.106 272.238 283.243 272.389 283.389C272.488 283.47 272.545 283.526 272.532 283.533Z" fill="white"/>
<path d="M277.592 276.238C277.592 276.319 270.922 276.382 262.698 276.382C254.473 276.382 247.796 276.319 247.796 276.238C247.796 276.157 254.467 276.101 262.698 276.101C270.928 276.101 277.592 276.163 277.592 276.238Z" fill="#263238"/>
<path d="M50.9871 269.724C52.0542 271.246 54.1071 270.741 55.093 269.811C56.079 268.881 56.4596 267.54 56.8278 266.254C57.6702 263.315 58.525 260.233 57.8948 257.244C57.7442 256.338 57.347 255.492 56.7466 254.798C56.4445 254.457 56.0588 254.202 55.6276 254.056C55.1964 253.911 54.7347 253.88 54.2881 253.968C53.2398 254.242 52.5908 255.266 52.1228 256.239C50.7406 259.116 50.0159 262.264 50.0012 265.456C49.9009 266.945 50.2509 268.43 51.0058 269.718" fill="#0EC79B"/>
<g opacity="0.2">
<path d="M50.9871 269.724C52.0542 271.246 54.1071 270.741 55.093 269.811C56.079 268.881 56.4596 267.54 56.8278 266.254C57.6702 263.315 58.525 260.233 57.8948 257.244C57.7442 256.338 57.347 255.492 56.7466 254.798C56.4445 254.457 56.0588 254.202 55.6276 254.056C55.1964 253.911 54.7347 253.88 54.2881 253.968C53.2398 254.242 52.5908 255.266 52.1228 256.239C50.7406 259.116 50.0159 262.264 50.0012 265.456C49.9009 266.945 50.2509 268.43 51.0058 269.718" fill="black"/>
</g>
<path d="M54.9868 277.436C56.7747 276.597 58.785 276.354 60.7214 276.744C61.7782 276.833 62.7751 277.272 63.5543 277.992C64.2594 278.778 64.3967 280.151 63.5543 280.825C63.0301 281.178 62.3988 281.337 61.7697 281.274C60.2534 281.274 58.5748 280.993 57.3642 281.898C56.6716 282.416 56.2098 283.283 55.3862 283.539C54.9724 283.634 54.539 283.592 54.151 283.42C53.7629 283.248 53.441 282.954 53.2334 282.584C52.8438 281.823 52.759 280.941 52.9962 280.119C53.0976 279.549 53.3302 279.009 53.6756 278.543C54.0211 278.078 54.4699 277.699 54.9868 277.436Z" fill="#0EC79B"/>
<path d="M48.0479 271.908C48.5966 271.193 48.9619 270.354 49.112 269.465C49.2621 268.577 49.1924 267.665 48.9091 266.809C48.3248 265.103 47.2795 263.591 45.8889 262.441C44.3109 261.034 42.4731 259.949 40.4788 259.247C39.7072 258.934 38.8767 258.793 38.0452 258.835C37.6292 258.861 37.2258 258.988 36.8702 259.206C36.5145 259.423 36.2174 259.724 36.0047 260.083C35.4369 261.168 36.0047 262.485 36.5726 263.558C37.6169 265.444 38.8082 267.245 40.1356 268.944C41.2027 270.316 42.4257 271.67 44.0481 272.294C45.6705 272.918 47.3553 272.844 48.2164 271.714" fill="#0EC79B"/>
<path d="M50.9182 292.706C50.9715 292.478 51.0028 292.246 51.0118 292.013C51.0618 291.508 51.1242 290.871 51.199 290.141C51.2908 289.211 51.4325 288.286 51.6234 287.37C51.869 286.255 52.2049 285.162 52.628 284.101C53.0368 283.035 53.5957 282.032 54.2878 281.124C54.8515 280.388 55.5719 279.787 56.397 279.365C56.9566 279.088 57.557 278.902 58.1754 278.815C58.4088 278.803 58.6406 278.769 58.868 278.716C58.6339 278.686 58.397 278.686 58.1629 278.716C57.5152 278.762 56.8811 278.925 56.2909 279.196C55.4217 279.607 54.6593 280.214 54.0632 280.968C53.3406 281.884 52.758 282.902 52.3347 283.988C51.9046 285.063 51.5705 286.174 51.3363 287.308C51.1559 288.236 51.0329 289.173 50.9682 290.116C50.9058 290.915 50.8808 291.57 50.8746 291.988C50.8628 292.228 50.8774 292.469 50.9182 292.706Z" fill="#263238"/>
<path d="M51.0494 291.252C51.0574 291.144 51.0574 291.035 51.0494 290.927C51.0494 290.684 51.0494 290.384 51.0494 290.01C51.0494 289.211 51.0494 288.057 51.0931 286.634C51.1618 283.788 51.4051 279.851 51.8794 275.533C52.3536 271.215 52.9901 267.321 53.5704 264.532C53.7014 263.827 53.8387 263.203 53.9698 262.66C54.1008 262.117 54.2006 261.63 54.3005 261.25L54.5126 260.357C54.548 260.255 54.567 260.147 54.5688 260.039C54.5236 260.135 54.488 260.235 54.4627 260.339C54.3878 260.569 54.3005 260.863 54.1944 261.218C54.0883 261.574 53.951 262.073 53.8138 262.622C53.6765 263.172 53.5205 263.802 53.3707 264.494C52.5836 268.131 51.992 271.808 51.5986 275.508C51.1243 279.839 50.9122 283.782 50.8872 286.64C50.8872 288.063 50.8872 289.224 50.9371 290.016C50.9621 290.39 50.9808 290.696 50.9933 290.933C50.9981 291.041 51.017 291.148 51.0494 291.252Z" fill="#263238"/>
<path d="M51.068 283.645C51.0897 283.325 51.0897 283.004 51.068 282.684C51.0305 282.06 50.9432 281.174 50.7747 280.082C50.5597 278.805 50.2743 277.541 49.9198 276.295C49.5011 274.765 48.9713 273.267 48.3348 271.814C47.2358 269.139 45.6583 266.686 43.6798 264.576C43.3387 264.213 42.9739 263.873 42.5878 263.559C42.4193 263.415 42.2696 263.272 42.1198 263.159L41.6955 262.872C41.4402 262.677 41.1688 262.504 40.8843 262.354C41.8173 263.084 42.7031 263.872 43.5363 264.713C45.4417 266.844 46.9676 269.286 48.0478 271.933C48.6767 273.375 49.2103 274.857 49.6452 276.37C50.0571 277.761 50.3316 279.04 50.5438 280.114C50.756 281.187 50.8558 282.073 50.9244 282.684C50.9472 283.008 50.9952 283.329 51.068 283.645Z" fill="#263238"/>
<path d="M143.077 31.456C143.183 31.4449 143.289 31.4449 143.395 31.456H144.331C144.837 31.4655 145.342 31.5135 145.841 31.5995C146.141 31.6495 146.465 31.6807 146.802 31.7493L147.882 32.0176C149.727 32.5027 151.481 33.2868 153.073 34.3389C156.914 36.893 159.63 40.8206 160.666 45.315C161.701 49.8095 160.976 54.5298 158.639 58.5064C156.64 61.8926 153.596 64.5396 149.966 66.0506C148.054 66.8414 146.018 67.2892 143.95 67.3735C141.824 67.5051 139.691 67.2406 137.66 66.5935L137.473 66.5311H137.617L127.102 70.1752L126.678 70.325L126.809 69.8882L129.542 61.1522L129.586 61.3643C127.716 59.2724 126.361 56.7725 125.629 54.0641C124.896 51.3556 124.807 48.5135 125.368 45.7643C125.834 43.4542 126.756 41.2606 128.082 39.3122C129.213 37.6314 130.62 36.1545 132.244 34.9442C133.541 33.9437 134.982 33.1462 136.519 32.5792C137.127 32.3273 137.753 32.1188 138.391 31.9552C138.923 31.805 139.465 31.6924 140.013 31.6183C140.506 31.5496 140.943 31.4747 141.317 31.4435L142.278 31.4123H142.896C142.962 31.4016 143.029 31.4016 143.096 31.4123C143.03 31.4278 142.963 31.4383 142.896 31.4435L142.316 31.4872L141.367 31.5559C140.993 31.5995 140.562 31.6807 140.075 31.7618C139.535 31.8471 139.001 31.9701 138.478 32.1299C137.84 32.2924 137.214 32.501 136.606 32.7539C135.904 33.0384 135.219 33.3612 134.553 33.7211C133.81 34.1436 133.097 34.6169 132.419 35.1376C130.838 36.3415 129.468 37.7984 128.363 39.4495C127.073 41.3772 126.182 43.5434 125.742 45.8205C125.211 48.5058 125.312 51.2779 126.038 53.9174C126.763 56.5568 128.094 58.991 129.923 61.0274L130.01 61.121L129.973 61.2395C129.103 64.0475 128.199 66.9595 127.258 69.9755L126.965 69.6947L137.467 66.1442H137.542H137.617L137.798 66.2003C139.776 66.8287 141.853 67.0868 143.925 66.9616C145.94 66.8799 147.925 66.447 149.791 65.6824C153.336 64.2129 156.311 61.6366 158.271 58.3379C160.555 54.4448 161.274 49.8288 160.281 45.4257C159.288 41.0226 156.658 37.1617 152.924 34.6259C151.362 33.5755 149.643 32.7794 147.832 32.2672L146.771 31.9802C146.434 31.9053 146.116 31.8679 145.822 31.8117C145.329 31.7114 144.828 31.6488 144.325 31.6245L143.395 31.5496C143.287 31.5269 143.18 31.4956 143.077 31.456Z" fill="#0EC79B"/>
<path d="M132.506 50.638L135.271 47.8674L140.606 52.6098L151.083 42.5322L153.647 45.3028L140.213 57.945L132.506 50.638Z" fill="#0EC79B"/>
</svg>
