<svg width="16" height="16" viewBox="0 0 16 16" fill="none" xmlns="http://www.w3.org/2000/svg">
<path d="M8.00039 15.575C7.86706 15.575 7.74206 15.5542 7.62539 15.5125C7.50872 15.4708 7.40039 15.4 7.30039 15.3L0.700391 8.7C0.500391 8.5 0.400391 8.2625 0.400391 7.9875C0.400391 7.7125 0.500391 7.475 0.700391 7.275C0.900391 7.075 1.13372 6.975 1.40039 6.975C1.66706 6.975 1.90039 7.075 2.10039 7.275L7.00039 12.175V0.975C7.00039 0.691667 7.09622 0.458333 7.28789 0.275C7.47956 0.0916667 7.71706 0 8.00039 0C8.28372 0 8.52122 0.0958333 8.71289 0.2875C8.90456 0.479167 9.00039 0.716667 9.00039 1V12.175L13.9004 7.275C14.1004 7.075 14.3337 6.975 14.6004 6.975C14.8671 6.975 15.1004 7.075 15.3004 7.275C15.5004 7.475 15.6004 7.7125 15.6004 7.9875C15.6004 8.2625 15.5004 8.5 15.3004 8.7L8.70039 15.3C8.60039 15.4 8.49206 15.4708 8.37539 15.5125C8.25872 15.5542 8.13372 15.575 8.00039 15.575Z" fill="#0EC79B"/>
</svg>
